<svg xmlns="http://www.w3.org/2000/svg" width="334" height="314" fill="none"><path fill="#F5F5F5" d="M70 277.6c53.8 26.6 141 26.6 194.9 0 53.8-26.7 53.8-70 0-96.6-53.9-26.7-141.1-26.7-195 0-53.8 26.7-53.8 69.9 0 96.6Z"/><path fill="#E0E0E0" d="m46.9 244.2 2.5 1.3a3.4 3.4 0 0 0 2.9 0L167.7 183c.2 0 .3-.2.5-.3a.8.8 0 0 0 0-1 .9.9 0 0 0-.5-.3l-2.5-1.3a3.4 3.4 0 0 0-2.8 0L46.9 242.6c-.2 0-.3.2-.4.3a.8.8 0 0 0 0 1l.4.3ZM213.5 266.8c19.5 0 35.3-8.2 35.3-18.2s-15.8-18.1-35.3-18.1c-19.4 0-35.2 8-35.2 18.1 0 10 15.8 18.2 35.2 18.2ZM254.2 217.4c15 0 27.2-6.3 27.2-14 0-7.8-12.1-14-27.2-14-15 0-27.1 6.2-27.1 14 0 7.7 12.1 14 27.1 14Z"/><path fill="#33907C" d="M267.5 189.3c0-3.2 2.4-10 5.9-14.1 3.5-4.2 9-7.3 13-6.1 3.7 1.1 3.3 5.7-1.1 8.8-4.4 3-11.1 6.9-13 12.1l-4 6.4-.8-7.1Z"/><path fill="#000" d="M267.5 189.3c0-3.2 2.4-10 5.9-14.1 3.5-4.2 9-7.3 13-6.1 3.7 1.1 3.3 5.7-1.1 8.8-4.4 3-11.1 6.9-13 12.1l-4 6.4-.8-7.1Z" opacity=".1"/><path fill="#fff" d="M267.3 193.7a.3.3 0 0 0 .3-.2 32.5 32.5 0 0 1 17.2-22.2.2.2 0 0 0 0-.2H284.4a33 33 0 0 0-17.3 22.5h.1Z"/><path fill="#33907C" d="M269.2 200.7c.5-1.8 2.8-4.9 6.6-7.4 4.2-2.7 9.4-4 10.6-6.2 1.5-2.5-.8-4.9-5.1-4.4-4.3.6-11.8 6.2-13 14.5l.9 3.5Z"/><path fill="#fff" d="M268.3 198.8h.1l.1-.2a19.8 19.8 0 0 1 14.7-13.3V185a.2.2 0 0 0-.2-.1 20 20 0 0 0-15 13.7l.1.1h.2Z"/><path fill="#33907C" d="m50 242.6-.5-.3c-.4-.2-.8-.6-1-1a3 3 0 0 1-.5-1.3V79c0-.5.2-1 .5-1.3.2-.5.6-.8 1-1l110.3-60a3.4 3.4 0 0 1 3 0l.4.3c.5.3.8.7 1 1 .3.5.5 1 .5 1.4v161c0 .4-.2 1-.4 1.3-.3.4-.6.8-1 1l-110.4 60a3.4 3.4 0 0 1-2.9 0Z"/><path fill="#fff" d="M164.7 19.2c-.1-.7-.7-1-1.5-.6L53 78.5a3 3 0 0 0-1 1l-3.4-1.9a3 3 0 0 1 1-1l110.3-59.8a3.4 3.4 0 0 1 3 0l.4.2c.4.3.8.6 1 1 .3.4.4.8.5 1.2Z" opacity=".4"/><path fill="#000" d="M52.7 242.7a3.5 3.5 0 0 1-2.7 0l-.5-.4c-.4-.2-.8-.6-1-1a3 3 0 0 1-.5-1.4V79c0-.5.2-1 .5-1.3l3.4 1.8c-.3.5-.4 1-.5 1.4v161c0 .7.6 1 1.3.8Z" opacity=".1"/><path fill="#EBEBEB" d="m64.5 184.4-.5-.3c-.5-.2-.8-.6-1-1a3 3 0 0 1-.5-1.4v-28.9c0-.5.2-1 .4-1.3.3-.5.6-.8 1-1L164.2 96a3.4 3.4 0 0 1 3 0l.4.3c.5.3.8.6 1 1 .3.4.5 1 .5 1.4v29c0 .4-.2.9-.4 1.3l-1 1-100.2 54.4a3.4 3.4 0 0 1-3 0Z"/><path fill="#FAFAFA" d="M169 98.5c-.1-.7-.7-1-1.5-.6l-100 54.4a3 3 0 0 0-1.1 1l-3.5-1.9a3 3 0 0 1 1-1L164.2 96a3.4 3.4 0 0 1 3 0l.4.3c.4.2.8.6 1 1 .3.3.4.7.5 1.2Z"/><path fill="#E0E0E0" d="M67.2 184.5a3.4 3.4 0 0 1-2.7 0l-.5-.4c-.5-.2-.8-.6-1-1a3 3 0 0 1-.5-1.4v-28.9c0-.5.2-1 .4-1.3l3.5 1.9c-.3.4-.4.8-.5 1.3v29c0 .7.6 1 1.3.8Z"/><path fill="#33907C" d="M81.6 150.4c5.7-3.1 10.3-.7 10.3 5.3 0 6.1-4.6 13.5-10.3 16.5-5.8 3-10.4.7-10.4-5.3a21 21 0 0 1 10.4-16.5Z"/><path fill="#EBEBEB" d="m64.5 223.6-.5-.3c-.5-.2-.8-.6-1-1a3 3 0 0 1-.5-1.4V192c0-.5.2-1 .4-1.3.3-.5.6-.8 1-1l100.2-54.5a3.4 3.4 0 0 1 3 0l.4.3c.5.3.8.6 1 1 .3.4.5 1 .5 1.4v29c0 .4-.2.9-.4 1.3l-1 1-100.2 54.4a3.4 3.4 0 0 1-3 0Z"/><path fill="#FAFAFA" d="M169 137.7c-.1-.7-.7-1-1.5-.6l-100 54.4a3 3 0 0 0-1.1 1l-3.5-1.9 1-1 100.2-54.3a3.4 3.4 0 0 1 3 0l.4.2c.4.3.8.6 1 1 .3.3.4.7.5 1.2Z"/><path fill="#E0E0E0" d="M67.2 223.7a3.4 3.4 0 0 1-2.7 0l-.5-.4c-.5-.2-.8-.6-1-1a3 3 0 0 1-.5-1.4V192c0-.5.2-1 .4-1.3l3.5 1.9c-.3.4-.4.8-.5 1.3v29c0 .7.6 1 1.3.8Z"/><path fill="#33907C" d="M81.6 189.6c5.7-3.1 10.3-.7 10.3 5.3 0 6.1-4.6 13.5-10.3 16.5-5.8 3-10.4.7-10.4-5.3a21 21 0 0 1 10.4-16.5Z"/><path fill="#EBEBEB" d="m64.5 118.9-.5-.3c-.5-.3-.8-.6-1-1a3 3 0 0 1-.5-1.4v-29c0-.4.2-.9.4-1.3l1-1 100.2-54.4a3.4 3.4 0 0 1 3 0l.4.3c.5.2.8.6 1 1 .3.4.5.9.5 1.3v29c0 .4-.2 1-.4 1.3-.3.4-.6.8-1 1L67.3 119a3.4 3.4 0 0 1-3 0Z"/><path fill="#FAFAFA" d="M169 33c-.1-.8-.7-1-1.5-.7l-100 54.5c-.5.2-.9.6-1.1 1l-3.5-2 1-1 100.2-54.3a3.4 3.4 0 0 1 3 0l.4.2c.4.3.8.6 1 1 .3.4.4.8.5 1.2Z"/><path fill="#E0E0E0" d="M67.2 119a3.4 3.4 0 0 1-2.7-.1l-.5-.3c-.5-.3-.8-.6-1-1a3 3 0 0 1-.5-1.4v-29c0-.4.2-.9.4-1.3l3.5 2c-.3.3-.4.8-.5 1.3V118c0 .8.6 1.1 1.3.9Z"/><path fill="#33907C" d="M81.6 84.8c5.7-3 10.3-.7 10.3 5.4 0 6-4.6 13.5-10.3 16.5-5.8 3-10.4.6-10.4-5.4a21 21 0 0 1 10.4-16.5Z"/><path fill="#37474F" d="m71.5 155.6-.5-.3c-.4-.3-.8-.6-1-1a3 3 0 0 1-.5-1.4v-29c0-.4.2-.9.5-1.3.2-.4.6-.7 1-1l100.1-54.4a3.4 3.4 0 0 1 3 0l.5.3c.4.2.8.6 1 1 .3.4.4.9.5 1.4v28.9c0 .5-.2 1-.5 1.3-.2.5-.6.8-1 1L74.4 155.7a3.4 3.4 0 0 1-2.9 0Z"/><path fill="#455A64" d="M176 69.6c0-.7-.7-1-1.4-.5L74.4 123.5a3 3 0 0 0-1 1l-3.4-1.9c.2-.4.6-.8 1-1l100.1-54.4a3.4 3.4 0 0 1 3 0l.5.3c.4.2.7.5 1 1 .2.3.4.7.4 1.1Z"/><path fill="#263238" d="M74.2 155.7a3.5 3.5 0 0 1-2.7-.1l-.5-.3a3 3 0 0 1-1.5-2.4v-29c0-.4.2-.9.5-1.3l3.4 2c-.2.3-.4.8-.4 1.3v29c0 .7.5 1 1.2.8Z"/><path fill="#F5F5F5" d="M88.6 121.5c5.7-3 10.4-.7 10.4 5.4 0 6-4.7 13.5-10.4 16.5s-10.4.7-10.4-5.4a21 21 0 0 1 10.4-16.5Z"/><path fill="#33907C" d="M88.8 139a1.2 1.2 0 0 1-1.2 0l-4.6-3.2c-.6-.4-.5-1.6.2-2.6s1.8-1.6 2.4-1.1l3.1 2.2 8.8-17.7c.6-1.1 1.6-2 2.4-1.7.7.2.9 1.3.3 2.3l-10 20.3c-.3.6-.7 1.1-1.3 1.5ZM176 112.6l-2.9-1.6c-1.2-.7-2.8 0-3.6.5l-1.8-1c-2.2-1.2-5.3 1.4-6 2l-.8-.4c-2.3-1.3-6.5 2.2-6.5 2.2v-13.2l1.8-.8-3-1.6a2.8 2.8 0 0 0-2.5.2 8 8 0 0 0-2.7 2.6c-.6 1.1-1 2.3-1 3.5v30.5c-2.7-1.9-5.6-3-8-2.6a8 8 0 0 0-5 3.2c-1.1 2 .9 3.3 3.5 6 2.6 3 4.9 6.2 7.3 8.3 1.1 1.1 2.5 2 4 2.6v4l3 1.6 19-13.5v-4s2.6-10.1 3.5-14.4c.8-4 1.6-10.6.2-14l1.5-.1Z"/><path fill="#fff" d="m176 112.6-2.9-1.6c-1.2-.7-2.8 0-3.6.5l-1.8-1c-2.2-1.2-5.3 1.4-6 2l-.8-.4c-2.3-1.3-6.5 2.2-6.5 2.2v-13.2l1.8-.8-3-1.6a2.8 2.8 0 0 0-2.5.2 8 8 0 0 0-2.7 2.6c-.6 1.1-1 2.3-1 3.5v30.5c-2.7-1.9-5.6-3-8-2.6a8 8 0 0 0-5 3.2c-1.1 2 .9 3.3 3.5 6 2.6 3 4.9 6.2 7.3 8.3 1.1 1.1 2.5 2 4 2.6v4l3 1.6 19-13.5v-4s2.6-10.1 3.5-14.4c.8-4 1.6-10.6.2-14l1.5-.1Z" opacity=".4"/><path fill="#33907C" d="m154.6 147.7-14.4-7.9-6.3-3.4c-.8 1.9 1.1 3.2 3.6 5.8 2.6 2.8 4.9 6.2 7.2 8.2 1.2 1.1 2.6 2 4.1 2.7v3.9l2.9 1.6 4.2-3-1.3-8ZM149.8 106.6 147 105v32h2.8v-30.4ZM172.4 114.7l2.2-1.6-.1-.4h.8l-1.8-.1-3-1.6-1 .5 1 .5 1.9 2.7ZM164.5 114.2l2-1.5-2.8-1.6-2 1.4 2 1 .8.7ZM160.1 114l-2.8-1.5v3.4l3.3-1.2-.5-.6Z"/><g fill="#000" opacity=".1"><path d="m154.6 147.7-14.4-7.8-6.3-3.5c-.8 1.9 1.1 3.2 3.6 5.8 2.6 2.8 4.9 6.2 7.2 8.2 1.2 1.2 2.6 2 4.1 2.7v3.9l2.9 1.6 4.2-3-1.3-8ZM149.8 106.6 147 105v32h2.8v-30.4ZM172.4 114.7l2.2-1.6-.1-.4h.8l-1.8-.1-3-1.6-1 .5 1 .5 1.9 2.7ZM164.5 114.2l2-1.5-2.8-1.6-2 1.4 2 1 .8.7ZM160.1 114l-2.8-1.5v3.4l3.3-1.2-.5-.6Z" opacity=".1"/></g><path fill="#33907C" d="M151.7 158.6v-4c-1.5-.6-3-1.5-4-2.6-2.4-2.1-4.7-5.5-7.3-8.3-2.6-2.7-4.7-4-3.4-6a8 8 0 0 1 4.8-3.2c2.5-.5 5.3.7 8 2.6v-30.5c0-1.2.5-2.4 1.1-3.5a8 8 0 0 1 2.6-2.6c2.1-1.1 3.8-.2 3.8 2V116s5.1-4.3 7.2-1.7c0 0 5-5 7.3-.8 0 0 3.7-2.8 5.4.5 1.6 3.2.8 10.1 0 14.4-.9 4.2-3.6 14.4-3.6 14.4v4l-21.9 11.9Z"/><path fill="#455A64" d="M157.3 121.6s.4-6.1 2.8-7.6c-1 .5-2 1.1-2.8 1.8v-.1V121.7ZM164.5 114.2v5.6s.7-5.8 2-7.1l-2 1.5ZM171.8 113.4v5.6s.4-5.6 1.7-6.4l-1.7.8Z"/><path fill="#EBEBEB" d="M150.7 95.1c-.5.3-.9.1-.9-.3v-4.4c0-.3.1-.5.3-.7.1-.3.3-.4.6-.6.4-.2.8 0 .8.4v4.3c0 .3-.1.6-.3.8l-.5.5ZM143.6 102c-.3.6-.8.9-1.2.7l-2.7-1.5c-.3-.2-.3-.7 0-1.2.3-.6.9-.9 1.2-.7l2.7 1.5c.4.2.4.7 0 1.3ZM140.7 111.2v.1c0 .3 0 .6-.2.8l-.7.6-3.7 2c-.5.2-.9 0-.9-.4v-.1c0-.3.2-.6.3-.8l.6-.5 3.7-2c.5-.3 1-.2 1 .3ZM160.6 100.6v-.2c0-.2.1-.5.3-.7.1-.3.3-.5.6-.6l3.7-2c.5-.3.9-.1.9.3v.2c0 .2-.1.5-.3.7-.1.3-.4.5-.6.6l-3.7 2c-.5.3-1 .1-1-.3ZM157.6 94.5c-.3-.2-.3-.8 0-1.3l2.8-4.4c.3-.5.8-.8 1.1-.6.4.2.4.7 0 1.3l-2.7 4.4c-.3.4-.8.7-1.2.6Z"/><path fill="#263238" d="M263.3 198v-.8c-.3.9-1.7 4.5-3.8 6.3-1.6 1.5-4 3.1-4.5 4.7-.6 1.6 3.2 2.2 4.7 2a9.8 9.8 0 0 0 5.5-2.8c1-1 1.5-2.2 2.1-3 .7-.9 2.1-1.8 2.5-2.7.2-.6 0-1.7-.3-2.7-.3-1-.5-1.8-.8-1.7v.5c-.8.6-1.7.9-2.7.9-.8 0-2.7-.2-2.7-.7Z"/><path fill="#FFA8A7" d="m258 204.8 1.5-1.3c1.5-1.3 2.6-3.4 3.3-4.9.3-.8.5-1.7.5-2.6v-2.8h5.4V197.9c-.3 1-2.7 3.8-4.1 5.6a7.7 7.7 0 0 1-4.8 3c-2 .3-3-.3-1.8-1.7Z"/><path fill="#263238" d="M242.6 193v-.7a17 17 0 0 1-3.8 6.3c-1.7 1.4-4 3-4.5 4.7-.6 1.6 3.1 2.2 4.7 2a9.8 9.8 0 0 0 5.5-2.8c.9-1 1.4-2.3 2-3 .7-.9 2.2-1.8 2.6-2.8.2-.5 0-1.6-.3-2.6s-.6-1.9-.9-1.8v.6c-.7.5-1.7.8-2.7.8-.7 0-2.6-.1-2.6-.7Z"/><path fill="#FFA8A7" d="m237.3 199.8 1.5-1.2c1.5-1.3 2.6-3.4 3.3-4.9.3-.8.5-1.7.5-2.6v-2.9h5.3v4.7c-.2 1.1-2.7 3.9-4 5.7a7.7 7.7 0 0 1-4.9 3c-2 .3-3-.3-1.7-1.8Z"/><path fill="#37474F" d="M267.6 120.3c4.1 8.5-.2 38.3-.2 38.3.2 1.3 1.8 4 2.5 10 .7 7.2-1.2 25.2-1.2 25.2a6 6 0 0 1-5.3.2s-5.1-27-6-34.1c-.9-6.2-2.5-19.9-2.5-19.9l-4.5 19.8c.6 2 1.1 4 1.4 6.1.4 4.2-3.9 23.7-3.9 23.7s-1.8.6-5.3.1c0 0-1.5-25.8-2-30.8A206 206 0 0 1 244 119l23.6 1.2Z"/><path fill="#263238" d="m254.9 140-1.3-7.8s-5.7-1.1-8.3-3.4c1.8 2 4.1 3.4 6.7 4.2l1.5 6-2.6 18.4 4-17.4Z"/><path fill="#FFA8A7" d="M251.5 90.7a8 8 0 0 0-3.7.6 7.6 7.6 0 0 0-3 2.2l-10.3 12.6s-12-5.7-12.6-6.3c-.6-.7-.2-2 0-2.8 0-.7.3-2.4.5-2.9.3-.8-1-.6-1.7.2-.8.8-1 2.2-1.5 2.5-.3.3-3.2-2.8-4.6-4.3-1.4-1.5-2-2.5-3-2-.6.5-.2 1.4.8 2.7.5.5 1 1 1.3 1.7.1.2-.2.4-.4.5-.3.2-.7.6-.8 1v.5c-.1.5-.7.7-.9 1v1l-.2.6a1.3 1.3 0 0 0 .4 1.1c1 1 2.3 1.5 3.6 2.2 1 .5 2.2.8 3.4 1.3 1.2.5 15.4 9.7 17.6 8.6 2.3-1.2 13.9-13.9 13.9-13.9 3.3-5.2 1.2-8.1 1.2-8.1Z"/><path fill="#F5F5F5" d="M260.3 90.9c5.3.3 5.7 2.7 7 5.4 1 2 1 4.3.3 6.4l-3.7 10s1.7 3.9 3.7 7.6c-9.3 4.8-20.8 2.3-23.6-1.3l1-10.4c-1.6-3.8-2-6.3-1.3-8.8 1.3-4.7 6.2-9.3 8.4-9.1l8.2.2Z"/><path fill="#263238" d="M255.2 86.8h2.1a11.4 11.4 0 0 0 7.6-3 10.1 10.1 0 0 0 3.2-7.2 10 10 0 0 0-3.2-7.2c-2-2-4.8-3-7.7-3h-1.9c-2.9 0-5.6 1.1-7.6 3-2 2-3.2 4.5-3.2 7.2s1.1 5.3 3.1 7.2c2 1.9 4.8 3 7.6 3Z"/><path fill="#263238" d="M273.9 92.1c-1.7 0-3.3-.6-4.5-1.7a5.8 5.8 0 0 1-1.9-4.3V73.3A6.7 6.7 0 0 1 272 75a6 6 0 0 1 1.9 4.3V92Z"/><path fill="#263238" d="m268.7 71-1.6 2.4a1.5 1.5 0 0 0 1.1.2c.2 0 .4 0 .5-.2.2 0 .4-.2.5-.4.2-.3.2-.7.1-1 0-.4-.3-.8-.6-1Z"/><path fill="#FFA8A7" d="M248.3 71c-1.2.6-2.8 3.6-2.6 9.8.1 5.2 2 6.5 2.8 6.9 1 .3 2.7.1 4.4-.2v3.2s-2.3 2.5-2.2 4c.1 1.4 3.4 1.8 5.6.4a14 14 0 0 0 3.6-3.6V84a2.1 2.1 0 0 0 1.5.8 2.3 2.3 0 0 0 1.5-.5c2-1.2 2-4 1-5.1-1.2-1-3.5-.7-4 .7 0 0-2.7 0-6.3-1.8a10 10 0 0 1-3.5-3 9.2 9.2 0 0 1-1.8-4Z"/><path fill="#263238" d="M252.6 79.4v.4l.4.3a.7.7 0 0 0 .7-.1l.2-.4v-.4l-.2-.3a.7.7 0 0 0-.4 0h-.5l-.2.5Z"/><path fill="#F28F8F" d="m251.7 83.9-1.6.5s0 .2.2.3l.2.2a.9.9 0 0 0 .7 0c.2 0 .4-.2.5-.4V84Z"/><path fill="#263238" d="m246.8 77.4 1.4-1-.2-.1a.9.9 0 0 0-1.3.5l.1.6ZM247.2 79a.6.6 0 0 0 .1.4l.3.2H248.2c.2 0 .3-.2.3-.3l.1-.4c0-.1 0-.3-.2-.4a.8.8 0 0 0-.8-.2l-.3.3-.1.4Z"/><path fill="#F28F8F" d="m250.6 78.6-.2 4-2.2-.7 2.4-3.3ZM253 87.5c1.7-.2 5.4-1.2 6-2.5-.3.7-.7 1.3-1.3 1.7-1.1.9-4.8 1.9-4.8 1.9v-1Z"/><path fill="#000" d="M258 121.2a5.7 5.7 0 0 0 3.5-2.3 5 5 0 0 0 .6-4c0-.5-.3-.8-.7-1.1a2 2 0 0 0-1.2-.4 5.2 5.2 0 0 0 2.3-3.2l1-6.3c.2-1 .1-2-.2-3l3.7-4.1.7.4c.6 1.8.5 3.7-.2 5.5l-3.6 10s1.7 3.9 3.7 7.6a25 25 0 0 1-19.8 1.2c3.4.5 6.8.4 10.2-.3Z" opacity=".1"/><path fill="#FFA8A7" d="M277 115.8c-4.7-18.4-8.3-24.6-14.1-24.5-1.7 2-1.2 7.7 1.4 11.2 0 0 6 12 7 16.1.8 3.7 1.8 8.4 1.7 11.6 0 .6-.2 1.1-.6 1.5-1.1 1.1-1.1 2-1.9 3.3-.5 1-1.1 1.3-1 1.5.3.3.6.4 1 .4.3 0 .6 0 .9-.3.5-.3 1-.7 1.3-1.2-.2 1.2-.6 2.3-1 3.4-1.3 2.6-1 4 2.7 3 2.4-.6 3.8-2.4 4.2-7.7.2-2 .2-4 0-5.9-.4-5-.8-9.4-1.5-12.4Z"/><path fill="#B16668" d="M229.5 168.5c.5-18-1-22.2-6.1-25.5l-2 10.4s2.3 12.2 2 16.3c-.1 3.6-.5 8-1.4 11-.2.5-.5 1-1 1.2-1.3.8-1.8 1.6-2.8 2.5-.8.8-1.4 1-1.4 1.2.2.3.4.5.7.6h1l1.8-1c-.5 1.1-1.1 2.2-1.9 3-1.8 2.2-1.9 3.4 1.8 3.5 2.3 0 4-1.3 5.8-6 .7-1.8 1.2-3.6 1.6-5.4 1-4.8 1.8-8.9 1.9-11.8Z"/><path fill="#33907C" d="M219.1 141.6c2.4-.3 5.7.2 7.9 3.8 2 3.5 2.6 9.7 2.8 15.8 0 0-4.2 3.3-9.3 1.7l-1.4-21.3Z"/><path fill="#000" d="M219.1 141.6c2.4-.3 5.7.2 7.9 3.8 2 3.5 2.6 9.7 2.8 15.8 0 0-4.2 3.3-9.3 1.7l-1.4-21.3Z" opacity=".1"/><path fill="#263238" d="M226.2 240.3c.4.1.5.8.6 2.2 0 1 .3 2.8-1 3.2-1.3.4-3.2.2-4-.8-1-1.2-1.8-2.3-3.3-3.8-1.2-1.3-2.6-2.5-3.1-4.3-.5-1.6-.1-2.3 1-2.8 1.7-.6 4.3 1.5 5.5 1.8 1.1.3 4 4.4 4.3 4.5Z"/><path fill="#B16668" d="M226.2 239v1.7a4.6 4.6 0 0 1-4.5.1l-.5-2.4 5 .6Z"/><path fill="#263238" d="m211.8 250 .7 2.7c.3 1 .6 2.8.2 3.5-.4.8-1.9 1.3-4.1 1.3-1.5 0-3.8 1-5.4 1.8-1.6.8-5 1.2-6.8 1-2-.3-4.2-1.4-4.5-2.2-.3-.8.1-1.6 5-3.5 0 0 6.6-2 9-4.5l5.9-.1Z"/><path fill="#B16668" d="M211.8 248.2v2c0 .7-1 1.7-3.3 1.6-1.6 0-2.7-.4-2.6-1.7v-1.8l5.9-.1Z"/><path fill="#37474F" d="M227.4 216.7c-.4-3-1.1-6-2.1-8.8l1-14.7c.3-7.8 0-17.5 0-19.5 0 0-26.5-5-27 4-.5 8.9 1 31.7 1.3 35.6.3 4 1 7.4 2 13.8.8 6.4 3.2 21.2 3.2 21.2a6.6 6.6 0 0 0 5.9-.1s1.9-18 1.7-22.5c-.2-3.3-.8-6.7-1.9-9.9l1-13.8c.4-6.4 1-9.5 1-12.3l.6-.3.9 15c.3 4 1 7.8 2.2 15 1 6.4 4.2 19.8 4.2 19.8 3 1.6 4.8-.2 4.8-.2s2-16.8 1.2-22.3Z"/><path fill="#263238" d="M213.5 189.7s6.5-3 9.7-5.7c0 0-3 4-7 5.8l-1.3 13.5-.8-13.6h-.6Z"/><path fill="#B16668" d="m207.8 138.8 1.6 8.1 7.8-.5-1.6-9.2-7.8 1.6Z"/><path fill="#33907C" d="M225.5 145.8c-.8-2.2-3.8-4.6-6.8-4.1-4.4.7-8.8 1.7-13 3-2.8 1-5.3 3.2-5.5 11.7 0 0-1 19.7-1 23.5 6.9 2.6 14 2.5 18 1.7 8.2-1.7 9.2-5 9.2-5s.1-14-.1-20.2c-.2-5.2-.3-9-.8-10.6Z"/><path fill="#B16668" d="M201.8 128.9s-2 3-1.8 3.3c.3.2 1.8.5 1.8.5v-3.8Z"/><path fill="#B16668" d="M207.3 120.7c-4.2.9-5.3 2.6-5.6 8.8-.2 6.5.5 8.6 1.5 9.4.6.6 4 .6 5.7.1 2.1-.6 7-2.3 9.1-5.6 2.6-4 3.2-9.1.3-11.2-4.1-2.9-9.3-2-11-1.5Z"/><path fill="#9A4A4D" d="M207.9 139.2c1.4-1 1.3-1.7 1.3-1.7-1 .9-4.8 1.6-6 1.4.5.5 3 .6 4.7.3Z"/><path fill="#263238" d="M201.8 122.3c1.2 2 3.8 2.9 3.8 2.9.8.8.4 4.1 1.8 4.7 0 0 .6-2.5 2.7-2.2 2.2.3 2.6 2.8 1.2 4.5-1.3 1.6-2.6 1-2.6 1s.2 3.4 1.8 5.3c0 0 1.9.5 5.3-.2 2-.5 4.9-3 6-5.6 2.6-5.5 2.6-10.4-1.1-11.8-.5-2.5-2.6-3.6-5-4.1-5.3-1-8.6 2-12.6 1.8-2.3-.2-2.7 1.4-1.3 3.7Z"/><path fill="#263238" d="m220.8 121.7 2.4-1.4c-.2-.3-.5-.5-.9-.6-.4-.1-.8 0-1 .1-.4.2-.6.5-.7.9-.1.3 0 .7.2 1Z"/><path fill="#B16668" d="M205.8 144.7s-3.9.7-5.9 3.6c-2 2.9-10.8 13.3-10.8 13.3s-12.6-6-13.3-6.7c-.6-.7-.2-2.1 0-3l.6-3c.3-.8-1-.6-1.8.2s-1.2 2.4-1.6 2.7c-.3.2-3.4-3-4.8-4.6-1.5-1.5-2.2-2.6-3.1-2-.7.5-.3 1.4.8 2.7l1.3 1.8c.1.3-.3.5-.4.6-.3.2-.8.6-.8 1v.6c-.2.5-.8.6-1 1.1v1l-.2.6a1.4 1.4 0 0 0 .5 1.2c1 1.1 2.4 1.6 3.7 2.3 1.1.6 2.3.8 3.6 1.4 1.3.5 16.4 11 18.8 9.8 2.4-1.2 14.5-14.5 14.5-14.5a8.8 8.8 0 0 0 0-10Z"/><path fill="#33907C" d="M207.2 144.3c-1.7.2-4-.1-7.3 3.2-2.6 2.8-5 5.8-7.3 9a8.6 8.6 0 0 0 2.6 4.2c1.3 1.1 3 2 4.7 2.2 0 0 5.7-5.5 7.3-8.6 1.7-3 2-8 0-10Z"/><path fill="#000" d="M207.2 144.3c-1.7.2-4-.1-7.3 3.2-2.6 2.8-5 5.8-7.3 9a8.6 8.6 0 0 0 2.6 4.2c1.3 1.1 3 2 4.7 2.2 0 0 5.7-5.5 7.3-8.6 1.7-3 2-8 0-10Z" opacity=".1"/></svg>