<svg xmlns="http://www.w3.org/2000/svg" width="295" height="282" fill="none"><path fill="#F5F5F5" d="M147.5 250.3c76.4 0 138.3-33.7 138.3-75.3 0-41.6-62-75.3-138.3-75.3C71.2 99.7 9.3 133.4 9.3 175c0 41.6 61.9 75.3 138.2 75.3Z"/><path fill="#E0E0E0" d="M221.6 224c17.6 0 32-7.8 32-17.6 0-9.7-14.4-17.6-32-17.6-17.7 0-32 7.9-32 17.6 0 9.8 14.3 17.7 32 17.7ZM189.1 97l68.8 38c9.7 5.3 9.7 14 0 19.4l-129.5 71.3c-48.6 27-143.1-36.7-104.2-57.4L154 96.9a40.4 40.4 0 0 1 35.2 0Z"/><path fill="#33907C" d="M190.3 55.6c-3.3-.8-17.6-5.4-34.4 3.6-4 2.1-12 6.6-22 12.2 0 0-11.6 11.5-26.3 18.8a1199.2 1199.2 0 0 1-46.5 22.2l1.7 1c8.3 3.1 27.9 20.3 41.3 15.7 15.7-5.3 86.2-73.5 86.2-73.5Z"/><path fill="#fff" d="M72.7 107.5s33-13.8 37.6-16.6c3.6-2 7-4.5 10.2-7.1 1.5-1.5 1.2 3.3-7 7.6-10.8 5.9-40.8 16.1-40.8 16.1Z" opacity=".5"/><path fill="#37474F" d="m122.4 74.4.2 5.7c.2 3.3-.3 5-1.9 7.6-.7 1.2-2.3 3-5.3 4.7-16.3 9.5-54.3 20-54.3 20l1.7 1 45.4-5 19.7-12.3.5-20.5-3-1.5-3 .3Z"/><path fill="#33907C" d="M128.4 75.6v1c-.4 1.1-1 2.5-2 3-.5.4-1.1.5-1.7.5-1.1 0-2-.5-2.1-1.4v-.6l-.2-3.7 3-.3 3 1.5Z"/><path fill="#000" d="M128.4 75.6v1c-.4 1.1-1 2.5-2 3-.5.4-1.1.5-1.7.5-1.1 0-2-.5-2.1-1.4v-.6l-.2-3.7 3-.3 3 1.5Z" opacity=".3"/><path fill="#33907C" d="M197.4 62c-3.3-7.4-9.3-7.4-19.2-6a334 334 0 0 0-40.6 10.3c-10.7 4-13.9 7-14.7 7.4-2 1 1.3 2.9 3.4 1.9v4.2c-.2 7.3-1.5 8.4-5.2 12.4-1.5 1.6-6 3.8-8.5 5.1-4.6 2.5-4.4.6-16.7 5.1-5.2 2-30.5 11-33.2 11l67.3 40.3 21.2 15.2L249 94.3 197.4 62Z"/><path fill="#33907C" d="m126.5 75.5 7.8-5 65 33.8-10.4 5.7v38.3l-62.4-34.5V75.5Z"/><path fill="#000" d="m126.5 75.5 7.8-5 66.8 31.6 16.5 2-4.3 12.7-24.4 31.5-62.4-34.5V75.5Z" opacity=".3"/><path fill="#fff" d="M144.6 64.7c-5.2 1.5-8.7 2.5-7.4 3.1 1.3.7 34.7-8 41.2-9.1 6.6-1.2 11.6-1.7 3.5-3.4-7.2-1.6-11.9-1-16.2.4-4.3 1.4-12.4 5.6-12.4 5.6l21.7-5c.7 0 2.7 0-2.2 1.4-4.9 1.3-23 5.5-28.2 7Z" opacity=".5"/><path fill="#000" d="m109.4 134 1.9-36c-5.2 2.6-4.1.2-15.2 4.3-4.6 1.7-24.4 8.8-31.2 10.6l-2 .4 39.4 23.6 7.1-2.9Z" opacity=".3"/><path fill="#37474F" d="m145.4 131.2-7.7-.1-11.8-6.5a9.2 9.2 0 0 0-7.2-.3l-14.3 6.1-9.8-.1v5.4c0 .6.5 1.3 1.4 1.8l25.7 14.1a6.5 6.5 0 0 0 6.6-.5l16-12.3.8-1c.2-.3.3-.7.3-1.1v-5.5Z"/><path fill="#455A64" d="m96 132 25.7 14.2a6.5 6.5 0 0 0 6.6-.5l16-12.4c1.6-1.3 1.5-3.3-.5-4.3l-18-9.9a9.2 9.2 0 0 0-7-.3l-22.6 9.7c-2 .9-2.1 2.4-.2 3.5Z"/><path fill="#263238" d="M145.4 131.2v5.5a2.6 2.6 0 0 1-1.2 2l-16 12.4c-.8.7-2 1-3 1.2v-5.5a6 6 0 0 0 3-1.1l16-12.4c.4-.2.7-.6.9-1 .2-.3.3-.7.3-1Z"/><path fill="#263238" d="m147.9 129.6-.1.7-.5.6-6.5 3.6c.2-.2.4-.3.5-.6v-.7l-1.4-30.6c0-.6-.3-1.3-.6-2l-1.5-1.4-15.5-8.5a1.7 1.7 0 0 0-1.6-.1l6.5-3.6a1.7 1.7 0 0 1 1.7 0l15.4 8.6c.6.4 1.1.9 1.5 1.5.4.6.6 1.2.7 2l1.4 30.5Z"/><path fill="#37474F" d="m122.4 90.7 15.4 8.5c.6.4 1 .9 1.5 1.5.3.6.6 1.3.6 2l1.5 30.5c0 1.3-.9 1.8-2 1.1l-22-12c-.5-.5-1-1-1.3-1.6-.3-.6-.4-1.2-.4-2l4.2-26.9c0-.3.1-.5.3-.7.1-.3.3-.4.6-.5a1.6 1.6 0 0 1 1.6.1Z"/><path fill="#455A64" d="m145.8 97.1-6.5 3.6c-.4-.6-.9-1.1-1.5-1.5l-15.4-8.5a1.7 1.7 0 0 0-1.6-.1l6.4-3.6a1.7 1.7 0 0 1 1.7.1l15.4 8.5c.6.4 1.1.9 1.5 1.5Z"/><path fill="#263238" d="M143.1 92.7V85a18 18 0 0 0-8.2-14.4c-2-1.2-3.9-1.3-5.3-.5l-5 2.7 2.2 4v6.8c0 .7.2 1.3.6 2 .4.5.9 1 1.5 1.4l5 2.8 3.7 6.8 4.9-2.7.5-.6.1-.7Z"/><path fill="#455A64" d="m135 81.5 6.3-3.5a16.5 16.5 0 0 0-6.4-7.3c-2-1.2-3.9-1.3-5.3-.5l-5 2.7 2.2 4v1.4l8.1 3.2Z"/><path fill="#37474F" d="M138.2 95.4v-7.6a18 18 0 0 0-8.1-14.4c-4.5-2.5-8.2 0-8.2 5.4v7.6c0 .7.2 1.3.6 2 .4.5.9 1 1.5 1.4l12.1 6.7c1.2.7 2.1.2 2.1-1.1Z"/><path fill="#33907C" d="M122.8 97.2a72.6 72.6 0 0 0-2.7 20.6 5.2 5.2 0 0 0 2 3.8 62.6 62.6 0 0 0 13 7c.4 0 .6-.2.9-.3l.6-.6.1-.8c.4-8.3.5-16 0-22.4 0-1.5-.8-2.8-2-3.7a49 49 0 0 0-9.9-5.1 2.2 2.2 0 0 0-1.6.7 2 2 0 0 0-.4.8Z"/><path fill="#000" d="m136.5 127.6.2-.7c.4-8.3.5-16 0-22.4 0-.7-.2-1.4-.6-2-.9-1.2-1.2 8.6-1.2 14.5 0 6 .1 11.9 1.1 11.2l.2-.1.3-.5Z" opacity=".1"/><g fill="#000" opacity=".1"><path d="m121.5 117.3.5.3 1.3.8a76.4 76.4 0 0 0 8 4.4l1.4.7.6.2h-.6l-1.5-.5-2-.7-1.2-.5-1.1-.6a28.5 28.5 0 0 1-3.9-2.6l-1-1-.5-.5ZM121.5 113.5s.2 0 .5.3l1.3.8a76 76 0 0 0 8 4.4l1.4.6.6.3-.6-.1-1.5-.4-2-.8-1.2-.5-1.1-.5a28.8 28.8 0 0 1-3.9-2.7l-1-1-.5-.4ZM122.4 110.3s.2 0 .4.3l1.2.7a56 56 0 0 0 3.7 2c1.3.8 2.7 1.4 3.8 1.9l1.3.6.4.2h-.5a19.7 19.7 0 0 1-3.3-1l-1-.5-1.1-.5-1-.5-1-.6-1.6-1.3-1-1-.3-.3ZM122.7 106.7l.5.2 1.1.8 3.6 2 3.7 1.7 1.2.5.5.3-.5-.1-1.4-.3a34 34 0 0 1-1.8-.6l-1-.4-1-.5-1-.5-1-.6-1.5-1.2-1-1-.4-.3ZM123.3 103.3l.4.2 1.1.7 3.4 1.8 3.5 1.6 1.6.7a18 18 0 0 1-5.5-1.6l-1-.5-.8-.6a14.4 14.4 0 0 1-2.7-2.3ZM124.6 100l1.4.7 2.9 1.6 3 1.5 1.4.7-1.6-.3c-1.1-.3-2.2-.7-3.2-1.2l-.8-.5-.8-.4a10.4 10.4 0 0 1-2.3-2.2Z" opacity=".1"/></g><path fill="#33907C" d="M116.2 125a29.5 29.5 0 0 0-12.6 6 1.6 1.6 0 0 0 0 1.7l.6.6c4.8 3.3 10 6.2 15.5 8.4a6 6 0 0 0 4.3 0c3.4-1.7 6.6-3.8 9.3-6.3l.5-.8a1.9 1.9 0 0 0-.2-1.7 65.7 65.7 0 0 0-12.7-7.4 10 10 0 0 0-4.7-.6Z"/><g fill="#000" opacity=".2"><path d="m106.4 131.9.7.2 1.7.5a38.5 38.5 0 0 1 11.9 7.1l-2.2-1.3a131.7 131.7 0 0 0-9.9-5.4l-1.6-.8-.6-.3ZM110.2 129.8l.7.2c.5 0 1 .3 1.8.5a38.4 38.4 0 0 1 11.8 7.1l-2.2-1.3a123.5 123.5 0 0 0-9.8-5.4l-1.7-.8-.6-.3ZM113.6 128a18 18 0 0 0 2.4.7 38.8 38.8 0 0 1 11.9 7.1l-2.2-1.3a141.4 141.4 0 0 0-9.9-5.3l-1.7-.9-.5-.3ZM117.2 126.5l.6.2a33.9 33.9 0 0 1 12.5 7l-.6-.4-1.4-.8a106.1 106.1 0 0 0-9-5l-1.6-.7-.5-.3Z" opacity=".2"/></g><path fill="#37474F" d="m180.8 151-7.8-.1-11.8-6.5a9.2 9.2 0 0 0-7.1-.3l-14.3 6.2-9.8-.2v5.5c0 .6.5 1.2 1.4 1.7l25.7 14.2a6.5 6.5 0 0 0 6.6-.5l16-12.4a2.8 2.8 0 0 0 1-2l.1-5.6Z"/><path fill="#455A64" d="m131.4 151.8 25.7 14.2a6.5 6.5 0 0 0 6.6-.5l15.9-12.4c1.7-1.3 1.6-3.2-.4-4.3l-18-9.8a9.2 9.2 0 0 0-7.1-.4l-22.5 9.7c-2 1-2.1 2.5-.2 3.5Z"/><path fill="#263238" d="M180.8 151v5.5a2.6 2.6 0 0 1-1.2 2.1L163.7 171c-1 .6-2 1-3.1 1.1v-5.5a6 6 0 0 0 3.1-1l16-12.5a2.8 2.8 0 0 0 1.1-2Z"/><path fill="#263238" d="m183.3 149.4-.1.7c-.1.3-.3.5-.5.6l-6.5 3.6.5-.5c0-.3.1-.5 0-.8l-1.3-30.5a4.6 4.6 0 0 0-2.2-3.5l-15.5-8.5a1.7 1.7 0 0 0-1.6 0l6.5-3.7a1.7 1.7 0 0 1 1.7.2l15.4 8.5a4.7 4.7 0 0 1 2.2 3.4l1.4 30.5Z"/><path fill="#37474F" d="m157.7 110.5 15.4 8.5c.7.4 1.2 1 1.5 1.5.4.6.7 1.3.7 2l1.5 30.5c0 1.3-.9 1.8-2 1.2l-22-12.1c-.5-.4-1-1-1.3-1.5-.3-.6-.5-1.3-.4-2l4.2-27c0-.2 0-.5.2-.7l.7-.5a1.6 1.6 0 0 1 1.5.1Z"/><path fill="#455A64" d="m181.2 117-6.6 3.5c-.3-.6-.9-1-1.5-1.5l-15.4-8.5a1.7 1.7 0 0 0-1.6 0l6.5-3.7a1.7 1.7 0 0 1 1.7.2l15.4 8.5c.6.3 1.1.8 1.5 1.4Z"/><path fill="#263238" d="M178.5 112.5v-7.6a18 18 0 0 0-8.2-14.4c-2-1.1-4-1.2-5.4-.5l-5 2.8 2.3 4v6.7c0 .7.2 1.4.6 2 .4.6.9 1 1.5 1.4l5 2.8 3.7 6.8 4.9-2.7.5-.6v-.7Z"/><path fill="#455A64" d="m170.3 101.3 6.4-3.5a16.5 16.5 0 0 0-6.4-7.3c-2-1.1-4-1.2-5.4-.5l-5 2.8 2.3 4v1.3l8.1 3.2Z"/><path fill="#37474F" d="M173.6 115.2v-7.6a18 18 0 0 0-8.2-14.4c-4.5-2.5-8.1 0-8.1 5.4v7.6c0 .7.2 1.4.6 2 .4.6.9 1 1.5 1.5l12.1 6.7c1.2.6 2.1 0 2.1-1.2Z"/><path fill="#33907C" d="M158.2 117a72.3 72.3 0 0 0-2.7 20.7 5.1 5.1 0 0 0 2 3.7 62.4 62.4 0 0 0 13 7l.9-.3c.2-.1.4-.3.5-.6.2-.2.2-.5.2-.8.4-8.2.5-16 0-22.4-.1-1.4-.9-2.7-2-3.7a48.9 48.9 0 0 0-9.9-5.1 2.2 2.2 0 0 0-1.6.7 2 2 0 0 0-.4.8Z"/><path fill="#000" d="M172 147.4v-.7c.5-8.2.6-16 .2-22.4a5 5 0 0 0-.7-2c-.9-1.2-1.2 8.6-1.2 14.6s.1 11.8 1.1 11.1h.2l.3-.6Z" opacity=".1"/><g fill="#000" opacity=".1"><path d="m157 137.2.4.3 1.3.8a81.1 81.1 0 0 0 8 4.4l1.4.6.5.3-.5-.1-1.5-.4-2.1-.8-1.1-.5-1.2-.5a25.6 25.6 0 0 1-3.8-2.7l-1-1-.5-.4ZM157 133.3l.4.3 1.3.8a81.4 81.4 0 0 0 8 4.4l1.4.7.5.2h-.5l-1.5-.5-2.1-.7-1.1-.5a27.3 27.3 0 0 1-5-3.2l-1-1-.5-.5ZM157.8 130.1l.4.3 1.2.7a57 57 0 0 0 3.7 2.1l3.8 1.8 1.3.6.4.3-.5-.1-1.4-.4a21 21 0 0 1-2-.6l-1-.4-1-.5-1-.6-1-.6-1.6-1.2-1-1-.3-.4ZM158.1 126.5l.5.3 1.1.7 3.6 2 3.7 1.7 1.2.6.5.2h-.5l-1.4-.4a38 38 0 0 1-1.8-.6c-.4 0-.7-.2-1-.4l-1-.4-1-.6-1-.6-1.5-1.2c-.5-.3-.8-.7-1-.9l-.4-.4ZM158.7 123l.4.3a52 52 0 0 0 4.5 2.5l3.5 1.6 1.6.8-1.8-.4c-1.3-.3-2.5-.7-3.7-1.3l-1-.5-.8-.6a13.5 13.5 0 0 1-2.7-2.3ZM160 119.8l1.4.8 2.9 1.6 3 1.4 1.3.7-1.5-.3c-1.1-.3-2.2-.7-3.2-1.2l-.8-.4-.8-.5a10.4 10.4 0 0 1-2.3-2.1Z" opacity=".1"/></g><path fill="#33907C" d="M151.6 144.8a29.7 29.7 0 0 0-12.6 6.1 1.6 1.6 0 0 0 .6 2.2c4.8 3.4 10 6.2 15.5 8.5a6 6 0 0 0 4.3-.1 38.6 38.6 0 0 0 9.8-7 1.9 1.9 0 0 0-.2-1.7 65.7 65.7 0 0 0-12.8-7.4c-1.4-.6-3-.8-4.6-.6Z"/><g fill="#000" opacity=".2"><path d="m141.8 151.7.7.2a37.1 37.1 0 0 1 11.6 6l2 1.6-2.2-1.3a131.7 131.7 0 0 0-9.9-5.3l-1.6-.9-.6-.3ZM145.6 149.6l.7.2 1.8.6a38.5 38.5 0 0 1 11.8 7l-2.2-1.3a130.3 130.3 0 0 0-9.8-5.3l-1.7-.9-.6-.3ZM149 147.8l.6.2 1.8.6a38.4 38.4 0 0 1 11.8 7l-2.1-1.3a131.8 131.8 0 0 0-9.9-5.3l-1.6-.9-.7-.3ZM152.6 146.3l.6.2 1.6.5a34.2 34.2 0 0 1 11 6.5l-.6-.3-1.5-.9a147 147 0 0 0-9-4.9l-1.6-.8-.5-.3Z" opacity=".2"/></g><path fill="#33907C" d="m259.2 129.8-26.5-14.6 14.7-8.1 14.4 8.6-2.6 14.1Z"/><path fill="#000" d="m259.2 129.8-26.5-14.6 14.7-8.1 14.4 8.6-2.6 14.1Z" opacity=".3"/><path fill="#37474F" d="m248 126.3 3.8-7.2-9-5c-2.9-1.6-6.7-1.4-11 1-8.9 4.9-16.1 17.6-16.1 28.4 0 5.6 2 9.5 5.1 11.4h.2l9.3 5.2 4-7.7a36.2 36.2 0 0 0 13.7-26Z"/><path fill="#263238" d="m248 126.3 3.8-7.2-9-5c-2.9-1.6-6.7-1.4-11 1-8.9 4.9-16.1 17.6-16.1 28.4 0 5.6 2 9.5 5.1 11.4h.2l9.3 5.2 4-7.7a36.2 36.2 0 0 0 13.7-26Z"/><path fill="#37474F" d="M257.5 130.8a36.3 36.3 0 0 1-12.6 26c-1.1.9-2.3 1.7-3.6 2.4-9 5-16.2.2-16.2-10.6a36.4 36.4 0 0 1 10.1-23.6 26 26 0 0 1 6.1-4.8c9-4.9 16.2-.2 16.2 10.6Z"/><path fill="#455A64" d="M241.3 126.7c5.7-3.1 10.3.2 10.3 7.3 0 7.2-4.6 15.6-10.3 18.7-5.7 3.2-10.3-.1-10.3-7.3a23 23 0 0 1 10.3-18.7Z"/><path fill="#FAFAFA" d="M246 137.7c-.4 3.6-2.8 7.4-5.4 8.5a2.6 2.6 0 0 1-2.8-.2c-.9-.7-1.4-2.3-1.2-4.2.4-3.6 2.8-7.4 5.3-8.5a3 3 0 0 1 2-.3c1.4.4 2.3 2.1 2 4.7Z"/><path fill="#E0E0E0" d="M245 137.3c-.4 3.5-2.7 7.3-5.3 8.4a3 3 0 0 1-1.9.3c-.9-.8-1.4-2.3-1.2-4.3.4-3.5 2.8-7.3 5.3-8.4a3 3 0 0 1 2-.3c.8.8 1.3 2.3 1.1 4.3Z"/><path fill="#455A64" d="M257.5 130.8c0 9.3-5.4 20-12.6 26a43.4 43.4 0 0 0 10.2-19c1.4-6.3.9-15.2-4.7-17.4-5.6-2.3-13 2.5-15.2 4.6a26 26 0 0 1 6.1-4.8c9-4.9 16.2-.2 16.2 10.6Z"/><path fill="#33907C" d="M261.9 94.8c-3.3-7.5-17-15.2-22.8-12.4-1.9.9-7 3.9-13.5 7.5l-23.4 13.5s10.2-.2 12.5.6c2.3.8 1.9 2.5 1.7 3.1l-1.1 3.7c-2.7 12.4-22.9 17.5-27.2 22-1.5 1.7-2.7 2.3-5.2 3.6l-20 10.7c-4 2.2-10.3 5-10.3 5v36.4l67.3-36.9c0-1 0-2 .2-3a44.3 44.3 0 0 1 20-31c10.6-5.7 19.1-.3 19.1 12.3l1.7-1c6.1-3.5 4.2-26.8 1-34.1Z"/><path fill="#000" d="M224.5 103.5c-4 0-4.3 2-5.6 6.1-1 3.2-2.7 6-.7 5.1 2-1 8.9-8 10.1-9.2 2.7-2.5-1.9-2-3.8-2Z"/><path fill="#33907C" d="M244.7 82.1a9 9 0 0 0-5.7.3l-13.5 7.4-8.7 4.9L170 68.9s18.2-8.8 24.6-11.2c6.4-2.4 48.3 19.8 50 24.4Z"/><path fill="#fff" d="m153.9 154.4 36-19.7c.4.2.7.6.9 1 .2.4.3.8.2 1.3L154 154.4Z" opacity=".5"/><path fill="#37474F" d="M184.6 142.5a.2.2 0 0 1-.2 0h-.1v-1.2c0-.7 1.1-2 2.6-2.7l2.1-1.2c1.4-.8 2.6-.8 2.6 0v.7l-.1.5-.4.3-6.5 3.6Z"/><path fill="#fff" d="M210.2 123.3c-1.9 1.3-12.4 7.3-13.9 8.2.9.8 1.5 1.8 1.8 2.9 0 0 37.5-20.7 46.7-28.4 9.1-7.8 14.1-15 7-18.7-2.1-1.2-4-2.7-6.7-1.8-.2 0-.4.2-.5.3l-.5.9c-2 7.7-8.6 13.5-14 19.3a141.7 141.7 0 0 1-20 17.3Z" opacity=".5"/><path fill="#000" d="M141.3 68.4s44.4-12 47.5-10.1c3.2 1.8-38.7 19.4-38.7 19.4l-8.8-9.3ZM158.1 179.2c-1.6.8-1.9-2.4-2.8-8.8-.9-6.3-.8-17-.8-17-1.1 4.8-.6 16.3 0 23.7.6 7.4 2 6.7 3.6 5.6l35.8-21-35.8 17.5ZM192.2 133.1s2 2.3 2 7.3l.1 20.3s1.2-15.9 1.9-20.8c.7-5-2-7.8-2-7.8l-2 1ZM232.7 121.6s-.9-4.3-2.2-5.9c-1.3-1.6-8.1-2.4-8.1-2.4s5.3 1.8 6.8 3.3c1.5 1.5 3.5 5 3.5 5ZM252.7 115.7s6.8-3.7 8.3-6.2c1.5-2.4 2.1-10.6 2.1-10.6s.6 9.4-1.1 11.6c-1.8 2.3-9.3 5.2-9.3 5.2Z" opacity=".1"/><path fill="#33907C" d="M236.3 96.5c-5.8-5.3-13-9.1-19.7-13.1a800.1 800.1 0 0 0-37.4-20.7 48 48 0 0 0-4.8-2l-.6-.3h-.1l-3-.8c-6-1.5-16.3-3.3-25.3-2.8-7.8.5-47.4 18.6-51.8 23.5-2 2.2-4 4.4-5.8 6.8 0 0 5.4-4 8-3 2.2.7 17.5 13.9 27.8 19.1 12.3 6.2 29.3 12.4 33.5 14.2 4.2 1.8 1.6 6.7 1.6 6.7 2-3 3-4.6 5.3-6.5 4.4-3.6 22.2-12.4 22.4-12.5 2.5-1.2 5.2-2 8-2.1l18.4.5 21.1-4.2c1.1 0 2.2-.4 3.2-1 .2-.6-.3-1.3-.8-1.8Z"/><path fill="#fff" d="M162 119c5.3-4.2 11-8 17.1-11.3 10.4-5.8 13-6.9 23.8-7 8.1 0 16.3.3 24.5.3l1-.1c.3-.1.4-.2.4-.4v-.5a1 1 0 0 0-.6-.4c-5.6-1.9-14.5-2.6-19.8-5.2-4.6-2.2-9-4.6-13.6-7-12.3-6.8-23.9-13.1-36-20.9-11.5-7.2-13.1-9.5-17.8-8.7-13 3.9-43.6 18.2-47.4 22.4v2.2a157.3 157.3 0 0 0 2.3 1.6c1.9.7 14.6 11.6 24.7 17.5l3 1.7c10.6 5.3 24.7 10.6 31 13.2l7.3 2.5Z" opacity=".5"/><path fill="#000" d="M228.9 99a98 98 0 0 1-9.8-1.5c-3.6-.7-7.4-1.4-10.7-3l-13.6-7.1c-12.3-6.8-23.9-13.1-36-20.9-11.5-7.2-13.1-9.5-17.8-8.7 1.4-.5 2.9-.8 4.4-1 10.8-.6 23.3 2.1 28.2 3.6 2 .6 3.8 1.4 5.5 2.3 5.9 2.8 11.5 5.9 17.1 9 6.9 3.8 13.6 7.7 20.4 11.7 6.8 4 13.8 7.8 19.6 13.1.5.5 1.1 1.2.8 1.8-1.5 1-3.5 1-5.4 1L229 99Z" opacity=".1"/><path fill="#455A64" d="M216.6 86.5c-14.3-7.9-24.5-14-35.7-20.1-4-2.3-7.9-3.9-13.2-4.7-2.8-.4-7.4-1.2-10-1.2-4.2.2-1.7 2.5 6.8 7.2s31.7 18.1 36.6 20.8a66 66 0 0 0 22 8c9.8 1.4 17.2 3-6.5-10Z"/><path fill="#263238" d="M217.5 103.3c-2.8-1.6-14-1.8-19.2-2a22 22 0 0 0-12.5 2.6l-21.5 12c-4.2 2.3-4.9 5.2-7 9.3-2 4-13.7 27-14.4 30.3-.6 3.1 17-5.5 17-5.5l25.9-14.3 2.5-1.4c1.2-.8 17-10 23-14.8 3.1-2.3 4-4 5.1-8.2 1.4-5 2.9-7 1.1-8Zm-31 29.8c-2 1.2-7.1 3.7-14.8 8-9.9 5.6-24.5 12.1-24.6 12.2 3-7.2 11.7-24.6 13.3-28.2 1.6-3.7 3.1-6.3 5.2-7.4a2139.4 2139.4 0 0 0 22-11.7h.4l.4.4.2.4V129.4c0 .8 0 1.5-.5 2.2a4 4 0 0 1-1.6 1.5Zm29.4-27.7c-.5 2-2.4 10.3-5 12.3-2 1.6-13.4 8.4-17.6 11-1.7 1.1-2-.3-2-2V108c-.1-2.7.6-3.8 3-4.2 2.8-.5 22.2-1 21.6 1.6Z"/><path fill="#000" d="M186.5 133.1c-2 1.2-7.1 3.7-14.8 8a339 339 0 0 1-24.6 12.2c3-7.2 11.7-24.6 13.3-28.2 1.6-3.7 3.1-6.3 5.2-7.4a2159.9 2159.9 0 0 0 22-11.7h.4l.4.4.2.4V129.4c0 .8 0 1.5-.5 2.2a4 4 0 0 1-1.6 1.5ZM216 105.4c-.6 2-2.5 10.3-5 12.3-2 1.6-13.5 8.4-17.7 11-1.7 1.1-2-.3-2-2V108c-.1-2.7.6-3.8 3-4.2 2.8-.5 22.2-1 21.6 1.6Z" opacity=".5"/><path fill="#455A64" d="M139.7 154c-6.7-4.7-21.5-15-37-23.5a236.3 236.3 0 0 0-39.9-17.2c.6 2 3.9 5.2 8.3 8.7 3.2 2.4 6.7 5 10.8 7.6 9.8 6.4 19 11 22.3 12.8 16.7 8.7 33.7 15.4 36.5 12.2l-1-.5Z"/><path fill="#37474F" d="M140.7 154.6c-.8-.5-27.2-16-39.4-23-11.6-6.7-35.6-17-38.5-18.3a218 218 0 0 1 40 17.2 453.8 453.8 0 0 1 37.9 24.1Z"/><path fill="#33907C" d="m66.9 106.5-.6 2.4c-1.4 2.4-4.4 5.5-5.5 5.3-1-.2-1.6-1.6-1.9-3.3l-.2-2.4c-.1-2.6 1.1-8.7 5-10.4a2 2 0 0 1 2.2.5c.5.5.9 1.1 1 1.8.7 1.8 0 6 0 6.1Z"/><path fill="#000" d="m66.9 106.5-.6 2.4c-1.4 2.4-4.4 5.5-5.5 5.3-1-.2-1.6-1.6-1.9-3.3l-.2-2.4c-.1-2.6 1.1-8.7 5-10.4a2 2 0 0 1 2.2.5c.5.5.9 1.1 1 1.8.7 1.8 0 6 0 6.1Z" opacity=".3"/><path fill="#33907C" d="M66.3 108.9c-1.4 2.4-4.4 5.5-5.5 5.3-1-.2-1.6-1.6-1.9-3.3l-.2-2.4c-.1-2.6 1.1-8.7 5-10.4a2 2 0 0 1 2.2.5l-.5 1.1c-2.7 1.1-3.4 5-3.2 8 .3 3 2.6 2.7 4 1.2Z"/><path fill="#000" d="M66.3 108.9c-1.4 2.4-4.4 5.5-5.5 5.3-1-.2-1.6-1.6-1.9-3.3l-.2-2.4c-.1-2.6 1.1-8.7 5-10.4a2 2 0 0 1 2.2.5l-.5 1.1c-2.7 1.1-3.4 5-3.2 8 .3 3 2.6 2.7 4 1.2Z" opacity=".3"/><path fill="#37474F" d="M67 100.3c-1-1-3.4-1-5.4 1.7-2 2.6-2.7 7.1-2.7 9l-.2-2.5c-.1-2.6 1.1-8.8 5-10.4 1.5-.7 2.8.9 3.3 2.2Z"/><path fill="#33907C" d="M152.6 188.5 126 173.9l14.7-8.2 11.8 6.6v16.2Z"/><path fill="#000" d="M152.6 188.5 126 173.9l14.7-8.2 11.8 6.6v16.2Z" opacity=".3"/><path fill="#37474F" d="m141.7 184.8 3.8-7.2-9-5c-3-1.6-6.8-1.4-11 1-9 4.9-16.2 17.6-16.2 28.4 0 5.6 2 9.5 5.2 11.4h.1l9.3 5.2 4-7.6a36.3 36.3 0 0 0 13.8-26.2Z"/><path fill="#263238" d="m141.7 184.8 3.8-7.2-9-5c-3-1.6-6.8-1.4-11 1-9 4.9-16.2 17.6-16.2 28.4 0 5.6 2 9.5 5.2 11.4h.1l9.3 5.2 4-7.6a36.3 36.3 0 0 0 13.8-26.2Z"/><path fill="#37474F" d="M151.1 189.3a36.3 36.3 0 0 1-12.6 26c-1.1.9-2.3 1.7-3.6 2.4-8.9 5-16.2.2-16.1-10.6a36.4 36.4 0 0 1 10-23.6 26 26 0 0 1 6.2-4.8c8.9-4.9 16.1-.2 16.1 10.6Z"/><path fill="#455A64" d="M135 185.2c5.6-3.1 10.2.2 10.2 7.3 0 7.2-4.6 15.6-10.3 18.7-5.7 3.2-10.3-.1-10.3-7.3a23 23 0 0 1 10.3-18.7Z"/><path fill="#FAFAFA" d="M139.6 196.2c-.4 3.6-2.8 7.4-5.4 8.5a2.6 2.6 0 0 1-2.8-.2c-.9-.8-1.3-2.3-1.1-4.3.4-3.5 2.8-7.3 5.3-8.4a3 3 0 0 1 2-.3c1.4.4 2.3 2.1 2 4.7Z"/><path fill="#E0E0E0" d="M138.7 195.8c-.4 3.5-2.8 7.3-5.4 8.4a3 3 0 0 1-1.9.3c-.9-.8-1.4-2.3-1.1-4.3.3-3.5 2.8-7.3 5.3-8.4a3 3 0 0 1 2-.3c.8.8 1.3 2.3 1 4.3Z"/><path fill="#455A64" d="M151.1 189.3c0 9.3-5.4 20-12.6 26a43.4 43.4 0 0 0 10.3-19c1.3-6.3.8-15.2-4.7-17.4-5.6-2.3-13 2.5-15.3 4.6a26 26 0 0 1 6.1-4.8c9-4.9 16.2-.2 16.2 10.6Z"/><path fill="#33907C" d="M152.6 152s-1.5-.2-1.1-1.5c0 0-9 4-11 4.6-4 1.3-19.6-4-36.3-12.7-3.3-1.9-12.5-6.4-22.2-12.8-4.2-2.7-7.7-5.2-10.9-7.6-2.7-2.1-5.1-4.4-7.3-7-.5-.6-1.6-2.3-1-3.7-33 22.5-51.2 31.9-47.3 57.5 0 0 0 2 .8 5.7A33.2 33.2 0 0 0 29 195.8c7.6 5.1 8.1 5.5 18.5 10.8a80.8 80.8 0 0 0 38 8.9c15.3-.5 28.7-6 29.1-9.5l.9-4.5a44.6 44.6 0 0 1 16.2-24l1.8-1.2c9.9-5.4 18-1 19 9.8l.1 2.4V152Z"/><path fill="#455A64" d="M62 208.3a84.5 84.5 0 0 1-23.2-9.7A49.7 49.7 0 0 1 25 188.2c-2.4-2.9-3.8-6.6-2.4-6 2.5 2 8 6.4 11.4 8.4 10.3 6 21.2 13.4 38 13.6 1.2 0 2.2 0 3.3.3 4.1 1.1-6.9 5.3-13.4 3.8ZM96.8 201c-1-.2-3.3.4-7.3 1.5s-5 1.2-6.4 2.2c-1.3.8-4.6 3.4-6.2 4.2-2.6 1.3 0 2.2 7.1 2.2 7.2 0 9.6-2 11.2-4.1 1.7-2.1 3.7-5.7 1.6-6ZM15.6 170.5l.7 4c.6 2.9 1.4 5.7 2.6 8.4.3.4.8.6 1.3.8 1.2-.1.2-2.1-.7-5.1-.9-3-3-6-3.9-8.1Z"/><path fill="#fff" d="M35.3 162.2c9.4 6.5 19.6 12.1 30.2 16.6 1.6.7 2.4 2.5 1.4 3.9-1.5 2-3.5 3.6-5.7 4.8-1.6.8-4.3.6-6 0A77 77 0 0 1 32.6 175c-1.3-1-2.8-3.2-2.9-4.9 0-2.6.3-5.1 1.2-7.6.6-1.5 3-1.3 4.5-.3Z" opacity=".8"/><path fill="#33907C" d="M58.6 186.2c-1 0-1.8-.1-2.7-.4a75.4 75.4 0 0 1-22.1-12.1c-1.2-1-2.2-2.7-2.3-3.6 0-2.4.3-4.7 1-6.9.3-.5 1.3.2 1.7.4a173.3 173.3 0 0 0 31 17.2l.2.4a.4.4 0 0 1 0 .4 16.4 16.4 0 0 1-5.1 4.3 4 4 0 0 1-1.7.3Z"/><path fill="#000" d="M58.6 186.2c-1 0-1.8-.1-2.7-.4a75.4 75.4 0 0 1-22.1-12.1c-1.2-1-2.2-2.7-2.3-3.6 0-2.4.3-4.7 1-6.9.3-.5 1.3.2 1.7.4a173.3 173.3 0 0 0 31 17.2l.2.4a.4.4 0 0 1 0 .4 16.4 16.4 0 0 1-5.1 4.3 4 4 0 0 1-1.7.3Z" opacity=".3"/><path fill="#33907C" d="m44 181.3-1.8-.4a44 44 0 0 1 4.3-10.4l1.6.9a43.2 43.2 0 0 0-4.1 10Z"/><path fill="#fff" d="m44 181.3-1.8-.4a44 44 0 0 1 4.3-10.4l1.6.9a43.2 43.2 0 0 0-4.1 10Z" opacity=".8"/><path fill="#33907C" d="M66 182c-6.8-2.7-13.4-5.8-19.7-9.4-7.2-4.2-14.4-9.2-14.5-9.2l.2-.3s7.2 5 14.5 9.3c6.3 3.5 12.8 6.6 19.6 9.3l-.1.3Z"/><path fill="#33907C" d="M65 182.8c-6.6-2.6-13.1-5.7-19.3-9.2-7.3-4.2-14-8.9-14-9l.2-.2a154.5 154.5 0 0 0 33.3 18.1l-.2.3Z"/><path fill="#33907C" d="M64.1 183.7A147.7 147.7 0 0 1 31.5 166l.2-.3s6.3 4.4 13.5 8.7a147 147 0 0 0 19 9v.3Z"/><path fill="#33907C" d="M63.2 184.5a138.7 138.7 0 0 1-31.8-17.2l.2-.3s5.7 4.1 13 8.4c6 3.4 12.2 6.3 18.7 8.8l-.1.3Z"/><path fill="#33907C" d="M62.2 185.3a133 133 0 0 1-18.4-8.7c-7.3-4.2-12.5-8-12.5-8l.2-.3s5.2 3.8 12.4 8c6 3.4 12 6.3 18.4 8.8v.2Z"/><path fill="#33907C" d="M61.3 186.2a128.2 128.2 0 0 1-30.2-16.4l.2-.2A136 136 0 0 0 61.4 186l-.1.3Z"/><path fill="#33907C" d="M60.4 187A122.5 122.5 0 0 1 31 171.1l.2-.2a117.2 117.2 0 0 0 29.3 15.8l-.1.3Z"/><g fill="#fff" opacity=".8"><path d="M66 182c-6.8-2.7-13.4-5.8-19.7-9.4-7.2-4.2-14.4-9.2-14.5-9.2l.2-.3s7.2 5 14.5 9.3c6.3 3.5 12.8 6.6 19.6 9.3l-.1.3Z" opacity=".8"/><path d="M65 182.8c-6.6-2.6-13.1-5.7-19.3-9.2-7.3-4.2-14-8.9-14-9l.2-.2a154.5 154.5 0 0 0 33.3 18.1l-.2.3Z" opacity=".8"/><path d="M64.1 183.7A147.8 147.8 0 0 1 31.5 166l.2-.3s6.3 4.4 13.5 8.7c6.1 3.4 12.5 6.4 19 9v.3Z" opacity=".8"/><path d="M63.2 184.5a138.7 138.7 0 0 1-31.8-17.2l.2-.3s5.7 4.1 13 8.4c6 3.4 12.2 6.3 18.7 8.8l-.1.3Z" opacity=".8"/><path d="M62.2 185.3a133 133 0 0 1-18.4-8.7c-7.3-4.2-12.5-8-12.5-8l.2-.3s5.2 3.8 12.4 8c6 3.4 12 6.3 18.4 8.8v.2Z" opacity=".8"/><path d="M61.3 186.2a128.2 128.2 0 0 1-30.2-16.4l.2-.2A136 136 0 0 0 61.4 186l-.1.3Z" opacity=".8"/><path d="M60.4 187A122.5 122.5 0 0 1 31 171.1l.2-.2a117.2 117.2 0 0 0 29.3 15.8l-.1.3Z" opacity=".8"/></g><path fill="#fff" d="M59.4 118c-1.5-.2-23.9 15.6-26.8 18.4-3 2.8-1.7 2.7.8 7.3 3 5.7-.5 10.6 1.6 10.2 1-.2 5.6-9.2 12.3-18 6.8-8.8 14.7-17.3 12-17.8Z" opacity=".5"/><path fill="#fff" d="M95.2 187.4c1.3-1.4 2.2-3.2 1.1-4.7-1-1.6-3.5-2.5-5.3-3a22.7 22.7 0 0 0-16.5 1.8c-1.1.6-2.2 1.4-3 2.3a4.7 4.7 0 0 0-1.2 3.5c.8 5.8 9.7 6.6 14.3 5.8a19 19 0 0 0 10.6-5.7ZM22.7 162.7l1 .3a3.9 3.9 0 0 0 2.9-1c.7-.8 1.3-1.6 1.8-2.5 2.3-4 7.8-14.8 0-16.6-2.5-.5-5.2 1.7-6.6 3.5-2 2.7-3 6-2.7 9.3.2 2.2 1.1 5.9 3.6 7Z" opacity=".8"/><path fill="#000" d="M98 187c7 .6 13.7 3.7 18.6 8.6-5.7-3.7-12-6.6-18.6-8.5ZM65.6 120.4s-16.4 13.9-29 36.5l29-36.5ZM69.7 175.1s25.5-12.6 63.1-17.3L69.7 175ZM15.4 165.3c2 5.5 9 13.9 19.5 19.7 10.5 5.9 24 14 39.4 14.5 15.4.4 26-10.5 26-10.5s-8 12.1-26 12.5c-18 .4-29.2-7.3-39.9-13.5-11.2-6.5-17.7-15.7-19-22.7Z" opacity=".1"/><path fill="#fff" d="M113.1 191.8c3.7-8.9 10.6-15.9 16.4-17.8-6.3.5-14.6 6.6-17.8 17l1.4.8ZM111.1 193a32 32 0 0 0-.5 11.1c0-3.5.6-7 1.8-10.4l-1.3-.6ZM97 179.2c4.2 2 4.7 4.7 8 2.3a342 342 0 0 1 32-20.7c6.2-2.6.6-3-13.6 1.3-14 4.2-38.6 10.5-39.6 12-1 1.3 4.8 1.2 13.1 5.1Z" opacity=".5"/><path fill="#37474F" d="M106.6 91a115.3 115.3 0 0 1-13-10.8 220 220 0 0 0-31 30.8c-1.7 2.8 5.7 9.5 16.6 16.8 22.7 15.3 60.7 33.7 64.3 27.8l18.1-37.8a219.6 219.6 0 0 1-55-26.7Zm34.8 63.2-1 .1c-8.8 0-38.4-14-59.7-28.4-13.8-9.3-15.6-13-15.8-13.9 8-9.6 16.8-18.5 26.4-26.7a3.2 3.2 0 0 1 4.2 0c3 2.7 6.3 5.3 9.6 7.6 13.1 9.4 29.5 17.6 50 25.2a3.1 3.1 0 0 1 1.8 1.6 2.8 2.8 0 0 1 0 2.4l-15.5 32.1Z"/><path fill="#000" d="M141.4 154.3h-1c-8.8 0-38.4-14-59.7-28.4-13.8-9.3-15.6-13-15.8-13.8 8-9.7 16.8-18.6 26.4-26.8a3.2 3.2 0 0 1 4.2 0c3 2.8 6.3 5.3 9.6 7.7 13.1 9.3 29.5 17.5 50 25l1.1.7a3 3 0 0 1 1 2.2l-.3 1.2-15.5 32.2Z" opacity=".5"/><path fill="#fff" d="M80.7 125.9c3.4 2.3 7 4.6 10.8 6.9A538 538 0 0 1 115 99.4a149.7 149.7 0 0 1-15.5-10.7 170 170 0 0 0-26.2 32l7.4 5.2ZM122 103.4a297 297 0 0 1-4.1-2.3 357.9 357.9 0 0 0-23.4 33.5l4.6 2.6c5-7.8 13.6-21 22.9-33.8Z" opacity=".2"/><path fill="#fff" d="M118.4 146c10.8 5 22 8.4 23 6 .8-2.3 8.7-17.3 11-23.2 2.2-6 2.7-6.6 1.2-8.4-1.4-1.9-9.6-4.8-22.9-10.7-13.2-6-25.6-16.7-25.6-16.7 13.1 9.3 29.5 17.5 50 25a3.1 3.1 0 0 1 1.8 1.7 2.9 2.9 0 0 1 0 2.4l-15.5 32.2h-1c-8.8 0-38.4-14-59.7-28.4 4.4 3 27 15.2 37.7 20.2Z" opacity=".3"/><path fill="#33907C" d="M161.7 152.5c-1.2 5.6-7.7 6.8-12.5 6.6-2.6 0-4.7-.5-5.3-.9-1.9-1-1-3.1 0-4.4 1.7-2 9.3-6.3 14-6.4 2.8-.1 4.7 1.2 3.8 5.1Z"/><path fill="#000" d="M161.7 152.5c-1.2 5.6-7.7 6.8-12.5 6.6-2.6 0-4.7-.5-5.3-.9-1.9-1-1-3.1 0-4.4 1.7-2 9.3-6.3 14-6.4 2.8-.1 4.7 1.2 3.8 5.1Z" opacity=".3"/><path fill="#33907C" d="M161.7 152.5c-1.2 5.6-7.7 6.8-12.5 6.6-2.6 0-4.7-.5-5.3-.9-1.9-1-1-3.1 0-4.4-1 1.7 4 2.8 8.5 1.3 4.4-1.6 7.7-4.8 5.5-7.7 2.8-.1 4.7 1.2 3.8 5.1Z"/><path fill="#000" d="M161.7 152.5c-1.2 5.6-7.7 6.8-12.5 6.6-2.6 0-4.7-.5-5.3-.9-1.9-1-1-3.1 0-4.4-1 1.7 4 2.8 8.5 1.3 4.4-1.6 7.7-4.8 5.5-7.7 2.8-.1 4.7 1.2 3.8 5.1Z" opacity=".3"/><path fill="#37474F" d="M161.7 152.5c-1.2 5.6-7.7 6.8-12.5 6.6 4.8-.1 8.6-2.8 10-5.7 1.5-2.9.4-5.6-1.3-6 2.8-.1 4.7 1.2 3.8 5.1Z"/><path fill="#FFA8A7" d="M217.5 101c-1.5.1-3 .6-4.2 1.3-1.2.8-2.2 2-2.8 3.3-1.4 3.2-3.7 15.7-4.5 17.3 0 0-1.1 1.5-2.5 2.9-.9 1-5.9 6-7.8 7.7-.5.4-2 1-2.5 1.3-.6.4-1 1-1.4 1.7a8.1 8.1 0 0 0-.5 1.9c0 .2 0 .3-.2.5l-3.5 2 1.3.1c1.3 0 2.6-.1 4-.4 1-.1 2.2-.6 3-1.4 1-1 2.1-2 3.3-2.8l5.9-4.4c1.6-1.2 6.7-4.8 7.6-6.8.9-2 3-12.7 3-12.7l1.8-11.5Z"/><path fill="#263238" d="M218 196.5c.4 1-.4 6.6-.4 6.6-.9.7-1.9 1.3-2.9 1.8l-.8-5.8 4.1-2.6Z"/><path fill="#000" d="m214.7 204.9-4.2-2.4-.6-3.9 4.3 2.7.5 3.6Z"/><path fill="#37474F" d="M215.4 192.5c.8 0 .7.5 1.4 1.5l1.2 2.4c.3 1-1.5 2.8-2.6 3.7-1.2 1-1.6 2-2.2 3.6-.6 2-.6 3.3-3.8 4.3-2.5.8-6.8-.2-7.4-1.3-1.1-1.9 3.2-2.7 4.7-5.4 2-3.5 2.3-4.7 2.8-7.3 0-.2 0-.3.2-.4l.4-.2 5.3-.9Z"/><path fill="#FFA8A7" d="m215.8 189.9-.2 3.6s-.6 1.5-3.2 1.6c-2.4 0-2.2-1-2.2-1V189l5.6 1ZM227.6 178.7l8.2-.1-1.2 22c0 .8 0 7-.3 9-.6 2.8-4 2.4-4.3.7-.2-1.7.3-9 .2-9.7 0-3.2-1.5-14.5-2.3-20.1l-.3-1.8Z"/><path fill="#37474F" d="M230.2 200c-.6.1-.6.4-.7 2.5 0 2.3-.1 4.5-.5 6.7-.4 2.4-.9 4.9 1.1 7 1.2 1.2 3 1.5 4.5-.4 1.3-1.9 2.1-3.6 1.5-5.7-.5-1.8-.8-3.7-.9-5.6 0-2.9.1-4.5-.6-4.5v.5c-.2.3-1 .8-2.2.9-1.3 0-2-.5-2.2-.9v-.5Z"/><path fill="#33907C" d="M230 122.5c2.3 3 4 6.5 5 10.1 2.4 9-1.3 28.1-1.3 28.1.1 1.3 1.7 3.9 2.3 9.6.6 6.8-1.3 28-1.3 28s-1.9 1.3-4.6.1c0 0-4.9-29.7-5.8-36.4l-2-15.1-2.8 15.1.8 5.8c.4 4-4.3 23.7-4.3 23.7s-3.4 1-6-.1v-29.6c0-6 .2-17 .8-26.2.3-4.2.9-8.4 1.7-12.5l17.4-.6Z"/><path fill="#000" d="M230 122.5c2.3 3 4 6.5 5 10.1 2.4 9-1.3 28.1-1.3 28.1.1 1.3 1.7 3.9 2.3 9.6.6 6.8-1.3 28-1.3 28s-1.9 1.3-4.6.1c0 0-4.9-29.7-5.8-36.4l-2-15.1-2.8 15.1.8 5.8c.4 4-4.3 23.7-4.3 23.7s-3.4 1-6-.1v-29.6c0-6 .2-17 .8-26.2.3-4.2.9-8.4 1.7-12.5l17.4-.6Z" opacity=".5"/><path fill="#000" d="m222.3 146.8-1.2-8.4c-2.4-.2-4.7-.9-6.8-2.1a8.8 8.8 0 0 0 5.7 3l1.2 7-1 12.1 2.1-11.6Z" opacity=".1"/><path fill="#37474F" d="m211.7 115 .8 5.5-1.3 8.7c6.5 5 20.5 2.4 22.4-1-1.4-3.2-4.5-8.9-4.5-8.9l2.7-7.4s-3.7-5-.3-10l-5.4-.4-6.3-.4h-2.3c-2.4 2.1-5 4.2-6.1 5.9-1 1.5-2.8 4.6.3 8Z"/><path fill="#263238" d="M223.2 99.7H211V88.3c0-2.6 1-5.2 3-7a10.8 10.8 0 0 1 14.9 0c2 1.8 3 4.4 3 7v3c0 2.3-.9 4.4-2.5 6a9 9 0 0 1-6.2 2.4Z"/><path fill="#FFA8A7" d="M229.2 89.8a2.2 2.2 0 0 0-2.8-.4 2 2 0 0 0-.7.8s-1.3.5-4.7-.8c-2.8-1-5.7-4-6.4-5.8a13.4 13.4 0 0 0-1.8 8.7c.4 5.2 2.1 6 3 6.3.9.3 2.3 0 4-.2v3s-3.4 3.8-2 6.5c5.5-1.5 8.3-6.4 8.3-6.4V94s1 1.1 2.6-.1a2.9 2.9 0 0 0 .5-4.1Z"/><path fill="#263238" d="M219.3 90.5v.4l.4.3a.8.8 0 0 0 .9 0l.2-.4v-.5l-.2-.3a.8.8 0 0 0-.4-.2c-.2 0-.5 0-.6.2-.2.1-.3.3-.3.5ZM220.8 88.1l1.4 1c.2-.2.2-.4.2-.6 0-.3-.2-.5-.4-.6a.9.9 0 0 0-1 0l-.2.2Z"/><path fill="#F28F8F" d="m220 95.1-1.7.4a.8.8 0 0 0 .4.6.9.9 0 0 0 .7 0l.6-.3V95Z"/><path fill="#263238" d="m213.2 88.6 1.7-.6a.8.8 0 0 0-.5-.5.9.9 0 0 0-.7 0 1 1 0 0 0-.5.5v.6ZM213.7 90.2v.4l.4.3a.8.8 0 0 0 .8 0l.2-.4v-.4l-.2-.3a.7.7 0 0 0-.7-.2l-.2.2a.7.7 0 0 0-.3.4Z"/><path fill="#F28F8F" d="m217.4 90-.1 3.8-2.4-.5 2.5-3.4ZM219.8 98.4c1.7-.2 4.7-1.5 5.2-2.9 0 .8-.5 1.6-1.1 2.2a16 16 0 0 1-4.1 1.7v-1Z"/><path fill="#FFA8A7" d="M238.5 134.7a61.7 61.7 0 0 0 2.2-11.4c-.3-1.5-2-9.2-3.4-13.7-1.5-4.5-2.9-7.5-5.8-7.8-4.9 2.7-1.5 10.2-1.5 10.2l4.7 11.5-1.3 11.7c-.1.6-1 .9-1.4 1.2a11 11 0 0 0-2.6 2.2c-.8.8-1.4 1-1.3 1.2.2.3.4.5.7.6h1l1.7-1.1c-.4 1-1 2.1-1.8 3-1.7 2.3-2.5 3.9 1.2 3.7 2.3 0 4.8-2 6.4-6.9a33.3 33.3 0 0 0 1.2-4.4Z"/></svg>