<svg xmlns="http://www.w3.org/2000/svg" width="307" height="286" fill="none"><path fill="#fff" d="M153.6 211.6c51.2 0 92.7-3.6 92.7-8s-41.5-8-92.7-8-92.7 3.6-92.7 8 41.5 8 92.7 8Z" opacity=".3"/><path fill="#F3F8FF" fill-rule="evenodd" d="m204.7 167.4-.3-.5-.6-1.4a56.1 56.1 0 0 0-4.9-7.6c-.3-.5-.7-1-1-1.2l-.3-.5.2.6.7 1.3a56 56 0 0 0 4.8 7.7l1 1.1.4.5ZM208.8 160.8l-.2-.6-.9-1.6a79.3 79.3 0 0 0-5.7-9l-1-1.4-.5-.5.3.6.8 1.5a78.2 78.2 0 0 0 5.7 9l1.1 1.4.4.6ZM213 154.1l-.2-.5-.7-1.3a56.5 56.5 0 0 0-4.8-7.7l-1-1.1-.3-.5.2.5.7 1.4a56.1 56.1 0 0 0 4.8 7.6c.4.5.7 1 1 1.2l.3.4ZM217.2 147.5l-.6-1.4a33.8 33.8 0 0 0-3.8-6l-1-1.2.6 1.5a33.5 33.5 0 0 0 4.8 7.1ZM203.4 169.3l.6.1 1.6.2a66.4 66.4 0 0 0 9.6.2l1.5-.1h.6l-.6-.2-1.5-.2a65.7 65.7 0 0 0-9.6-.2l-1.6.2h-.6ZM206.4 184.6s0 .2.3.5l.9 1.2a58.3 58.3 0 0 0 6 6.9c.5.4 1 .7 1.2 1l.4.4s0-.2-.3-.5l-.9-1.2a58 58 0 0 0-6-6.9c-.5-.4-1-.7-1.2-1l-.4-.4ZM214.5 183.2l.4.6 1 1.4a80.7 80.7 0 0 0 7.2 8l1.3 1.3.5.5-.4-.6-1-1.4a80.4 80.4 0 0 0-7.2-8l-1.3-1.3-.5-.5ZM199.9 181.3v-.6c0-.3 0-.9-.2-1.5a53.7 53.7 0 0 0-1.8-8.7l-.5-1.4c0-.3-.2-.5-.2-.5v.6l.2 1.4a53.4 53.4 0 0 0 1.8 8.7l.5 1.4.2.6Z" clip-rule="evenodd"/><path fill="#F3F8FF" fill-rule="evenodd" d="M206.2 176.3v-.6l-.2-1.8a74.2 74.2 0 0 0-2.2-10.2l-.5-1.7-.3-.6v.7l.3 1.7a74.2 74.2 0 0 0 2.2 10.2l.5 1.7.2.6ZM212.5 171.4v-.6c0-.3 0-.8-.2-1.4a53.8 53.8 0 0 0-1.8-8.8l-.4-1.4-.2-.5v.6l.1 1.4a53.4 53.4 0 0 0 1.9 8.7l.4 1.4.2.6ZM198 182.7l.6.3 1.4.6a64.2 64.2 0 0 0 9 3.2l1.5.4h.5l-.5-.2-1.4-.6a64.5 64.5 0 0 0-9-3.2l-1.5-.4h-.6Z" clip-rule="evenodd"/><path fill="#F3F8FF" fill-rule="evenodd" d="m204.7 167.4-.3-.5-.6-1.4a56.1 56.1 0 0 0-4.9-7.6c-.3-.5-.7-1-1-1.2l-.3-.5.2.6.7 1.3a56 56 0 0 0 4.8 7.7l1 1.1.4.5ZM208.8 160.8l-.2-.6-.9-1.6a79.3 79.3 0 0 0-5.7-9l-1-1.4-.5-.5.3.6.8 1.5a78.2 78.2 0 0 0 5.7 9l1.1 1.4.4.6ZM213 154.1l-.2-.5-.7-1.3a56.5 56.5 0 0 0-4.8-7.7l-1-1.1-.3-.5.2.5.7 1.4a56.1 56.1 0 0 0 4.8 7.6c.4.5.7 1 1 1.2l.3.4ZM203.4 169.3l.6.1 1.6.2a66.4 66.4 0 0 0 9.6.2l1.5-.1h.6l-.6-.2-1.5-.2a65.7 65.7 0 0 0-9.6-.2l-1.6.2h-.6ZM206.4 184.6s0 .2.3.5l.9 1.2a58.3 58.3 0 0 0 6 6.9c.5.4 1 .7 1.2 1l.4.4s0-.2-.3-.5l-.9-1.2a58 58 0 0 0-6-6.9c-.5-.4-1-.7-1.2-1l-.4-.4ZM214.5 183.2l.4.6 1 1.4a80.7 80.7 0 0 0 7.2 8l1.3 1.3.5.5-.4-.6-1-1.4a80.4 80.4 0 0 0-7.2-8l-1.3-1.3-.5-.5ZM199.9 181.3v-.6c0-.3 0-.9-.2-1.5a53.7 53.7 0 0 0-1.8-8.7l-.5-1.4c0-.3-.2-.5-.2-.5v.6l.2 1.4a53.4 53.4 0 0 0 1.8 8.7l.5 1.4.2.6Z" clip-rule="evenodd"/><path fill="#F3F8FF" fill-rule="evenodd" d="M206.2 176.3v-.6l-.2-1.8a74.2 74.2 0 0 0-2.2-10.2l-.5-1.7-.3-.6v.7l.3 1.7a74.2 74.2 0 0 0 2.2 10.2l.5 1.7.2.6ZM212.5 171.4v-.6c0-.3 0-.8-.2-1.4a53.8 53.8 0 0 0-1.8-8.8l-.4-1.4-.2-.5v.6l.1 1.4a53.4 53.4 0 0 0 1.9 8.7l.4 1.4.2.6ZM198 182.7l.6.3 1.4.6a64.2 64.2 0 0 0 9 3.2l1.5.4h.5l-.5-.2-1.4-.6a64.5 64.5 0 0 0-9-3.2l-1.5-.4h-.6ZM95.6 167.4l.2-.5.7-1.4a56.6 56.6 0 0 1 4.8-7.6c.4-.5.7-1 1-1.2l.3-.5-.2.6-.7 1.3a55.4 55.4 0 0 1-4.8 7.7l-1 1.1-.3.5ZM91.4 160.8l.3-.6.8-1.6a78.3 78.3 0 0 1 5.7-9l1.1-1.4.5-.5-.3.6-.8 1.5a78 78 0 0 1-5.8 9l-1 1.4-.5.6ZM87.2 154.1l.3-.5.6-1.3a56.3 56.3 0 0 1 4.9-7.7c.3-.5.7-.9 1-1.1l.3-.5-.2.5-.7 1.4a56 56 0 0 1-4.8 7.6l-1 1.2-.4.4ZM96.8 169.3l-.6.1-1.5.2a66.3 66.3 0 0 1-9.6.2l-1.6-.1H83l.6-.2 1.6-.2a65.7 65.7 0 0 1 9.5-.2l1.6.2h.6ZM93.9 184.6l-.3.5-.9 1.2a58 58 0 0 1-6.1 6.9l-1.1 1-.5.4.3-.5 1-1.2a57.7 57.7 0 0 1 6-6.9l1.1-1 .5-.4ZM85.8 183.2l-.4.6-1 1.4a81.3 81.3 0 0 1-7.2 8l-1.3 1.3-.5.5.3-.6 1.1-1.4a80.5 80.5 0 0 1 7.2-8l1.3-1.3.5-.5ZM100.4 181.3v-.6l.1-1.5a53.7 53.7 0 0 1 1.9-8.7l.4-1.4.2-.5v.6c0 .3 0 .8-.2 1.4a53.4 53.4 0 0 1-1.8 8.7l-.5 1.4-.1.6Z" clip-rule="evenodd"/><path fill="#F3F8FF" fill-rule="evenodd" d="m94 176.3.1-.6.2-1.8a74.7 74.7 0 0 1 2.2-10.2l.5-1.7.2-.6v.7l-.2 1.7a74.4 74.4 0 0 1-2.2 10.2l-.5 1.7-.3.6ZM87.7 171.4v-.6l.2-1.4a53.9 53.9 0 0 1 1.8-8.8l.5-1.4.2-.5v.6l-.2 1.4a53.5 53.5 0 0 1-1.8 8.7l-.5 1.4c0 .4-.2.6-.2.6ZM102.2 182.7l-.5.3-1.4.6a64.3 64.3 0 0 1-9 3.2l-1.5.4h-.6l.5-.2 1.5-.6a64.3 64.3 0 0 1 8.9-3.2l1.5-.4h.6Z" clip-rule="evenodd"/><path fill="#279D8A" fill-rule="evenodd" d="M97.4 182.5h105.5V179H97.4v3.6Z" clip-rule="evenodd"/><path fill="#fff" fill-rule="evenodd" d="M86.7 179h126.9c1.2 0 2.1-.8 2.1-2v-74.8c0-1.1-1-2-2.1-2h-127c-1.1 0-2 .9-2 2V177c0 1 .9 2 2 2Z" clip-rule="evenodd"/><path fill="#4B5352" fill-rule="evenodd" d="M88.8 171.7h122.6V104H88.8v67.6Z" clip-rule="evenodd"/><path fill="#2ADABF" fill-rule="evenodd" d="M215.7 182.5H84.5l-18.8 13.9h168.9l-18.9-13.9Z" clip-rule="evenodd"/><path fill="#fff" fill-rule="evenodd" d="M133.4 188.4h33.4l8 5.8h52.8l-13-9.5h-129l-13 9.5h52.9l8-5.8Z" clip-rule="evenodd"/><path fill="#279D8A" fill-rule="evenodd" d="M166 190.5h-31.8l-8 5.9H174l-8-6Z" clip-rule="evenodd"/><path fill="#279D8A" fill-rule="evenodd" d="M229.8 200.7H70.4c-2.6 0-4.7-2-4.7-4.3h168.9c0 2.4-2.2 4.3-4.8 4.3Z" clip-rule="evenodd"/><path fill="#2ADABF" fill-rule="evenodd" d="M149.2 194.4h-9.7l-2.7 2h12.4v-2ZM151 196.4h12.4l-2.7-2h-9.6v2ZM87 186.9l-2.5 1.8h41.8l2.5-1.8H87ZM83.2 189.8l-2.5 1.8h41.8l2.4-1.8H83.2ZM213.3 186.9l2.4 1.8H174l-2.4-1.8h41.8ZM217.1 189.8l2.5 1.8h-41.8l-2.5-1.8h41.8ZM138.3 149h-37c-.9 0-1.7-.8-1.7-1.7 0-.9.8-1.6 1.8-1.6h36.9c1 0 1.7.7 1.7 1.6 0 .9-.8 1.6-1.7 1.6Z" clip-rule="evenodd"/><path fill="#D4E1FF" fill-rule="evenodd" d="M138.3 145.7h-3c.9 0 1.7.7 1.7 1.6 0 .9-.8 1.6-1.8 1.6h3c1 0 1.8-.7 1.8-1.6 0-.9-.8-1.6-1.7-1.6Z" clip-rule="evenodd"/><path fill="#2ADABF" fill-rule="evenodd" d="M138.3 153.8h-37c-.9 0-1.7-.8-1.7-1.7 0-.8.8-1.6 1.8-1.6h36.9c1 0 1.7.8 1.7 1.6 0 1-.8 1.7-1.7 1.7Z" clip-rule="evenodd"/><path fill="#D4E1FF" fill-rule="evenodd" d="M138.3 150.5h-5.6c1 0 1.8.8 1.8 1.6 0 1-.8 1.7-1.8 1.7h5.6c1 0 1.7-.8 1.7-1.7 0-.8-.8-1.6-1.7-1.6Z" clip-rule="evenodd"/><path fill="#2ADABF" fill-rule="evenodd" d="M138.3 158.6h-37c-.9 0-1.7-.7-1.7-1.6 0-.9.8-1.6 1.8-1.6h36.9c1 0 1.7.7 1.7 1.6 0 .9-.8 1.6-1.7 1.6Z" clip-rule="evenodd"/><path fill="#D4E1FF" fill-rule="evenodd" d="M138.3 155.4h-19.9c1 0 1.7.7 1.7 1.6 0 .9-.7 1.6-1.7 1.6h19.9c1 0 1.7-.7 1.7-1.6 0-.9-.8-1.6-1.7-1.6Z" clip-rule="evenodd"/><path fill="#2ADABF" fill-rule="evenodd" d="M138.3 163.5h-37c-.9 0-1.7-.8-1.7-1.7 0-.9.8-1.6 1.8-1.6h36.9c1 0 1.7.7 1.7 1.6 0 1-.8 1.7-1.7 1.7Z" clip-rule="evenodd"/><path fill="#D4E1FF" fill-rule="evenodd" d="M138.3 160.2h-10c.9 0 1.7.7 1.7 1.6 0 1-.8 1.7-1.8 1.7h10c1 0 1.8-.8 1.8-1.7 0-.9-.8-1.6-1.7-1.6Z" clip-rule="evenodd"/><path stroke="#8CB0EA" stroke-dasharray="1.6" stroke-width=".5" d="M104.7 112.7h56.8M104.7 118h56.8M104.7 123.4h56.8M104.7 128.7h56.8M104.7 134h56.8"/><path fill="#279D8A" fill-rule="evenodd" d="M106.4 140.4h.2V139h-.2v1.4ZM100.6 140.4h.3V110h-.3v30.4ZM112.5 140.4h.2V139h-.2v1.4ZM118.6 140.4h.2V139h-.2v1.4ZM124.7 140.4h.2V139h-.2v1.4ZM130.8 140.4h.2V139h-.2v1.4ZM136.9 140.4h.2V139h-.2v1.4ZM143 140.4h.2V139h-.2v1.4ZM149 140.4h.3V139h-.2v1.4ZM155.2 140.4h.2V139h-.2v1.4ZM161.3 140.4h.2V139h-.2v1.4Z" clip-rule="evenodd"/><path fill="#5D7EE8" fill-rule="evenodd" d="M99.6 134.2h1.6v-.3h-1.6v.3ZM99.6 128.8h1.6v-.2h-1.6v.2ZM99.6 123.5h1.6v-.3h-1.6v.3ZM99.6 118.1h1.6v-.2h-1.6v.2ZM99.6 112.8h1.6v-.2h-1.6v.2Z" clip-rule="evenodd"/><path fill="#279D8A" fill-rule="evenodd" d="M99.6 139.5h63v-.2h-63v.2Z" clip-rule="evenodd"/><path stroke="#89FFED" stroke-width="1.6" d="M156.3 114.7s-3.2 9.1-11.4 5.5c-8.2-3.6-10 .6-11.3 5.8-5 19.2-5.5-.4-8.4-.3-3 .2-4 10.5-6.7 10.8-2.8.3-4.2-12.3-7.4-12.3-3 0-5.6 8.6-5.6 8.6"/><path stroke="#2ADABF" stroke-width="1.6" d="M157.3 120s-3.2 6.6-6.6 2.8c-3.6-4.1-4.4 8.8-7.6 9.6-3.2.8-1.8-13.7-6.3-6.8-4.8 7.1-7-1.1-10.5-3.1-3.4-2-5.3 1.2-6 2.9-.7 1.4-1.3 3-3.1.8-1.7-2.2-2.7-4-6.3 3.7"/><path fill="#2ADABF" fill-rule="evenodd" d="M187.4 134c-5 0-9-3.7-9-8.3 0-4.6 4-8.3 9-8.3s9 3.7 9 8.3c0 4.6-4 8.4-9 8.4Zm0-19.6c-6.7 0-12.2 5-12.2 11.3 0 6.3 5.5 11.4 12.2 11.4 6.8 0 12.2-5.1 12.2-11.4 0-6.2-5.4-11.3-12.2-11.3Z" clip-rule="evenodd"/><path fill="#EFA748" fill-rule="evenodd" d="M196.4 125.7v.5h3.2v-.5c0-6.2-5.4-11.3-12.2-11.3v3c5 0 9 3.7 9 8.3Z" clip-rule="evenodd"/><path fill="#fff" fill-rule="evenodd" d="m194.4 119-.3-.3 2.8-2.6h4.8v.4H197l-2.6 2.4Z" clip-rule="evenodd"/><path fill="#62C1C5" fill-rule="evenodd" d="M196.3 126.1c-.2 4.5-4 8-9 8-1.8 0-3.5-.5-5-1.4l-2 2.3c2 1.3 4.5 2.1 7 2.1 6.6 0 12-4.8 12.3-10.8l-3.3-.2Z" clip-rule="evenodd"/><path fill="#fff" fill-rule="evenodd" d="M199.4 140h-9.6l-4.3-3.9.3-.2 4.1 3.8h9.5v.3ZM180.6 119l-2.7-2.6h-5v-.3h5.2l2.8 2.6-.3.2Z" clip-rule="evenodd"/><path stroke="#EFA748" stroke-linecap="round" stroke-width="4.9" d="m65.7 128.7 31.6-29.3 13.6 12.7 28.3-26.3 28 26 36.6-34"/><path fill="#EFA748" fill-rule="evenodd" d="M170.8 111.9c0 1.8-1.6 3.3-3.6 3.3s-3.6-1.5-3.6-3.3c0-1.9 1.6-3.4 3.6-3.4s3.6 1.5 3.6 3.4Z" clip-rule="evenodd"/><path fill="#F3F8FF" fill-rule="evenodd" d="M169 111.9c0 .9-.8 1.6-1.8 1.6s-1.8-.7-1.8-1.6c0-1 .8-1.7 1.8-1.7s1.8.7 1.8 1.7Z" clip-rule="evenodd"/><path fill="#EFA748" fill-rule="evenodd" d="M142.8 85.8c0 1.9-1.6 3.4-3.6 3.4s-3.6-1.5-3.6-3.4c0-1.8 1.6-3.3 3.6-3.3s3.6 1.5 3.6 3.3Z" clip-rule="evenodd"/><path fill="#F3F8FF" fill-rule="evenodd" d="M141 85.8c0 1-.8 1.7-1.8 1.7s-1.8-.7-1.8-1.7c0-.9.8-1.6 1.8-1.6s1.8.7 1.8 1.6Z" clip-rule="evenodd"/><path fill="#EFA748" fill-rule="evenodd" d="M114.5 112.1c0 1.8-1.6 3.3-3.6 3.3s-3.6-1.5-3.6-3.3c0-1.9 1.6-3.4 3.6-3.4s3.6 1.5 3.6 3.4Z" clip-rule="evenodd"/><path fill="#F3F8FF" fill-rule="evenodd" d="M112.7 112.1c0 1-.8 1.7-1.8 1.7s-1.8-.8-1.8-1.7c0-1 .8-1.7 1.8-1.7s1.8.8 1.8 1.7Z" clip-rule="evenodd"/><path fill="#EFA748" fill-rule="evenodd" d="M100.9 99.4c0 1.9-1.6 3.4-3.6 3.4s-3.6-1.5-3.6-3.4c0-1.8 1.6-3.3 3.6-3.3s3.6 1.5 3.6 3.3Z" clip-rule="evenodd"/><path fill="#F3F8FF" fill-rule="evenodd" d="M99 99.4c0 1-.7 1.7-1.7 1.7s-1.8-.8-1.8-1.7c0-.9.8-1.6 1.8-1.6s1.8.7 1.8 1.6Z" clip-rule="evenodd"/><path fill="#EFA748" fill-rule="evenodd" d="m196 85-6.6-6.1 9-2.3 9.1-2.2-2.4 8.4-2.5 8.4-6.6-6.1Z" clip-rule="evenodd"/><path fill="#FFA9A8" fill-rule="evenodd" d="M151.2 169.4s-.5-.4-1.2-.4c-.6 0 0 .6 0 .6s-.9-.3-1.5-.2c-.7.2-.9 2 2.5 1.4h.7l.2-1.4h-.7Z" clip-rule="evenodd"/><path fill="#0A3C5F" fill-rule="evenodd" d="m163.5 201.3-1.7.2s-.2 1-.8 1.2c-.6.2-1.8.6-1.7 1.2 0 .4 1 .3 1.8.3l.6-.4 1.1-.4.3.6c.4 0 .7-.2.7-.2l-.3-2.5Z" clip-rule="evenodd"/><path fill="#FED4D5" fill-rule="evenodd" d="M161.6 175.2c-2.3 9.8.2 26.3.2 26.3l1.7-.1s-.8-13.9.8-22.5c1.3-6.8-1.5-8.3-2.7-3.7Z" clip-rule="evenodd"/><path fill="#0A3C5F" fill-rule="evenodd" d="m168 201.3-1.6.2s-.2 1-.8 1.2c-.7.2-1.8.6-1.8 1.2 0 .4 1.2.3 1.9.3l.6-.4 1.1-.4.3.6c.4 0 .7-.2.7-.2l-.3-2.5Z" clip-rule="evenodd"/><path fill="#FED4D5" fill-rule="evenodd" d="M166.2 175.2c-2.4 9.8.2 26.3.2 26.3l1.7-.2s-.8-13.8.8-22.4c-.5-.2-3.1-1.6-2.7-3.7Z" clip-rule="evenodd"/><path fill="#FED4D5" fill-rule="evenodd" d="M161.3 180h6.4v-4.8h-6.4v4.8Z" clip-rule="evenodd"/><path fill="#FFEB75" fill-rule="evenodd" d="M162.4 164.4s-2.2 3.8-4.4 5.6c-1.6 1.4-3.7 1-6.7 1l.2-1.8 3-.2c2.8-.3 3.7-3.3 3.7-3.3s.8-2 1.6-2.7c1.7-1.8 3.7-.2 2.6 1.4Z" clip-rule="evenodd"/><path fill="#FFEB75" fill-rule="evenodd" d="M160.8 175.2h7.7c-.8-4.8.2-7 .5-8.3.4-2.2.2-3.4.2-3.4 0-1-1.2-1.3-2.2-1.3h-5.8c.2 2-1.6 4.6-.4 6.1 1.3 1.7 0 7 0 7Z" clip-rule="evenodd"/><path fill="#FED4D5" fill-rule="evenodd" d="M164 163.3c-.4 0-.7-.3-.7-.8v-1.3h1.6v1.3c0 .5-.4.8-.8.8Z" clip-rule="evenodd"/><path fill="#282828" fill-rule="evenodd" d="M162.2 161.5h-1.8s0-2.3-.5-4.3c-.4-2 .8-4 3.4-4 2.6 0 3.6 2.2 3.6 2.2s1.8.2 2 1.5c0 1.3-1.5 3.3-1.3 4.8l-2.8-.1c-1.3-.2-2.6-.1-2.6-.1Z" clip-rule="evenodd"/><path fill="#FED4D5" fill-rule="evenodd" d="M167 157.8a1 1 0 0 0-.6.7c-2-2.2-5.6-2-5.6-2s0 2 .5 3.8a2.7 2.7 0 0 0 3.7 1.5c.6-.3 1-.8 1.3-1.6 0 0 1.3-.6 1.4-1.7 0-.5-.3-.7-.6-.7Z" clip-rule="evenodd"/><path fill="#2C4199" fill-rule="evenodd" d="M160.1 187.5h9.2s2-8.5-.8-12.2h-7.7s-2.5 4.1-.7 12.2Z" clip-rule="evenodd"/><path fill="#fff" fill-rule="evenodd" d="m163.3 175 6.3-1.3-1.7-7.5-6.2 1.2 1.6 7.5Z" clip-rule="evenodd"/><path fill="#FED4D5" fill-rule="evenodd" d="M163.1 202.3c.3-.2.4-1 .4-1h-.2l-1.5.2s-.2 1-.8 1.2a9 9 0 0 0-.8.3s-.2.7 1 .4c1.2-.4 1.7-.8 2-1ZM167.7 202.3c.2-.2.4-1 .4-1h-.2l-1.5.2s-.2 1-.8 1.2a9 9 0 0 0-.8.3s-.2.7 1 .4c1.1-.4 1.6-.8 1.9-1Z" clip-rule="evenodd"/><path fill="#F59E6E" fill-rule="evenodd" d="M144.2 161.3s1.7 0 1.5 3.7c-.2 3.8.1 7.8 2 10.7l-2.2.8s-1.6-2.7-2.5-6.8c-.6-2.8 1.2-8.4 1.2-8.4Z" clip-rule="evenodd"/><path fill="#EF9D75" fill-rule="evenodd" d="m146 177 2-.3c0-.3-.3-.6-.4-1l-2 .7.4.5Z" clip-rule="evenodd"/><path fill="#EF9D75" fill-rule="evenodd" d="M147.6 176.2s1-.1 1 .3v1h-.9v-1.3Z" clip-rule="evenodd"/><path fill="#EAA707" fill-rule="evenodd" d="M144.5 178.7h.6v-1c0-.2.2-.4.4-.4h3c.2 0 .4.2.4.4v1h.6v-1c0-.5-.5-1-1-1h-3c-.6 0-1 .5-1 1v1Z" clip-rule="evenodd"/><path fill="#0A3C5F" fill-rule="evenodd" d="M147.1 180.1h-6.3v5.9H153v-5.9h-5.8Z" clip-rule="evenodd"/><path fill="#0E4F77" fill-rule="evenodd" d="M140.8 182.3H153v-3.7h-12v3.7Z" clip-rule="evenodd"/><path fill="#EAA707" fill-rule="evenodd" d="M146.2 182.5h1.4v-.9h-1.4v1Z" clip-rule="evenodd"/><path fill="#0A3C5F" fill-rule="evenodd" d="M142.8 201.5s.2 1 .8 1.2c.7.2 1.8.6 1.8 1.2s-2 .3-2.4.3l-2.2-.4v-2.5l2 .2Z" clip-rule="evenodd"/><path fill="#0A3C5F" fill-rule="evenodd" d="M144.2 176.3c1.7 9.9-1.1 25.3-1.1 25.3h-2.5s.6-14.9-.4-21.7c-1-6.9 3.3-8.7 4-3.6Z" clip-rule="evenodd"/><path fill="#0A3C5F" fill-rule="evenodd" d="M136.1 181h8.1v-4.7h-8v4.7ZM137.1 201.5s.2 1 .8 1.2c.7.2 1.8.6 1.8 1.2s-2 .3-2.4.3l-2.2-.4v-2.5l2 .2Z" clip-rule="evenodd"/><path fill="#0E4F77" fill-rule="evenodd" d="M139.8 176.3c.2 9.6-2.4 25.3-2.4 25.3h-2.5s.9-12-.2-18.8c-.8-4.6-.4-6.5-.4-6.5 1.3-2 5-3.7 5.5 0Z" clip-rule="evenodd"/><path fill="#F59E6E" fill-rule="evenodd" d="M144.2 176.3h-9.9l-.4-15h10.3v15Z" clip-rule="evenodd"/><path fill="#FED4D5" fill-rule="evenodd" d="M139.8 162.3c.4 0 .8-.3.8-.7v-1.4H139v1.4c0 .4.3.7.8.7Z" clip-rule="evenodd"/><path fill="#fff" fill-rule="evenodd" d="m139.8 162.3-.8.7-.7-1.8.7-.3.8 1.4ZM139.8 162.3l.7.7.8-1.8-.7-.3-.8 1.4Z" clip-rule="evenodd"/><path fill="#F8B690" fill-rule="evenodd" d="M143 155.5s0 2.1-.5 3.8a2.7 2.7 0 0 1-3.7 1.6c-.5-.3-1-.8-1.3-1.7 0 0-1.3-.6-1.4-1.6 0-1.1 1.2-.8 1.4 0l.8-2.8h1.7l1.4.6 1.6.1Z" clip-rule="evenodd"/><path fill="#282828" fill-rule="evenodd" d="M143.3 152.6c-1.4-.5-6.3 0-7.2 1-.5 1.2.5 3.3.5 3.3s.6 0 .9.6c0 0 1-.4 1.2-1.5 0 0 2.2.7 4.3-.5.7-.4 1.7-2.4.3-2.9Z" clip-rule="evenodd"/><path fill="#F8B690" fill-rule="evenodd" d="M147.9 176.6c.9 0 .7 1 .5 1.2-.3.2-2.3.8-2.5.4-.2-.4-.6-1 0-1.2l2-.4Z" clip-rule="evenodd"/><path fill="#EF9D75" fill-rule="evenodd" d="M147.5 169.3s.5-.5 1.2-.4c.6 0 0 .5 0 .5s.9-.3 1.5-.1c.7.1.9 1.9-2.5 1.4l-.7-.1-.2-1.3h.7Z" clip-rule="evenodd"/><path fill="#F59E6E" fill-rule="evenodd" d="M133 163s.5 3.7 2.3 6.8c1.4 2.3 6.5 2 12.1 1l-.2-1.9s-5.5.5-7.5.3c-2.6-.3-2.6-4-2.6-4s-.1-1.9-.5-2.7c-1-2-3.7-1.8-3.6.5Z" clip-rule="evenodd"/><path fill="#FFEB75" fill-rule="evenodd" d="M167.5 162.2s-.8.3.3 2.8c1.2 2.4 3 5.5 2.3 5.8-.6.3-4.2 0-4.8.1-.6.1-1 1.4.6 1.7 1.5.2 4.3.7 6 .3 1.7-.5 1-2.7-.5-6.6-1.5-3.9-2.5-4.6-3.9-4Z" clip-rule="evenodd"/><path fill="#FED4D5" fill-rule="evenodd" d="M163.5 172.4c-.7 0-1.3-.4-.9-1.4.4-1 1.8-.6 2.8-.3 1 .4 1 .1 1 1.2 0 1.2-1.7.5-2.9.5Z" clip-rule="evenodd"/><path fill="#FED4D5" fill-rule="evenodd" d="M166.4 171.1s-.4-.8-1.2-.9c-.6 0-.5.3-.5.3l.6.8.6.2.5-.4Z" clip-rule="evenodd"/><path fill="#282828" fill-rule="evenodd" d="M136.6 156.9s.6 0 .9.6c0 0 1-.4 1.2-1.5 0 0-1.7-.2-2.7-.9.2 1 .6 1.8.6 1.8Z" clip-rule="evenodd"/><path fill="#6CBA39" fill-rule="evenodd" d="M165.2 157.5s1.8 1.2.3 4l1-.5.6-.3.6-1 .5-.9v-1.3l-.7-.6-1-.1h-.7l-.6.7Z" clip-rule="evenodd"/><path fill="#703518" fill-rule="evenodd" d="M226.9 170.2s1.3-1.7.3-3.3c0 0 1-1-.1-2 0 0 .8-2-1.3-2.6 0 0-.7-1.3-2.8-1.1-2.1.2-2.6 1.4-2.6 1.4s-3.4 1-1.5 4.5c0 0-3.6 3.3 1.4 8 2 1.8 6.6-4.9 6.6-4.9Z" clip-rule="evenodd"/><path fill="#FED4D5" fill-rule="evenodd" d="M224.7 172.1s.7 5 2.1 7.3c1.4 2.3 5.4 1 9.4-1.2l-.7-1.8s-2.2 1-4.2 1.4c-2.5.5-2.6-3.5-2.6-3.5s0-1.9-.4-2.8c-1-2.1-3.6-1.4-3.6.6Z" clip-rule="evenodd"/><path fill="#F76B8D" fill-rule="evenodd" d="m227.2 184.2-8.7-.2c2.2-5.1 1.2-8 1-9.3-.4-2.2-.2-3.3-.2-3.3 0-.8 1.1-1.2 2-1.2h5.6c-.3 1.8 1.4 4.4.3 5.8-1.2 1.6 0 8.2 0 8.2Z" clip-rule="evenodd"/><path fill="#FED4D5" fill-rule="evenodd" d="M218.6 171.1s-2.2 3.5-2.6 6.1c-.4 2.6.4 3.8 4.8 4.7l.6-1.3-2.2-1c-2.3-1.2.4-4.7.4-4.7s1.3-1.6 1.6-2.5c.6-2.2-1.7-3-2.6-1.3Z" clip-rule="evenodd"/><path fill="#FED4D5" fill-rule="evenodd" d="M223.3 183c.3 1 .7-.4.7-1.4 0-1-1-1-2-1s-1-.3-1.3.7c-.4 1.2 2.2.7 2.6 1.7Z" clip-rule="evenodd"/><path fill="#C33E6B" fill-rule="evenodd" d="M223.6 184.5s-1 5.7 4.3 4.3c5-1.3 7.7-1.6 8.6 10.8l2.4-.2s1-12-2.1-14.6c-3.1-2.5-13.2-.3-13.2-.3Z" clip-rule="evenodd"/><path fill="#3459B7" fill-rule="evenodd" d="M238.6 199.4s.5.8 1.1.9c.6 0 2.4-.1 2.5.4.2.6-2.3 1-2.7 1-.3.2-1-.5-1.3-.6-.3 0-.4.2-.7.1l-1-.5.3-1.3h1.8Z" clip-rule="evenodd"/><path fill="#0A3C5F" fill-rule="evenodd" d="M230 188.5h-9.2l-2-4.5H230v4.5Z" clip-rule="evenodd"/><path fill="#C33E6B" fill-rule="evenodd" d="M218.5 184s-2.3 4 2.8 4.9c5.2.8 7.9.8 5 13l2.3.4s4.5-11.6 2.3-14.8c-2.7-4-12.4-3.5-12.4-3.5Z" clip-rule="evenodd"/><path fill="#3459B7" fill-rule="evenodd" d="M228.4 202.2s.2 1 .8 1.1c.5.2 2.2.6 2.2 1.1 0 .6-2.5.4-2.9.4-.3 0-.8-.9-1-1-.3-.2-.5 0-.7 0-.3-.2-1-.8-1-1l.8-1 1.8.4Z" clip-rule="evenodd"/><path fill="#E89234" fill-rule="evenodd" d="M226.7 184.5h-6.4c-.2 0-.3-.1-.3-.3 0-.2.1-.4.3-.4h6.4c.2 0 .4.2.4.3 0 .3-.2.4-.4.4Z" clip-rule="evenodd"/><path fill="#fff" fill-rule="evenodd" d="M240 184.5h-13.4c-.4 0-.6-.2-.6-.6v-8.2c0-.3.2-.6.6-.6h13.5c.3 0 .6.3.6.6v8.2c0 .4-.3.6-.6.6Z" clip-rule="evenodd"/><path fill="#fff" fill-rule="evenodd" d="M226.6 175.1h7.4c-.4 0-.7.3-.7.6v8.2c0 .4.3.6.7.6h-7.4c-.4 0-.6-.2-.6-.6v-8.2c0-.3.2-.6.6-.6Z" clip-rule="evenodd"/><path fill="#E89234" fill-rule="evenodd" d="M226.6 175.1h.5c-.4 0-.7.3-.7.6v8.2c0 .4.3.6.7.6h-.5c-.4 0-.6-.2-.6-.6v-8.2c0-.3.2-.6.6-.6Z" clip-rule="evenodd"/><path fill="#FED4D5" fill-rule="evenodd" d="M223.6 170.9c.4 0 .8-.3.8-.7v-1.3h-1.6v1.3c0 .4.4.7.8.7Z" clip-rule="evenodd"/><path fill="#FED4D5" fill-rule="evenodd" d="M226.7 164.4s0 2-.5 3.6a2.6 2.6 0 0 1-3.5 1.5c-.5-.3-1-.8-1.2-1.6 0 0-1.3-.5-1.4-1.5 0-1 1.2-.8 1.3 0l.8-2.7h1.6l2.3-.4.6 1.1Z" clip-rule="evenodd"/><path fill="#703518" fill-rule="evenodd" d="M226.7 165s-.6 0-1-.8c0 0-1.3 2.2-4.3 2.1 0 0-.2-.8 0-1.3 0-.5.4-1.3.5-1.4.2-.1.2-.6 1.1-.6h3.3l.4.4.2.7v.5l-.2.4Z" clip-rule="evenodd"/><path fill="#0A3C5F" fill-rule="evenodd" d="M84 203s-.2 1-.8 1.1c-.6.2-1.7.6-1.7 1.1 0 .5 2 .3 2.3.3.4 0 2-.2 2-.4v-2.3l-1.9.2Z" clip-rule="evenodd"/><path fill="#6D6D6D" fill-rule="evenodd" d="M82.6 179c-1.6 9.4 1 24 1 24H86s-.6-14 .4-20.5-3-8.2-3.8-3.4Z" clip-rule="evenodd"/><path fill="#6D6D6D" fill-rule="evenodd" d="M82.6 183.5h7.7v-4.4h-7.7v4.4Z" clip-rule="evenodd"/><path fill="#0A3C5F" fill-rule="evenodd" d="M89.3 203s-.2 1-.7 1.1c-.6.2-1.7.6-1.7 1.1 0 .5 2 .3 2.3.3.4 0 2-.2 2-.4v-2.3l-1.9.2Z" clip-rule="evenodd"/><path fill="#6D6D6D" fill-rule="evenodd" d="M86.4 179c0 7.7 2.7 24 2.7 24h2.3s-.8-11.3.3-17.8c.7-4.2.3-6.1.3-6.1-1.3-1.9-5-3.5-5.6 0Z" clip-rule="evenodd"/><path fill="#6CBA39" fill-rule="evenodd" d="M82.6 179H92l.4-14.1h-9.8V179Z" clip-rule="evenodd"/><path fill="#FED4D5" fill-rule="evenodd" d="M86.8 166c-.4 0-.7-.4-.7-.8v-1.3h1.5v1.3c0 .4-.3.7-.8.7Z" clip-rule="evenodd"/><path fill="#A2D680" fill-rule="evenodd" d="M92.5 164.9s-2.4 0-2.2 2.8c.2 3 1.3 5.7.5 5.8-.7.1-4.2-1-4.8-1.1-.7-.1-2 .8-.6 1.6 1.4.7 5.1 3.1 7 3.2 1.9.1 2.3-2.4 2.3-6.8 0-4.5-1-5.5-2.2-5.5ZM82.6 169.2s-3.2 2-5.2 1.5c-2.5-.5-.2-5.5 5.3-9.4l1.2 1.7s-3.6 3.2-3.7 4.2c0 1.1 2.4-2.3 2.4-2.3v4.3Z" clip-rule="evenodd"/><path fill="#62C1C5" fill-rule="evenodd" d="m81.7 163.7 2.1.8h.3l1.7-3.7v-.3l-2.1-.8h-.3l-1.8 3.7.1.3Z" clip-rule="evenodd"/><path fill="#0A3C5F" fill-rule="evenodd" d="m85.6 160.7-.4-.2H85l-.9-.3v-.2l-.4-.1h-.2l-1.6 3.5v.2l1.9.7h.1l1.7-3.5v-.1Z" clip-rule="evenodd"/><path fill="#45ADAD" fill-rule="evenodd" d="m85.7 160.5-1-.4-2 4 1.1.4h.3l1.7-3.7v-.3Z" clip-rule="evenodd"/><path fill="#0A3C5F" fill-rule="evenodd" d="m85.6 160.7-.4-.2H84.6l-1.7 3.4.9.4h.1l1.7-3.5v-.1ZM84.7 160.4l-.4-.2.4.1ZM84.9 160.4h-.1ZM85 160.4h-.1Z" clip-rule="evenodd"/><path fill="#FED4D5" fill-rule="evenodd" d="M83.7 159.4s0 2 .5 3.6a2.6 2.6 0 0 0 3.5 1.5c.6-.3 1-.7 1.3-1.6 0 0 1.2-.5 1.3-1.5 0-1-1.1-.7-1.3 0l-.8-2.6h-1.6l-1.3.6h-1.6Z" clip-rule="evenodd"/><path fill="#282828" fill-rule="evenodd" d="M88 156.2c2 .2 2.3 1.5 2.3 1.5.5 1-.5 3-.5 3s-.6 0-.8.7c0 0-.9-.4-1.1-1.5-.3-1-3 .5-4.9-.2 0 0-2.2-.5-2.1-2.9 0 0 .5.9 1.6.8 0 0-1.3-.7-.3-2.4 0 0 .3 1.2 1.4 1.5 0 0-.1-.6.4-1.2 0 0 .3.8 1.3.9 1 0 2-.3 2.6-.2Z" clip-rule="evenodd"/><path fill="#FED4D5" fill-rule="evenodd" d="M83 160.1s.3 0 .3.6-.5 2-1.1 2c-.2.1-.5 0-.5-.8.1-.7.6-1.8 1.2-1.8Z" clip-rule="evenodd"/><path fill="#fff" fill-rule="evenodd" d="m86.9 176.2-5.6-.3-1.4-7.5 5.6.3 1.4 7.5Z" clip-rule="evenodd"/><path fill="#FED4D5" fill-rule="evenodd" d="M86.3 172s-1-.1-1.1.7c-.2.8-.2 2.5 1.1 2.4.8 0 1-3 0-3Z" clip-rule="evenodd"/><path fill="#F5F5F5" d="M155.3 279.1c80.3 0 145.5-36 145.5-80.4 0-44.4-65.2-80.4-145.5-80.4-80.4 0-145.5 36-145.5 80.4 0 44.4 65.1 80.4 145.5 80.4Z"/><path fill="#E0E0E0" d="M140 214.3a57.1 57.1 0 0 1 25.3-13.4c.9-.3 1.8-.3 2.7-.2a80.8 80.8 0 0 1 32.4 13 1 1 0 0 1-.3 1.3l-.4.4c15.2-4 34-2.5 46.7 4.3 16 8.7 16 22.7 0 31.4a68.6 68.6 0 0 1-58.3 0c-11.3-6.1-14.6-15-10-22.6-3.3 1.4-6.7 2.7-10.1 3.7-.9.3-1.8.2-2.6-.2a118.5 118.5 0 0 1-25.6-16.2 1.3 1.3 0 0 1 .2-1.5ZM44.6 223.3l5.3 2.8a3.5 3.5 0 0 0 3 0L220.5 136c.8-.4.8-1.1 0-1.6l-5.2-2.9a3.4 3.4 0 0 0-3 0L44.7 221.7c-.8.4-.8 1.1 0 1.6ZM112.5 225.6c10.4 0 18.8-4.5 18.8-10 0-5.7-8.4-10.2-18.8-10.2s-18.8 4.5-18.8 10.1 8.4 10.1 18.8 10.1Z"/><path fill="#E0E0E0" d="M140 240.6c10.4 0 18.8-4.6 18.8-10.2s-8.4-10-18.8-10-18.8 4.4-18.8 10 8.4 10.2 18.8 10.2ZM224.7 158.7c10.4 0 18.9-4.5 18.9-10.1s-8.5-10.1-18.9-10.1c-10.4 0-18.8 4.5-18.8 10.1s8.4 10.1 18.8 10.1Z"/><path fill="#EBEBEB" d="m69.4 30.2-5.7 3.1v-2.2c0-2.8-2-4-4.7-2.5-1 .6-2 1.5-2.8 2.5-.4-3.5-3.3-4.8-6.9-2.9-3.9 2-7 7.1-7 11.3v2.3c0 1 .2 1.9.6 2.7l-4.8 2.6c-.7.4-1.3 1-1.8 1.8a5 5 0 0 0-.7 2.4c0 1.5 1.1 2.1 2.5 1.4l31.4-16.9c.7-.4 1.3-1 1.8-1.8a5 5 0 0 0 .8-2.4c0-1.5-1.2-2.1-2.7-1.4ZM100.6 47.3l-4.4 2.3V48c0-2-1.5-3-3.4-1.9-.9.5-1.6 1.1-2.2 1.9-.3-2.6-2.5-3.6-5.2-2.2-2.9 1.6-5.3 5.4-5.3 8.5V56c0 .7.2 1.4.5 2L77 60c-.6.3-1 .8-1.4 1.3-.4.6-.6 1.2-.6 1.8 0 1.2.9 1.7 2 1l23.6-12.6c.6-.4 1-.8 1.4-1.4.3-.5.5-1.1.5-1.8 0-1.1-.8-1.6-1.9-1Z"/><path fill="#33907C" d="M52 206.3s.2-8.5-3.3-15.6c-3.6-7-9.1-11.8-14.8-13-5.6-1-11 3.3-5.3 7.4 5.6 4.1 16 8.9 19.2 22.1l4.2-1Z"/><path fill="#000" d="M52 206.3s.2-8.5-3.3-15.6c-3.6-7-9.1-11.8-14.8-13-5.6-1-11 3.3-5.3 7.4 5.6 4.1 16 8.9 19.2 22.1l4.2-1Z" opacity=".1"/><path fill="#fff" d="M50.7 203.9h.1l.1-.2a.3.3 0 0 0 0-.2A35.1 35.1 0 0 0 31 180l-.1.1v.2l.1.2a34.5 34.5 0 0 1 19.6 23.3h.2Z"/><path fill="#33907C" d="M22.8 197.8c.3 1.1 1.4 1.8 2.5 2.4 1 .5 2.2 1.1 2.6 2.2 1 2.1-1.5 4.6-.4 6.7.2.4.5.8 1 1 .3.3.8.6 1.3.7l2.5.6h1.2c1.2 0 2.4.2 3.4.8 1.6 1.1 1.8 3.1 2.6 4.8.4 1 1.2 1.8 2 2.5 1 .7 2 1.2 3 1.5 2 .5 4.8.5 5.4-.2.5-.6-.3-2.5-.3-3.2.3-1.8.3-3.5.1-5.3v-2.4l.5-2.7c0-1 .5-1.8.2-2.8-.2-1-.6-1.9-1.2-2.8l-1.5-2.5c-.6-1-1.3-2-2.2-3a8.5 8.5 0 0 0-5.9-2.2c-1.8 0-3.6.8-5.4.5-1.8-.4-3.4-1-5.2-1.2a6.8 6.8 0 0 0-5.3 1.8c-.4.3-.7.8-.8 1.3a3 3 0 0 0-.1 1.5Z"/><path fill="#fff" d="M49 216.2h.2v-.3c-2-15.9-19-20.4-23-20.7H26l-.1.3v.1l.2.1c4 .3 20.7 4.7 22.6 20.3l.1.2h.3Z"/><path fill="#fff" d="M31 205.9h.1a15.2 15.2 0 0 1 12.4-1.6.3.3 0 0 0 .2 0 .2.2 0 0 0 0-.3.3.3 0 0 0-.1-.2 16.2 16.2 0 0 0-12.8 1.6v.4h.2Z"/><path fill="#F0F0F0" d="M52.7 223.8h-.5l-.1-.1-.5-.5c-.2-.2-.2-.4-.2-.7v-117c0-.8.2-1.5.6-2.1.4-.7 1-1.3 1.7-1.6l152.8-82.1A36.4 36.4 0 0 1 214 16l.2.1v.1h.1v.1l.2.3V134.5c0 .8-.2 1.5-.6 2.2a5 5 0 0 1-1.7 1.6L53.4 223.6l-.7.2Z"/><path fill="#E0E0E0" d="M213.8 16.5h.2v.2l.2.2v117.5c0 .7-.3 1.4-.7 2-.3.6-.9 1-1.5 1.5L55.6 222l-2.4 1.3a1 1 0 0 1-.5.2H52.4v-.1a1 1 0 0 1-.5-.3l-.1-.5V105.5c0-.7.2-1.4.6-2 .4-.6.9-1 1.5-1.4L206.6 20c1.8-1 6.5-3.5 7.3-3.5Zm0-.8c-.5 0-2 .6-7.6 3.6L53.5 101.4a5 5 0 0 0-1.8 1.8c-.5.7-.7 1.5-.7 2.3v117c0 .3 0 .6.2.8.2.3.4.5.7.6l.2.2H52.7c.3 0 .5 0 .8-.2l2.4-1.3 156.6-84.1c.7-.5 1.3-1 1.8-1.8a5 5 0 0 0 .7-2.3V17l-.1-.3-.2-.3v-.1l-.1-.1a1 1 0 0 0-.4-.3h-.3Z"/><path fill="#E0E0E0" d="M51.9 223.9h-.1l-.6-.6c-.2-.3-.2-.5-.2-.8v-117c0-.8.3-1.6.7-2.3l-3.2-1.7c-.4.7-.7 1.5-.7 2.3v116.8c0 .4.2.7.4 1 .2.4.6.6 1 .8l2.6 1.4.1.1Z"/><path fill="#33907C" d="M215 17.3c0-1.5-1.2-2-2.5-1.3l-159 85.4a5 5 0 0 0-1.8 1.7c-.5.7-.7 1.5-.7 2.4V116L215 28V17.3Z"/><path fill="#33907C" d="M214.2 15.8a2 2 0 0 0-1.7.2L76.7 89l-23.2 12.4a3.8 3.8 0 0 0-1.2 1l-.6.8-3.2-1.8.8-1 .2-.1.8-.6 23.3-12.4 135.7-73a1.8 1.8 0 0 1 1.8-.1l3 1.6Z"/><path fill="#fff" d="M214.2 15.8a2 2 0 0 0-1.7.2L76.7 89l-23.2 12.4a3.8 3.8 0 0 0-1.2 1l-.6.8-3.2-1.8.8-1 .2-.1.8-.6 23.3-12.4 135.7-73a1.8 1.8 0 0 1 1.8-.1l3 1.6Z" opacity=".4"/><path fill="#33907C" d="M51.7 103.1c-.4.7-.7 1.5-.7 2.4V116l-3.2-1.7v-10.6c0-.9.3-1.7.7-2.4l3.2 1.7Z"/><path fill="#000" d="M51.7 103.1c-.4.7-.7 1.5-.7 2.4V116l-3.2-1.7v-10.6c0-.9.3-1.7.7-2.4l3.2 1.7Z" opacity=".2"/><path fill="#455A64" d="M137.9 76.6 204.4 41c.9-.5 1.6-.1 1.6.8v41c0 .5-.2 1-.5 1.5-.3.4-.6.8-1 1L137.8 121c-.9.5-1.6.1-1.6-.8v-41c0-.6.2-1 .5-1.5.3-.4.6-.8 1-1Z"/><path fill="#33907C" d="m142 89 18.6-10c.3-.3.6-.1.6.3v12c0 .2 0 .4-.2.6 0 .2-.2.3-.4.5l-18.6 10c-.4.2-.7 0-.7-.4V90c0-.2 0-.4.2-.6 0-.2.3-.4.5-.5Z"/><path fill="#455A64" d="M143.9 100.3h-.2v-.2l-.1-.1-.1-.3-.2-.2a.6.6 0 0 0-.6 0 .3.3 0 0 1-.3 0l-.2-.1v-8.6l.2-.1.5-.5c.2-.2.2-.5.2-.7v-.2h.2l15.2-8.3a.3.3 0 0 1 .4.1v.2l.1.3.2.2a.6.6 0 0 0 .7 0 .3.3 0 0 1 .4 0v8.7h-.1l-.6.6-.2.7v.2h-.2l-15.2 8.2h-.1Zm-1-1.5c.3 0 .5 0 .7.2l.5.5 14.7-7.9c0-.3.1-.5.3-.8.1-.3.3-.5.6-.6v-7.8l-.8-.1c-.2-.2-.4-.3-.5-.6l-14.7 8c0 .2 0 .5-.2.7a2 2 0 0 1-.7.7v7.7h.2Z"/><path fill="#455A64" d="M150 94.2c-.3 0-.6 0-.8-.2-.4-.2-.6-.5-.8-.8a2 2 0 0 1-.2-1.1 6.2 6.2 0 0 1 2.9-4.7 2.1 2.1 0 0 1 2.2-.2c.4.2.7.5.9.8.1.4.2.8.1 1.1 0 1-.3 1.9-.8 2.7-.5.8-1.2 1.5-2 2a3 3 0 0 1-1.5.4Zm2.5-6.6c-.4 0-.8.1-1 .3-.8.5-1.5 1-2 1.8-.4.7-.6 1.6-.7 2.4v.8c.2.3.4.5.7.6a1.5 1.5 0 0 0 1.6-.2c.8-.4 1.4-1 1.8-1.8a5 5 0 0 0 .8-2.4l-.1-.7-.5-.7-.6-.1Z"/><path fill="#33907C" d="M174.3 69.2v.7l-.8.4V73.6l-.4.2h-.1v-3.2l-.7.4h-.1v-.7l2-1ZM175.3 69.6h.7l.2.3a1.3 1.3 0 0 1 0 .6v.4a2.3 2.3 0 0 1-.2 1l-.3.5-.4.3-.4.1h-.3l-.2-.4a1.4 1.4 0 0 1-.1-.5v-.5a2.5 2.5 0 0 1 .6-1.5l.4-.3Zm.5 1v-.2l-.2-.1h-.2a.7.7 0 0 0-.3.1l-.1.2a1 1 0 0 0-.2.6v.8h.2c0 .1 0 .1.1 0H175.4l.2-.3.2-.5v-.5ZM177.4 70.4l.1.3h.3l.2-.2h.1v.6l-.1.1-.3.2h-.6c-.1 0-.2-.3-.2-.7v-1.2l-.2.1h-.1V69l.3-.2v-1l.1-.1.3-.2h.1v1.1l.6-.3V69l-.6.3v1.2ZM178.5 68.7a1.8 1.8 0 0 1 .5-1l.3-.3h.7l.2.3V70l-.4.2h-.1v-.3l-.2.5a1.2 1.2 0 0 1-.8.4h-.2l-.1-.3v-.3l.1-.7.5-.6.7-.5-.1-.3a.3.3 0 0 0-.3 0l-.1.2-.1.1-.1.1-.4.3h-.1v-.1Zm.6 1.3a1 1 0 0 0 .5-.5V69l-.4.4-.3.2v.4h.2ZM181.3 69.3v.1l-.1.1-.3.2h-.1v-4.1l.4-.2v3.9ZM183.7 65.8l-.4.4v2.2h-.2l-.3.2V65.6l.3-.2h.1v.2l.3-.3.3-.3h.2v.6l-.3.1ZM184.3 66.4v-.7a2.7 2.7 0 0 1 .5-1l.4-.4c.2 0 .3-.1.4 0h.3l.2.4.1.5v.5l-1.4.7v.2l.1.1h.4a.8.8 0 0 0 .3-.3v-.1h.1l.4-.3v.4a2 2 0 0 1-.8 1h-.4a.5.5 0 0 1-.3 0 .8.8 0 0 1-.2-.5l-.1-.5Zm1-1.4a.9.9 0 0 0-.4.3v.2l-.1.2.9-.4V65l-.1-.1-.1-.1h-.3ZM187.3 66.2V66l-.9-2.2v-.2h.1l.3-.2h.1l.6 1.5.5-2v-.1l.2-.1.2-.2h.1v.1l-.7 3.1v.1l-.2.1-.2.2h-.1ZM188.7 64v-.7a2.7 2.7 0 0 1 .6-1l.4-.4.4-.1.3.1.2.4v.9l-1.4.8v.2l.2.1H189.7l.2-.2.1-.1.1-.1v-.1l.4-.2h.1v.4l-.2.3-.3.4-.4.2-.4.2h-.2l-.1-.2a.9.9 0 0 1-.2-.4V64Zm1-1.4-.2.1a1 1 0 0 0-.2.4v.2l.8-.5V62.5h-.4ZM193 63v.1l-.3.2h-.1v-1.5c0-.2 0-.4-.2-.5h-.3c-.2 0-.3.2-.3.4l-.2.6V63.9l-.4.2v-2.9l.3-.3h.1V61.2l.3-.4.3-.3.4-.1a.4.4 0 0 1 .3.2l.1.3v2ZM193.6 60v-.2l.4-.2v1.6l.2.5h.3l.4-.4V59h.2l.3-.3V61.8l-.3.2h-.1v-.2l-.3.3-.3.3-.4.1h-.1l-.2-.1a1 1 0 0 1 0-.4l-.1-.5V60ZM196 60v-.6a2.7 2.7 0 0 1 .5-1l.4-.4h.7l.2.4v1l-1.4.7v.2l.2.2h.1l.2-.1s.2 0 .2-.2l.1-.1.1-.1.4-.3.1.1v.3l-.2.3-.3.4-.4.3h-.4a.4.4 0 0 1-.3 0 .9.9 0 0 1-.2-.5v-.5Zm.9-1.3-.2.1-.1.2-.1.2v.2l.8-.4V58.7a.2.2 0 0 0-.2 0h-.2Z"/><path fill="#FAFAFA" d="M188.5 85v1l-.3.1c-.1 0-.1 0 0 0v-.9l-.7.3V85l.6-.3v-1l.3-.1h.1v.9l.6-.3v.5l-.6.3ZM190.7 81.7v.6l-.8 2.9v.1l-.3.2v-.1l.7-2.9-1 .6h-.1v-.6l1.5-.8ZM191.2 84v.6l-.3.2V84l.3-.2ZM193.3 81.5v1.3l-.2.5-.2.4-.4.3-.4.1a.4.4 0 0 1-.3-.1l-.1-.3v-1.8l.1-.5.3-.4.4-.3.4-.1h.1l.1.1.2.3v.5ZM192 83l.1.4c.1.1.2.1.4 0l.3-.3V81.3h-.3c-.2 0-.3.2-.4.3V83ZM193.8 80.1V80l1.3-.7v.6l-.9.5v.6l.1-.2h.2l.3-.2.3.1.2.2v.5a2.1 2.1 0 0 1-.2 1l-.3.3-.3.2-.4.1h-.3l-.1-.2v-.5l.2-.1h.1l.1.2h.4l.2-.4a1 1 0 0 0 .1-.6v-.1H194.4a.8.8 0 0 0-.3.2l-.1.1-.3.2V80ZM196 78.8h.3a.2.2 0 0 1 .1 0l.1.1v.7a1 1 0 0 1 0 .5l-.2.2-.2.1-.2.1h-.2v-.2l-.1-.2v-.7a1.1 1.1 0 0 1 .3-.5l.2-.1Zm1.3-.6.1-.1.2-.1h.1l-1.6 3.9v.1l-.3.1 1.5-3.9Zm-1 1.5v-.4l-.1-.1h-.1l-.2.1v.8h.2v-.2l.1-.2Zm1.2 0 .2-.1a.2.2 0 0 1 .1 0l.1.2v.7a1 1 0 0 1 0 .4.8.8 0 0 1-.4.4h-.4v-.1l-.1-.2v-.7l.1-.3.2-.2.1-.1Zm.1 1V80H197.3a.6.6 0 0 0 0 .4v.4h.2v-.1l.1-.2Z"/><path fill="#33907C" d="M172.2 79.2h.6l.4.2a1.2 1.2 0 0 1 .4 1v.1l-.1.1-1 .5H172.2l-.2-.1h-.2l-.3.1-.2.2a1.2 1.2 0 0 0-.4.4v.3c-.1 0 0 .2 0 .2a.3.3 0 0 0 .2.1h.4l.7-.2.7-.1c.2 0 .3 0 .5.2l.3.4V84.3l-.4.8a4 4 0 0 1-1.1 1.3v1l-.2.1-1 .5h-.1V87h-.7a1 1 0 0 1-.7-.6l-.2-.6v-.2l.2-.1 1-.5H170.9l.1.2h.3l.4-.1.6-.5.2-.2V84h-.8l-.7.2a1.1 1.1 0 0 1-1-.2c-.4-.4-.5-.8-.4-1.2V82a4.1 4.1 0 0 1 1.3-2v-.8l.1-.3.1-.1 1-.5a.1.1 0 0 1 .1 0v.9ZM174.1 80.5V80l1.6-2.5.1-.2.2-.2.9-.5h.1v.1l.1.1v6.9l-.2.1-1 .5h-.1v-4.6l-.9 1.4-.1.1h-.1l-.6-.7ZM178.5 82.7v-.1l1.6-6-2.2 1.1a.2.2 0 0 1-.1-.2v-1.3l.1-.1 3.5-1.9a.1.1 0 0 1 .1 0V76l-1.6 6v.3l-.2.1-1 .6h-.1a.2.2 0 0 1 0-.2ZM181.8 79.7l.1-.3.2-.3 1-.4v.2l-.5 2.3v.3l-.3.2-.5.3a.1.1 0 0 1-.1 0 .2.2 0 0 1 0-.1l.1-2.2ZM185 77.3l.2.2h.1l.2.1h.3a1.4 1.4 0 0 0 .5-.6 1.4 1.4 0 0 0 .3-.8.5.5 0 0 0-.2-.5l-.6.1-.1.1-.2.2-.2.2-1.2.7a.1.1 0 0 1-.1 0v-.2l.1-3.8.1-.2.1-.2 3.1-1.6a.1.1 0 0 1 .1 0 .2.2 0 0 1 0 .1v1.1c.1.1 0 .2 0 .2v.2l-2.2 1.1v1a2.6 2.6 0 0 1 .6-.6l.8-.3c.2 0 .4 0 .6.2.2.1.4.3.4.5l.2 1a4.2 4.2 0 0 1-2.1 3.7l-.9.3a1 1 0 0 1-.6-.2 1 1 0 0 1-.4-.5l-.2-.7V78l.2-.1.9-.5a.2.2 0 0 1 .2 0ZM190.6 69.2c.3-.2.6-.3 1-.3.2 0 .4 0 .6.2.2.2.3.5.3.7l.2 1v1.9a6.1 6.1 0 0 1-.5 2.2l-.6 1-1 .7-.9.2a1 1 0 0 1-.6-.2l-.4-.7a4 4 0 0 1-.1-1V73a6.1 6.1 0 0 1 .5-2.2l.6-1c.3-.2.6-.5 1-.6Zm.8 4.1v-2.1l-.2-.3v-.1H190.5l-.3.3-.3.4v.4l-.1.5v2.2l.1.3h.1l.2.1h.3a1.3 1.3 0 0 0 .6-.7l.1-.5.1-.5ZM195.6 66.5c.2-.2.6-.3.9-.3l.6.3.4.7.1 1V70a6.1 6.1 0 0 1-.5 2.2l-.6 1-1 .7c-.2.2-.5.3-.9.3a1 1 0 0 1-.6-.3l-.4-.7-.1-1v-1.8l.1-1.1.4-1.1.6-1 1-.7Zm.7 4.2v-2.2l-.1-.3a.3.3 0 0 0-.3-.1h-.3l-.4.3-.2.4-.2.5v2.6l.2.3v.1H195.7l.3-.3.3-.4v-.4l.1-.5ZM184.1 88.2l1.3-3.3 1.2 2-2.5 1.3ZM60.5 118.2l67.3-36.1c.8-.5 1.5-.1 1.5.8v41c0 .6-.2 1-.4 1.5-.3.4-.7.8-1.1 1l-67.3 36.2c-.8.5-1.5.1-1.5-.8v-41c0-.6.2-1 .4-1.5.3-.4.7-.8 1.1-1Z"/><path fill="#FAFAFA" d="m67.2 128.9 21-11.3c.4-.2.7 0 .7.4v14.8c0 .2 0 .5-.2.7l-.5.5-21 11.3c-.4.2-.7 0-.7-.4V130c0-.3 0-.5.2-.7l.5-.5Z"/><path fill="#455A64" d="m66.5 136.4 22.4-12v-4.8l-22.4 12v4.8ZM87.4 130.4v2.2l-.3.1L85 134l-.3-.1v-2l.1-.2.2-.1 2.1-1.2.3.1Z"/><path fill="#fff" d="M87.8 130.7v-.1l-3.5 2 3.5-1.9Z"/><path fill="#fff" d="M86.4 132.4h.1v-1 1ZM85.6 132.9l.1-.1v-1l-.1.1v1Z"/><path fill="#fff" d="M87.8 131.7v-.1l-3.5 1.9v.1l3.5-1.9Z"/><path fill="#EBEBEB" d="m75.2 128.2-6 3.3c-.2 0-.3.2-.4.4l-.2.5v.5c0 .4.2.5.6.3l6-3.2.4-.4.2-.5v-.5c0-.4-.3-.5-.6-.4Z"/><path fill="#455A64" d="M68.5 136.7c.2 0 .3 0 .3.2v1l-.2.1c-.2.1-.3 0-.3-.1v-1l.2-.2ZM69.6 136.2c.2-.1.3 0 .3.1v.8l-.1.2-.2.2s-.2 0-.2-.2v-1l.2-.1ZM70.7 135.6c.1-.1.2 0 .2.1v1l-.2.2s-.2 0-.2-.2v-1l.2-.1ZM71.8 135l.2.1v1l-.2.2c-.1 0-.2 0-.2-.2V135.2l.2-.2ZM73.6 134c.2 0 .3 0 .3.2v.7a.5.5 0 0 1-.3.4l-.2-.1v-1l.2-.2ZM74.7 133.4c.1 0 .2 0 .2.2V134.5l-.2.2-.2-.1v-.8a.4.4 0 0 1 .2-.4ZM75.8 132.8c.1 0 .2 0 .2.2v1l-.2.1c-.1.1-.2 0-.2-.1v-1l.2-.2ZM76.9 132.3c.1-.1.2 0 .2.1v1l-.2.2c-.1 0-.2 0-.2-.2v-1l.2-.1ZM78.7 131.3l.2.1V132.3l-.2.2-.2-.1v-.8a.4.4 0 0 1 .2-.3ZM79.8 130.7l.2.1v1l-.2.1c-.1.1-.2 0-.2 0v-.9a.5.5 0 0 1 .2-.3ZM80.9 130.1c.1 0 .2 0 .2.2V131.2l-.2.2c-.1 0-.2 0-.2-.2V130.3l.2-.2ZM82 129.5c.1 0 .2 0 .2.2V130.6l-.2.2-.3-.1v-.8l.1-.2.2-.2ZM83.8 128.5c.1 0 .2 0 .2.2V129.6l-.2.2-.2-.1v-1l.2-.2ZM84.9 128c.1-.1.2 0 .2.1v1l-.2.1c-.1.1-.2 0-.2-.1v-1l.2-.1ZM86 127.4c.1-.1.2 0 .2.1v1l-.2.2c-.2 0-.3 0-.3-.2v-.8l.1-.2.2-.1ZM87 126.8l.3.1v1l-.2.2c-.2 0-.3 0-.3-.2v-.7l.1-.3.2-.1Z"/><path fill="#E0E0E0" d="m70.4 138.7.9-.5.2.1v.3l-.1.2h-.1l-.9.5c-.1.1-.2 0-.2 0v-.5l.2-.1ZM68.5 139.7l.9-.5.2.1v.5h-.2l-.9.6s-.2 0-.2-.2v-.4l.2-.1ZM79.3 135.6l-10.6 5.7-.3.2v.6c0 .2 0 .3.3.2l10.6-5.7.2-.3.1-.3v-.3c0-.1-.1-.2-.3-.1Z"/><path fill="#455A64" d="M95.5 112.9h-.1l-1-1.7V113.5l-.4.2V110l.3-.2h.1l1 1.7v-2.2l.1-.1.3-.2a.1.1 0 0 1 0 .1v3.5l-.3.2ZM96.4 109.9v-.2l.3-.2h.1V111l.1.5h.3l.3-.4.1-.6V109l.3-.1h.1v2.6l-.3.2h-.1v-.2l-.2.3-.3.3h-.6l-.1-.4V109.9ZM99 108.5l.3-.3.2-.2a.5.5 0 0 1 .4 0h.1l.1.1.1-.2a1.5 1.5 0 0 1 .3-.4l.2-.1.4-.1.2.1v.3l.1.5v1.5l-.3.2h-.1v-1.5l-.1-.4h-.3l-.2.3-.1.5v1.5h-.1l-.3.2V109l-.2-.5h-.2l-.3.3-.1.6v1.5l-.3.2h-.1v-2.7l.3-.2h.1v.2ZM103 106.2l.2-.1.3.1.1.3.1.4v.9l-.2.5-.3.4-.3.2-.2.1H102.4v.2l-.4.2v-3.7l.3-.1v1.2a1.6 1.6 0 0 1 .3-.3l.1-.2.2-.1Zm.2 1-.1-.4H102.8l-.3.3-.1.5v.2a1.5 1.5 0 0 0 0 .4l.1.2a.3.3 0 0 0 .3 0l.3-.3.1-.6v-.3ZM104 107v-.6a2.4 2.4 0 0 1 .5-1l.4-.3h.7l.1.4v.7c.1 0 .1 0 0 0v.2l-1.2.6v.2a.2.2 0 0 0 .2 0c0 .1 0 .1 0 0h.4l.1-.2.1-.1.4-.2v.3l-.2.3-.2.3-.4.3H104.3l-.2-.4v-.5Zm1-1.3c-.2 0-.2.1-.3.2a.8.8 0 0 0-.2.3v.2l.8-.4v-.2l-.1-.1h-.3ZM107 104.6l-.3.3v2h-.1l-.3.2v-2.6l.3-.2v.2l.2-.3.3-.3h.2v.5l-.2.2ZM109.2 102.8l.4-.1h.3l.2.3v.9a2.2 2.2 0 0 1-.5 1.4l-.4.2-.3.1h-.3l-.2-.3a1.2 1.2 0 0 1 0-.5v-.4a2.3 2.3 0 0 1 .2-1l.3-.4.3-.2Zm.5.9v-.3h-.5a.8.8 0 0 0-.2.3 1 1 0 0 0-.2.5v.7h.2c0 .1 0 .1.1 0H109.4l.1-.2a1 1 0 0 0 .2-.5v-.5ZM111.2 101.8l.5-.3v.6l-.5.3v2l-.1.1-.3.1v-2l-.3.2v-.6l.2-.2V101.4l.2-.4.3-.3.2-.2.3-.1h.1v.5l-.3.2-.2.2-.1.3v.2ZM113.8 102.3v-.1h-.9l-.1-.2v-.6l.2-.4.2-.3a1.2 1.2 0 0 1 .6-.3h.3l.1.1v.2c.1 0 .1 0 0 .1v.1l-.3.2H113.5l-.2.1-.1.2v.1h.9l.2.5-.1.3a1.5 1.5 0 0 1-.4.7l-.3.2a1 1 0 0 1-.4.1h-.2l-.2-.1v-.5l.3-.1h.5l.2-.2v-.1ZM114.7 100.5v-.2l.4-.6.4-.3h.5l.2.2v2.2l-.3.1h-.1v-.2l-.2.3c-.1.2-.2.3-.4.3l-.2.1a.3.3 0 0 1-.3 0v-.2l-.1-.3c0-.2 0-.5.2-.7 0-.2.2-.3.4-.5l.6-.4v-.3H115.4l-.1.2-.1.1v.1h-.2l-.3.2h-.1Zm.6 1.2.2-.2.2-.2v-.2l.1-.3-.5.4-.2.2V101.7h.2ZM117.2 101v.2l-.4.2v-3.6l.3-.2v3.5ZM117.6 99.7a2.7 2.7 0 0 1 .2-1.2l.3-.4.4-.3H119.1l.2.4V99l-1.2.6V100h.4l.2-.2v-.1l.1-.1h.1l.3-.2v.3l-.1.3-.3.3-.4.3h-.6l-.2-.4v-.5Zm.9-1.3-.2.2-.1.1a.8.8 0 0 0-.1.4l.8-.4v-.2l-.2-.1h-.2ZM120.8 98.5h-1V98a1.3 1.3 0 0 1 .1-.7l.3-.3a1.2 1.2 0 0 1 .6-.4h.2l.2.2V97l-.3.2h-.4l-.2.2V97.8h.9v.8l-.1.4a1.6 1.6 0 0 1-.6.5l-.3.1h-.3l-.1-.1-.1-.3V99l.3-.2h.5l.2-.1V98.5Z"/><path fill="#FAFAFA" d="M110.8 125.1v1l-.3.2v-1l-.6.4v-.6l.6-.3v-1l.3-.1v.9l.6-.3v.5l-.6.3ZM111.6 123.6v-.2l.7-1.1h.1v-.1l.3-.2v3.2l-.3.2V123l-.5.8-.3-.2ZM113 122.8l.1-.1.7-1.2.1-.1.3-.1v3.2h-.3v.1-2.4l-.6.8-.2-.2ZM115 123.3v.6l-.3.2v-.7l.3-.1ZM117.1 120.8v1.4c0 .1 0 .3-.2.4a1.5 1.5 0 0 1-.6.7l-.4.2h-.2v-.2c-.2 0-.2-.2-.2-.3V121.2l.1-.4c0-.2.2-.3.3-.4l.4-.4h.6l.2.4v.4Zm-1.3 1.5c0 .2 0 .3.2.5h.3l.3-.4.1-.6v-.7l-.1-.5h-.3c-.2 0-.3.2-.3.4l-.2.5v.8ZM117.4 120.5v-.2l.7-1.1.1-.2H118.5v3.1l-.3.2v-2.4l-.5.8h-.1l-.2-.2ZM119.4 118.4h.2a.2.2 0 0 1 .1 0l.1.1v1.2l-.2.2-.2.1-.2.1h-.2v-1.3l.2-.2.2-.2Zm1.3-.6v-.1l.3-.1-1.5 3.9-.2.1-.2.1 1.6-3.9Zm-1.1 1.6V118.8h-.2l-.1.1v.8l.2-.2v-.2Zm1.2-.1H121l.1.1v1.2c-.1 0-.2 0-.2.2l-.2.1h-.4v-.1l-.1-.2v-.7l.1-.3a1 1 0 0 1 .4-.3Zm.1 1v-.6h-.2v.8l.2-.1v-.2Z"/><path fill="#455A64" d="M107.3 113.8a6.5 6.5 0 0 1-.3 1.7 7.3 7.3 0 0 1-1 2l-1.3 2.3 2.5-1.4h.2v2.1l-.2.2-5.3 2.9h-.2v-.1l-.1-.1V122a1.8 1.8 0 0 1 .3-1l3-4.7.4-1a2.6 2.6 0 0 0 .1-.8v-.3l-.4-.2-.4.1-.5.4a2 2 0 0 0-.4.9v.3a.8.8 0 0 1-.4.5l-1.3.7h-.1v-.2a6 6 0 0 1 .6-2.7l.9-1.2c.3-.4.7-.7 1.2-1l1.2-.3c.3 0 .6 0 .8.3.3.2.5.5.5.8.2.3.2.7.2 1.1ZM110.1 116.2l.2.1c0 .1 0 .2.2.2H111a2 2 0 0 0 .8-.8l.2-.5.1-.6v-.3c0-.2-.2-.3-.3-.3-.1-.2-.4-.1-.7 0a1 1 0 0 0-.3.2l-.2.3-.2.2-.1.2-1.6.8h-.2v-.2l.2-5.3.1-.4.2-.2 4.3-2.3h.2v2.1l-.2.2-3 1.6v1.3a3 3 0 0 1 2-1.2c.3 0 .6 0 .9.2.3.2.5.5.6.8l.2 1.3a6 6 0 0 1-1.8 4.3c-.3.3-.7.6-1.2.8a3 3 0 0 1-1.2.4c-.3 0-.6 0-.9-.2l-.6-.6-.2-1 .1-.3c0-.1 0-.2.2-.2l1.2-.7h.4ZM117.9 104.7c.4-.2.8-.4 1.3-.4.3 0 .6.2.9.4l.5 1 .2 1.3v2.6c0 .5 0 1-.2 1.6a6.6 6.6 0 0 1-1.4 2.9l-1.3 1c-.4.2-.8.4-1.3.4a1.4 1.4 0 0 1-.9-.4 2 2 0 0 1-.5-1c-.2-.4-.2-.9-.2-1.3v-2.6c0-.5 0-1 .2-1.6a6.7 6.7 0 0 1 1.4-2.9l1.3-1Zm1 5.8a39 39 0 0 0 0-3l-.2-.4a.4.4 0 0 0-.3-.2 1 1 0 0 0-.5.1l-.5.4a2 2 0 0 0-.3.5 3.3 3.3 0 0 0-.3 1.4 30.5 30.5 0 0 0 0 3l.3.4.1.2h.2l.5-.1.5-.4.3-.5.2-.7v-.7ZM106.5 128.3l1.2-3.4 1.3 2-2.5 1.4Z"/><path fill="#FAFAFA" d="m60.3 169.3 29.8-16c.7-.4 1.3 0 1.3.7v40c0 .5-.2 1-.4 1.3-.2.4-.5.7-1 .9l-29.7 16c-.7.4-1.3 0-1.3-.7v-40c0-.5.1-.9.4-1.3.2-.3.5-.7 1-.9Z"/><path fill="#E0E0E0" d="M61.5 187.7h-.2v-.1l-.1-.2.1-.2 27.5-14.8h.2a.3.3 0 0 1 .2.3.3.3 0 0 1 0 .2H89l-27.5 14.8h-.1Z"/><path fill="#455A64" d="M64.3 171.5v1.4a1.7 1.7 0 0 1-.4 1.2 1 1 0 0 1-.6.3h-.2l-.1-.3V172.3c-.1 0-.1 0 0 0l.3-.2v1.7h.3l.2-.3v-1.7l.1-.1.4-.2ZM65.5 170.9l.2-.1h.2l.2.2v.7l-.2.3c0 .1 0 .2-.2.3l-.2.2-.4.2V173.5l-.3.2v-2.4l.7-.4ZM65 172l.3-.1.2-.2.1-.2v-.2a.2.2 0 0 0-.2 0l-.3.2v.5ZM67.9 170.5v.8H68.3l.1-.1.1-.1V170.8h.1l.3-.2v.4l-.2.3-.2.3-.3.2-.3.1h-.2l-.2-.3V170.7a1.7 1.7 0 0 1 .4-1c0-.2.2-.3.3-.3l.3-.1h.2l.2.2v.4l-.3.2v-.1l-.1-.1h-.2l-.2.1v.2l-.1.1v.2ZM70.8 169v-.5l.2-.4.2-.3.3-.2.4-.1h.2l.1.3.1.3v.6a1.8 1.8 0 0 1-.4 1.1l-.4.3H71l-.1-.2v-1Zm1 0v-.8a.1.1 0 0 0-.1-.1h-.1l-.2.1v.2l-.1.1v1h.3l.2-.2v-.4ZM73.2 166.7h.3c0-.1.1 0 .2 0h.1l.1.3-.3.3H73V167.7h.8v.8s0 .2-.2.3l-.2.3-.3.2h-.5l-.2-.1V168.8l.3-.2H73.2l.3-.1v-.2H73a.4.4 0 0 1-.4 0v-.5a1.1 1.1 0 0 1 .1-.6 1.6 1.6 0 0 1 .5-.5ZM74.8 165.8h.5l.2.1V166.2l-.3.2h-.4l-.2.1v.2H75.5l.1.2v.6l-.2.3-.2.3-.3.2-.3.1h-.2l-.2-.2V168l.3-.2H74.8l.2-.1.1-.2h-.5a.4.4 0 0 1-.3 0l-.1-.4v-.3a1.3 1.3 0 0 1 .4-.6l.3-.3ZM77 164.7l.2-.1h.2l.2.2v.2l-.3.3h-.4l-.1.2v.1h.8v.2c.1 0 .1.1 0 .2v.4a1.4 1.4 0 0 1-1 .9h-.2l-.1-.2V166.8l.3-.2H77l.2-.1.1-.2v-.1h-.5a.4.4 0 0 1-.3 0c-.1 0-.2-.2-.1-.4a1.1 1.1 0 0 1 .1-.6 1.6 1.6 0 0 1 .5-.5ZM79.1 165.4v.5l-1.1.7V164.1l1-.6h.1v.5l-.7.4v.4l.6-.4v.5l-.6.4v.4l.7-.4ZM80.6 164.6v.5l-1 .6h-.1V163.4l.3-.2v1.8l.8-.4Z"/><path fill="#E0E0E0" d="M66 189.3v2.4l-.3.2v-.9l-.6.3v.9l-.4.2V190l.3-.2v.8l.6-.2v-1l.4-.2ZM67.7 188.4h.1v1.4a1.7 1.7 0 0 1-.2.8l-.2.3-.3.2-.3.1h-.3l-.1-.3v-1.8l.3-.2v1.4l.1.3h.2l.2-.2.1-.4v-1.4l.4-.2ZM68.8 187.8l.3-.1h.2c.1 0 .2 0 .2.2v.8l-.3.3.3.7v.1l-.3.2H69l-.3-.6h-.2v.9l-.3.2h-.1v-2.3l.6-.4Zm-.2 1.1.2-.1.2-.1v-.4a.2.2 0 0 0-.2 0l-.2.1v.5ZM70.9 189c-.1 0 0 0 0 0l-.6-.8V189.4l-.4.2v-2.4l.3-.1.6.9v-1.2l.3-.3v2.4l-.2.2ZM63.6 177.2h.5l.1.2v.7l-.3.4.4.7-.3.2-.4-.7-.3.2v.9l-.2.1c-.1 0-.1 0 0 0v-2.2c-.1 0-.1 0 0-.1l.5-.4Zm-.3 1.3.3-.2.2-.2.1-.3v-.2h-.2l-.4.2v.7ZM64.5 178.3v-.4l.1-.4.2-.3.3-.2h.4l.1.3v.5l-.8.5v.1c0 .1.1.1.2 0h.2v-.1h.1v-.1l.3-.1v.2l-.1.2-.2.2-.2.2h-.5v-.3l-.1-.3Zm.6-.9-.1.1-.1.2v.2l.5-.3v-.2a.1.1 0 0 0-.2 0h-.1ZM66.3 178.2l-.5-1.4v-.1l.2-.1.4 1 .3-1.3v-.1l.2-.1-.4 1.8v.1l-.2.2ZM67.1 176.8v-.4a1.6 1.6 0 0 1 .4-.6l.2-.2h.5v.2l.1.3V176.4l-.8.5v.2h.2l.2-.2v-.1h.1l.2-.2v.4l-.2.3-.3.1-.2.1h-.2l-.1-.3v-.4Zm.7-.8h-.2V176.4c-.1 0-.1.1 0 .2l.4-.3v-.2h-.2ZM69.8 176.2v.1h-.1l-.2.2v-1.3h-.3l-.2.3v1.3h-.1l-.2.1V175.2l.2-.2v.2l.2-.3.2-.1h.4v1.5ZM70 174.5v-.1h.1l.2-.2v1.3h.3l.2-.3V174l.1-.1.2-.1V175.5l-.2.1-.2.1-.2.2H70.2l-.2-.2v-1.3ZM71.5 174.5v-.4l.1-.3.2-.3.3-.2s.1-.1.2 0h.2l.1.2v.6l-.8.4v.2h.2l.2-.1v-.2H72.6v-.1.4l-.2.2-.3.2h-.4l-.1-.3v-.3Zm.6-.8h-.2v.2l-.1.1v.1l.5-.3v-.1H72ZM64.7 196l.2-.1h.2l.1.2.1.3v.3a1.5 1.5 0 0 1-.4.9l-.2.2h-.4l-.1-.2-.1-.3V197a1.5 1.5 0 0 1 .4-.9l.2-.2Zm.3.5v-.1h-.1v-.1h-.2l-.1.1v.1l-.2.2V197.3l.1.1h.2a.5.5 0 0 0 .2-.2v-.7ZM66.6 195.4v-.2l.1-.2.2-.2.2-.2h.4l.1.2v1.3l-.2.2v-.2l-.2.3-.2.2H66.7l-.1-.1v-.2l.1-.5.3-.3.4-.3v-.2a.2.2 0 0 0-.2 0l-.1.1v.1H67v.1l-.3.1Zm.4.7h.2v-.2l.1-.2v-.1l-.3.2-.1.1v.2h.1ZM68.3 195.7v.1l-.2.1v-2.3l.1-.2v2.3ZM63.6 200c.2-.1.4-.2.5 0a.6.6 0 0 1 .2.4 1.3 1.3 0 0 1-.4.8l.4.7v.1l-.3.2-.4-.7-.3.2v.9l-.2.1c-.1 0-.1 0 0 0v-2.3c-.1 0-.1 0 0 0l.5-.4Zm-.3 1.2.3-.1.2-.2.1-.3v-.3l-.3.1-.3.2v.6ZM64.5 200.5v-.1l.2-.2.1-.2.3-.2H65.4l.2.1V201.3l-.2.2v-.2l-.2.2a.7.7 0 0 1-.4.3h-.2v-.8l.4-.4.3-.3v-.1a.2.2 0 0 0-.2 0l-.1.2h-.1l-.2.2h-.2Zm.4.8.2-.1v-.2l.2-.1v-.2l-.4.2-.1.2v.2h.1ZM66.3 200.3v.1H66.7c.1 0 .1 0 0 0v.2c.1 0 .1 0 0 .1l-.1.2H66c0-.1-.1-.3 0-.4v-.8l-.3.1v-.3l.2-.2v-.6l.2-.2v.7l.4-.2v.4l-.3.2v.7ZM66.9 199.7l.1-.7.2-.3.3-.2h.4l.1.2v.6l-.8.5v.1h.4v-.2h.1l.3-.2v.2l-.1.2-.2.2-.2.2h-.3a.3.3 0 0 1-.2 0v-.2l-.1-.4Zm.6-.8h-.1l-.1.2V199.4l.5-.3v-.2h-.1a.3.3 0 0 0-.2 0ZM63.6 204h.5l.1.2v.7c0 .2-.2.3-.3.4l.4.7v.1l-.3.1-.4-.7-.3.2v.9l-.2.1H63V204.4l.6-.4Zm-.3 1.3.3-.2.2-.2.1-.3v-.2h-.3l-.3.2v.7ZM64.5 205v-.3l.1-.3c0-.2.1-.3.2-.3l.3-.3h.4l.1.3v.5l-.8.5v.2h.2l.2-.1v-.1h.1v-.1l.2-.1a.8.8 0 0 1 0 .4l-.2.2-.3.2h-.2a.3.3 0 0 1-.2 0l-.1-.3v-.3Zm.6-.7H65a.7.7 0 0 0-.2.3v.1l.6-.3v-.1H65ZM67.1 203.6v-.4a1.8 1.8 0 0 1 .4-.6l.2-.2h.5v.2l.1.3V203.2l-.8.5v.2h.2l.2-.2v-.1h.1l.2-.2v.4l-.2.2-.3.2h-.2a.3.3 0 0 1-.2 0l-.1-.2v-.4Zm.7-.8a.5.5 0 0 0-.2.2v.1c-.1 0-.1.1 0 .2l.4-.3v-.2a.3.3 0 0 0-.3 0ZM69.8 203v.1h-.1l-.2.2V202h-.3l-.2.2V203.6h-.1l-.2.2V202l.2-.1v.1l.2-.2.2-.2H69.6l.2.3v1.2ZM70 201.3l.1-.1.2-.1v1.2h.3l.2-.2v-1.3l.1-.1.2-.1V202.3l-.2.2v-.2l-.2.3-.2.1h-.2a.2.2 0 0 1-.2 0v-1.5ZM71.5 201.3a2 2 0 0 1 .1-.7l.2-.3.3-.2h.4l.1.2v.6l-.8.4v.2h.2l.2-.1v-.1l.1-.1.2-.1v.4a1 1 0 0 1-.5.4h-.4l-.1-.3v-.3Zm.6-.8-.2.1v.1l-.1.3.5-.3v-.2H72ZM63.4 181.4h-.2l-.1.2-.1.1v.2c-.1 0-.1.1 0 .2V182.4c-.1 0-.1.1 0 .2v.1h.2l.2-.1.1-.2V181.5a.2.2 0 0 0-.1-.1ZM66 180.6l.2-.1h.2l.1.2v.6a1.5 1.5 0 0 1-.1.7l-.2.2-.2.2h-.4l-.2-.2a.8.8 0 0 1 0-.3V181.3a1.4 1.4 0 0 1 .3-.6l.3-.1Zm.3.6v-.2h-.4l-.1.2a.7.7 0 0 0-.1.3v.5H66l.2-.2V181.2ZM67.3 179.9l.3-.2v.4l-.3.2V181.7l-.3.1v-1.3h-.2V180.2l.2-.1v-.5a1 1 0 0 1 .2-.4l.2-.1.2-.2v.4l-.1.2h-.2v.4ZM69 178.3h.5l.2.2v.2l-.1.5-.2.4.3.7v.1l-.3.1-.3-.7-.4.2v.9l-.2.1V178.7l.6-.4Zm-.3 1.3.4-.2.2-.2v-.5a.3.3 0 0 0-.2 0l-.4.3v.6ZM69.9 179.4a2 2 0 0 1 .1-.8l.2-.3.3-.2h.4l.1.3v.5l-.8.5v.2a.1.1 0 0 0 .2 0l.2-.1v-.1h.1v-.1l.2-.1h.1v.2l-.2.2-.1.2-.3.2H70.1l-.2-.3v-.3Zm.6-.8h-.1l-.1.2v.2l.5-.3v-.2H70.4ZM71.7 179.3l-.5-1.4v-.1l.2-.1.4 1 .3-1.3v-.1l.2-.1-.4 1.9-.2.2ZM72.6 178a2 2 0 0 1 .1-.8l.2-.3.3-.2h.4l.1.2v.6l-.8.5v.1h.4v-.2h.1l.2-.2v.2a1.1 1.1 0 0 1-.2.5l-.3.1-.2.1h-.2l-.1-.3v-.4Zm.6-.9-.1.1-.1.1v.3l.4-.3v-.2h-.2ZM75.5 175.6v-.1l.2-.1v1l.1.2h.2l.2-.2V175h.1l.2-.2v1.8l-.2.1v-.1l-.2.2-.2.2H75.6l-.1-.3v-1.2Z"/><path fill="#33907C" d="M85.9 171H86.3l.1-.2v-.4h-.2v.1H86v.1l-.4.2V169.3l1-.6h.1v.5l-.7.4v.3a.9.9 0 0 1 .2-.2h.5l.1.2v.7l-.1.3a1.3 1.3 0 0 1-.5.5l-.3.1h-.2l-.2-.2v-.3l.3-.2ZM87.8 168.7v.5l-.1.2-.1.2h-.2l-.2.1-.1-.1v-.9l.1-.1.2-.1h.4v.2Zm.6-.7v-.1l.2-.1-1.1 2.9-.1.1-.2.1 1.2-2.9Zm-1.1 1.2v.2a.1.1 0 0 0 .1-.1v-.5h-.1v.4Zm1.6.1v.5l-.1.2-.1.2h-.2l-.1.1h-.1l-.1-.1v-.8l.2-.2.2-.1h.2v.2Zm-.5.5v.2h.1v-.6h-.1v.4ZM80.6 168.9v-.1l.5-1h.1l.3-.2v2.4l-.3.2v-1.6l-.3.5h-.1l-.2-.2ZM82.5 167H83.1l.1.2v1a2 2 0 0 1-.1.7l-.2.4-.4.2H82l-.1-.2v-1.4l.1-.3.2-.3.3-.3Zm.3 1.4V167.6h-.4v.5a4.4 4.4 0 0 0 0 .8h.2a.6.6 0 0 0 .2-.5ZM83.5 168.4v-.1h.1l.3-.2-.2.8v.2l-.2.1v-.8ZM84.8 165.8l.3-.1h.3v.3l.1.3v.6a2 2 0 0 1-.1.8l-.3.3s-.1.2-.3.2l-.3.1h-.2l-.1-.3V167.1a2 2 0 0 1 .1-.8l.2-.3.3-.2Zm.3 1.3V166.3H84.7l-.1.2V167.7h.2v-.1l.2-.1v-.4ZM86.5 164.9l.3-.1a.3.3 0 0 1 .2 0l.1.3V166.4a1.5 1.5 0 0 1-.3.7l-.3.2-.3.1H86l-.2-.3V166.2a2 2 0 0 1 .2-.8s0-.2.2-.3l.3-.2Zm.2 1.4v-.9h-.2a.4.4 0 0 0-.2.3v1.1H86.7l.1-.2V166.3ZM88.1 164h.3a.3.3 0 0 1 .2 0l.2.2v1.3c0 .2 0 .3-.2.4 0 .1 0 .2-.2.3l-.3.3h-.5l-.1-.3V165.3a2 2 0 0 1 .1-.7l.2-.4.3-.2Zm.3 1.4V164.6a.1.1 0 0 0-.1 0H88l-.2.2a.6.6 0 0 0 0 .3V165.9h.4v-.5ZM87.1 183.3v.6l-.2.6a.3.3 0 0 1 .3 0l.1.4a1.3 1.3 0 0 1-.7 1.2h-.7v-.4l.3-.2h.4l.2-.1v-.3c-.1-.1-.2 0-.2 0h-.2v-.4l.2-.5-.6.3v-.5l1.1-.7ZM88 184.6v.1h.2v-.1l.1-.1v-.1c.1 0 .1-.1 0-.2v-.1h-.2l-.1.1-.4.3V183l1-.7h.1v.5l-.7.5v.3-.1l.2-.1.3-.1h.2l.1.2v.7c0 .2 0 .3-.2.4a1.3 1.3 0 0 1-.4.5h-.3a.3.3 0 0 1-.4-.1v-.3l.3-.3.1.1ZM85.9 189.7v.1H86.3l.1-.2v-.4h-.2l-.1.1-.4.3V188.1l1-.6h.1v.5l-.7.4v.3-.1h.2l.2-.2h.2l.2.2v.4a1.4 1.4 0 0 1-.2.7l-.2.3-.3.2h-.5l-.1-.1v-.3l.3-.2ZM87.8 187.5v.5l-.1.2-.1.1-.2.2h-.2l-.1-.2V188a1 1 0 0 1 0-.3l.1-.4h.2l.2-.1.2.1v.2Zm.6-.7v-.1l.2-.1-1.1 2.9h-.1l-.2.2 1.2-3Zm-1.1 1.2v.1h.1V187.4l-.1.1v.4Zm1.6.1v.3a.8.8 0 0 1-.2.5l-.2.2h-.2l-.1-.2v-.8l.1-.2h.2l.2-.1.1.1v.2Zm-.5.5v.1h.1V188l-.1.1v.4ZM80.3 195h.2l.2.1v.2l.1.1v.1l-.3.2H80V196h.8v1l-.2.3-.2.2V197.8l-.4.2v-.3a.4.4 0 0 1-.4 0l-.1-.2v-.2l.3-.3.1.1h.2l.3-.2v-.2h-.5a.4.4 0 0 1-.3 0c-.1-.1-.2-.3-.1-.4a1.2 1.2 0 0 1 .2-.8l.2-.2v-.3l.4-.2v.3ZM82.4 196.2l.6-2-.7.4v-.5c-.1 0-.1 0 0 0l1.1-.7V194l-.5 2v.1l-.4.2ZM83.5 195.2l.2-.2.2-.1-.1.8v.1l-.1.1h-.2v-.7ZM84.6 194.4l.1.1h.2l.1-.2.1-.1V193.9H84.7v.1h-.1l-.4.3V192.8l1-.6h.1v.5l-.7.5v.3a.9.9 0 0 1 .2-.2l.3-.1h.2l.1.2v.7l-.1.4-.3.3-.2.2h-.5l-.2-.1v-.3l.3-.3h.1ZM86.5 191.7h.5l.1.2v1.4a1.4 1.4 0 0 1-.3.6l-.3.3H86l-.2-.2v-1a2.1 2.1 0 0 1 .2-.7c0-.1 0-.3.2-.3l.3-.3Zm.2 1.4V192.3a.1.1 0 0 0-.1 0h-.2l-.1.2a.6.6 0 0 0 0 .3V193.6H86.7l.1-.2V193.1ZM88.1 190.8h.5l.2.2v1.4s0 .2-.2.3c0 .2 0 .3-.2.4l-.3.2h-.5l-.1-.2v-1a2 2 0 0 1 .3-1l.3-.3Zm.3 1.4V191.4h-.1a.2.2 0 0 0-.2 0l-.2.2a.5.5 0 0 0 0 .3V192.7h.2a.5.5 0 0 0 .2-.2V192.2Z"/><path fill="#FAFAFA" d="M96.4 151.3v40c0 .9.6 1.2 1.3.8l69.7-37.5c.4-.2.7-.5 1-.9l.3-1.2v-40c0-.8-.6-1.2-1.3-.8l-69.7 37.5c-.4.2-.7.5-1 .9l-.3 1.2Z"/><path fill="#455A64" d="m102.2 151 .3-.1h.2l.2.1V151.3l-.3.2h-.4v.1h-.1V152h.8v.2l.1.2v.4l-.2.3a1.7 1.7 0 0 1-.5.5h-.6l-.1-.1V153l.3-.2H102.3l.2-.1.1-.2c0-.1 0-.1-.1 0h-.4a.4.4 0 0 1-.4 0v-.8a1.4 1.4 0 0 1 .3-.6l.3-.3ZM104 150h.1l.6 2-.4.2-.1-.3-.6.4v.3l-.2.1-.3.2v-.1l.5-2.4v-.1l.1-.1.4-.2Zm-.3 1.7.4-.2-.2-.7-.2.9ZM106 150.8h.1v.5l-1.1.6c-.1 0-.1 0 0 0v-2.3c-.1 0-.1 0 0 0v-.1l.3-.2v1.8l.8-.3ZM108.5 147.6l.3-.1h.2l.1.2v.2c.1 0 .1 0 0 0l-.3.2H108.4v.1h-.1v.2c-.1 0-.1 0 0 0v.1h.8v.8a1.3 1.3 0 0 1-.4.6l-.3.2h-.5l-.2-.1V149.7l.4-.2H108.5l.2-.1.1-.2h-.5a.4.4 0 0 1-.3 0l-.2-.5v-.3l.2-.3.2-.3.3-.2ZM110.7 146.4h.5l.1.1v.8l-.2.4.3.7-.4.3-.3-.6h-.2v.9l-.4.2v-2.4l.6-.4Zm-.3 1.2.3-.1.2-.2v-.4h-.2l-.3.2v.5ZM112.9 147.1v.5l-1.2.7v-2.4l1.2-.6v.5l-.8.4v.4l.7-.4v.6l-.7.4v.3l.8-.4ZM113.7 147.2h-.1l-.5-2 .3-.2c.1 0 .1 0 0 0l.4 1.3.4-1.7v-.1l.3-.2v.1l-.4 2.4v.1l-.1.1-.3.2ZM117.5 145.2l-.6-1v1.3l-.4.2V143.4l.3-.2.6.9V142.9l.4-.2V145l-.3.2ZM119.5 141.7V143.5a1.5 1.5 0 0 1-.7 1h-.3a.3.3 0 0 1-.2 0l-.1-.2-.1-.4v-1.5l.4-.2v1.7h.3l.2-.2V141.9h.1l.4-.2Z"/><path fill="#E0E0E0" d="m102.5 157.6 4.3-2.3c.7-.3 1.2 0 1.2.6 0 .4-.1.7-.3 1-.2.4-.5.6-.9.8l-4.3 2.3c-.6.4-1.1.1-1.1-.6 0-.3.1-.7.3-1l.8-.8ZM102.5 164.8l4.3-2.3c.7-.4 1.2-.1 1.2.6 0 .3-.1.7-.3 1-.2.3-.5.6-.9.8l-4.3 2.3c-.6.3-1.1 0-1.1-.6 0-.4.1-.7.3-1 .2-.4.5-.6.8-.8ZM102.5 172l4.3-2.4c.7-.3 1.2 0 1.2.6 0 .4-.1.7-.3 1-.2.4-.5.7-.9.9l-4.3 2.2c-.6.4-1.1.1-1.1-.5 0-.4.1-.8.3-1 .2-.4.5-.7.8-.9ZM102.5 179l4.3-2.2c.7-.4 1.2-.1 1.2.6 0 .3-.1.7-.3 1-.2.3-.5.6-.9.8l-4.3 2.3c-.6.3-1.1 0-1.1-.6 0-.4.1-.7.3-1 .2-.4.5-.6.8-.8ZM110.2 177.6a.3.3 0 0 1-.2-.1v-.2l.1-.2 53.5-28.8h.2l.1.1a.2.2 0 0 1 0 .4l-53.5 28.7h-.2ZM110.2 170.5l-.2-.2v-.2l.1-.1 53.5-28.8h.2l.1.1a.2.2 0 0 1 0 .3l-53.5 28.8h-.2ZM110.2 163.3l-.2-.1v-.2l.1-.2 53.5-28.8a.3.3 0 0 1 .3 0v.1l.1.2-.1.2-53.5 28.8h-.2ZM110.2 156.2l-.2-.2a.2.2 0 0 1 .1-.3l53.5-28.8h.2l.1.1a.2.2 0 0 1 0 .3l-53.5 28.9h-.2Z"/><path fill="#33907C" d="M111.3 176.7v-7l5-3.7 6.2-3.4 3.8-4.7 6.3-3.3 3.7-4.7 12.5-6.7 5-4.3 5-6.4 5-3.9v20l-52.5 28Z"/><path fill="#33907C" d="M111.3 176.7v-5.3l6.7-3.7 5.8-4.4 6.2-3.3 6.3-4.7 6.2-3.4 3.8-4.7 6.4-3.4 3.6-4.6 4.5-5.2 3-1.5v16l-52.5 28.2Z"/><path fill="#000" d="M111.3 176.7v-5.3l6.7-3.7 5.8-4.4 6.2-3.3 6.3-4.7 6.2-3.4 3.8-4.7 6.4-3.4 3.6-4.6 4.5-5.2 3-1.5v16l-52.5 28.2Z" opacity=".1"/><path fill="#FAFAFA" d="m175 107.6 29.8-16c.7-.4 1.3-.1 1.3.7v40c0 .5-.1.9-.4 1.3l-.9.9-29.8 16c-.7.4-1.3 0-1.3-.7v-40c0-.5.2-1 .4-1.3.2-.4.6-.7 1-1Z"/><path fill="#33907C" d="m185.5 128.8-1.8 4a8 8 0 0 0 5.8-.7v-3.9c-1.2.7-2.6.9-4 .6ZM189.5 108.2v-3.9a19.8 19.8 0 0 0-5.8 5.6l1.8 2.1c1-1.5 2.4-2.8 4-3.8ZM195 123l1.8 2.2a27 27 0 0 0 3.6-8.1l-3 .4c-.5 2-1.3 3.9-2.4 5.6ZM184.9 113l-1.9-2.2a27 27 0 0 0-3.6 8.1l3-.4c.5-2 1.3-3.9 2.5-5.6ZM181.9 122.3c0-.9 0-1.8.2-2.7l-3 .4c-.2 1.3-.4 2.7-.4 4 0 1.2.2 2.4.5 3.6l3-2.8c-.3-.8-.3-1.6-.3-2.5ZM182.4 125.6l-3 2.8c.7 2 2 3.5 3.6 4.2l1.9-4c-.6-.4-1.2-.8-1.6-1.3-.4-.5-.8-1-1-1.7ZM190.3 127.8v3.9c2.4-1.5 4.4-3.4 5.9-5.6l-1.8-2.1c-1.1 1.5-2.5 2.8-4 3.8Z"/><path fill="#33907C" d="m185.5 112-1.8-2.1-.7.9 1.9 2.1.6-.9ZM182.4 118.5l-3 .4-.2 1 3-.3c0-.4 0-.7.2-1ZM182.1 124.8l-3 2.8.3.8 3-2.8-.3-.8ZM190.3 107.8v-3.9a8 8 0 0 1 5.9-.8l-1.8 4.1a5.8 5.8 0 0 0-4 .6ZM195 107.5l1.8-4.1c1.6.7 3 2.1 3.6 4.2l-3 2.8c-.1-.6-.4-1.2-.9-1.7-.4-.5-1-1-1.5-1.2ZM198 113.7c0-.9-.1-1.7-.3-2.5l3-2.8a20.1 20.1 0 0 1 0 7.7l-3 .4.3-2.8Z"/><path fill="#33907C" d="m194.3 107.2 1.9-4c.2 0 .4 0 .6.2l-1.8 4c-.2 0-.5 0-.7-.2ZM197.5 110.4l3-2.8c0 .2 0 .5.2.8l-3 2.8-.2-.8ZM197.7 116.5l3-.4-.3 1-3 .4c.2-.3.2-.7.3-1ZM184.9 128.5l-1.9 4.1.6.3 1.9-4.1-.6-.3ZM190 128l-.5.2v3.9l.4-.2.4-.2v-4c-.1.2-.2.3-.4.3ZM190 108l-.5.2v-3.9l.4-.2.4-.2v3.9l-.4.2ZM194.3 124l1.9 2.1.6-.9-1.8-2.1-.7.9Z"/><g fill="#000" opacity=".3"><path d="m185.5 128.8-1.8 4a8 8 0 0 0 5.8-.7v-3.9c-1.2.7-2.6.9-4 .6ZM189.5 108.2v-3.9a19.8 19.8 0 0 0-5.8 5.6l1.8 2.1c1-1.5 2.4-2.8 4-3.8ZM195 123l1.8 2.2a27 27 0 0 0 3.6-8.1l-3 .4c-.5 2-1.3 3.9-2.4 5.6ZM184.9 113l-1.9-2.2a27 27 0 0 0-3.6 8.1l3-.4c.5-2 1.3-3.9 2.5-5.6ZM181.9 122.3c0-.9 0-1.8.2-2.7l-3 .4c-.2 1.3-.4 2.7-.4 4 0 1.2.2 2.4.5 3.6l3-2.8c-.3-.8-.3-1.6-.3-2.5ZM182.4 125.6l-3 2.8c.7 2 2 3.5 3.6 4.2l1.9-4c-.6-.4-1.2-.8-1.6-1.3-.4-.5-.8-1-1-1.7ZM190.3 127.8v3.9c2.4-1.5 4.4-3.4 5.9-5.6l-1.8-2.1c-1.1 1.5-2.5 2.8-4 3.8Z" opacity=".3"/><path d="m185.5 112-1.8-2.1-.7.9 1.9 2.1.6-.9ZM182.4 118.5l-3 .4-.2 1 3-.3c0-.4 0-.7.2-1ZM182.1 124.8l-3 2.8.3.8 3-2.8-.3-.8ZM184.9 128.5l-1.9 4.1.6.3 1.9-4.1-.6-.3ZM190 128l-.5.2v3.9l.4-.2.4-.2v-4c-.1.2-.2.3-.4.3ZM190 108l-.5.2v-3.9l.4-.2.4-.2v3.9l-.4.2ZM194.3 124l1.9 2.1.6-.9-1.8-2.1-.7.9Z" opacity=".3"/></g><path fill="#455A64" d="m185.6 123.2 1-4.4-1.5.9-.1-.2v-.9l.1-.1 2.5-1.3h.1V118.5l-1.2 4.3v.1l-.1.1-.7.4h-.1ZM189.6 116l.7-.2h.3l.2.2.2.5.1.7V119.3a3.3 3.3 0 0 1-.8 1.5l-.7.5-.6.2a.7.7 0 0 1-.5-.2 1 1 0 0 1-.3-.5v-2.9a3.4 3.4 0 0 1 .8-1.4l.6-.5Zm.6 3v-1.6l-.1-.2h-.1l-.1-.1h-.3a.9.9 0 0 0-.4.5v.3l-.1.4v1.8h.5l.3-.2.1-.3.1-.3v-.3ZM193.2 115.2v1a1.7 1.7 0 0 1-.5.7l-.3.3-.4.1h-.2c0-.2-.1-.2-.2-.3v-.7a2.8 2.8 0 0 1 0-.7 1.6 1.6 0 0 1 .4-.8l.4-.2.3-.2.3.1.1.3v.4Zm1.3-1.6v-.1l.2-.1.4-.3.1.1v.1l-2.5 6.1-.1.2h-.1l-.4.3h-.1v-.1l2.5-6.2Zm-2.3 2.6v.3h.2l.2-.2v-1.1h-.2l-.2.2v.8Zm3.4.2a4.2 4.2 0 0 1 0 1l-.2.5-.3.3-.3.3-.4.1h-.2c0-.2-.1-.2-.2-.3v-1a2.1 2.1 0 0 1 .2-.8l.2-.4.4-.3h.3a.4.4 0 0 1 .3 0l.1.3v.3Zm-1 1.1v.3h.2l.1-.2v-1.1h-.1l-.2.2v.8Z"/><path fill="#33907C" d="m178.7 141.8 2.5-1.3v2.7l-2.5 1.3v-2.7ZM192.4 134.5l2.5-1.4v2.7l-2.5 1.3v-2.6Z"/><path fill="#000" d="m192.4 134.5 2.5-1.4v2.7l-2.5 1.3v-2.6Z" opacity=".3"/><path fill="#E0E0E0" d="m183 140.1 6.3-3.3c.3-.2.6 0 .6.3 0 .2 0 .4-.2.6 0 .2-.3.4-.4.5l-6.2 3.3c-.3.2-.7 0-.7-.3l.2-.6.5-.5ZM196.8 132.8l6.2-3.3c.3-.2.6 0 .6.3 0 .2 0 .4-.2.6l-.4.4-6.2 3.3c-.4.2-.7 0-.7-.3l.2-.6.5-.4Z"/><path fill="#455A64" d="M195.6 29.7h-.2l-.1-.1v-.2l.1-.2 5.2-2.8a.3.3 0 0 1 .3 0 .3.3 0 0 1 .2 0v.2a.3.3 0 0 1 0 .2h-.1l-5.3 3h-.1ZM195.6 32l-.2-.1-.1-.1v-.3l.1-.1 5.2-2.9h.3a.3.3 0 0 1 .2.3v.2h-.1l-5.3 2.9h-.1ZM195.6 34h-.2a.3.3 0 0 1-.1-.2v-.2l.1-.1 5.2-2.8h.5a.3.3 0 0 1 0 .4l-.1.1-5.3 2.8h-.1ZM209.5 26.6l-.2-.1-3-2.7-.2-.3.1-.2.3-.1h.3l3 2.8a.3.3 0 0 1 0 .5H209.5Z"/><path fill="#455A64" d="M206.5 28.2h-.2l-.2-.2v-.3l3-6a.4.4 0 0 1 .3-.1.4.4 0 0 1 .3 0l.2.2v.2l-3 6-.2.2h-.2Z"/><path fill="#FAFAFA" d="M188.5 35.5c0 1-.4 2-1 3-.5.8-1.3 1.6-2.3 2.1L139 65.5c-1.8 1-3.3.3-3.3-1.6.1-1 .4-2 1-3 .6-.8 1.4-1.6 2.3-2.1l46.2-24.9c1.9-1 3.3-.3 3.3 1.6Z" opacity=".6"/><path fill="#FAFAFA" d="M137.5 66.2c-.4 0-.8 0-1-.2l-1-1-.2-1.1c0-2 1.6-4.4 3.5-5.5L185 33.6c1.1-.6 2-.7 2.8-.3l1 1c.1.3.2.7.1 1.2 0 1-.4 2.1-1 3-.6 1-1.5 1.8-2.5 2.4l-46.2 24.8c-.5.3-1.1.5-1.7.5Zm49.3-32.4a3 3 0 0 0-1.4.4L139.2 59c-.9.6-1.6 1.3-2.1 2.1a6 6 0 0 0-1 2.8l.1.8.6.6a2.2 2.2 0 0 0 2-.2L185 40.3c1-.6 1.7-1.3 2.2-2.1a6 6 0 0 0 1-2.7c0-.3 0-.6-.2-.9l-.5-.6-.7-.2Z"/><path fill="#FAFAFA" d="m186 38.3-.7-.2v-.9c.1-.2 0-.5 0-.8l-.6-.6a1.1 1.1 0 0 0-1 0c-.9.5-1.5 1.7-1.5 2.9l.1.8.5.6.5.2.6-.2a3 3 0 0 0 1.2-1.5l.8.2h.2v-.2c.1 0 0-.1 0-.2h-.1Zm-2.4 1.3a.5.5 0 0 1-.5 0c-.1 0-.3-.2-.3-.4v-.5c0-.5 0-1 .2-1.4.2-.4.5-.8 1-1l.2-.1h.2c.2.1.3.3.3.5l.1.5c0 .4 0 .9-.3 1.3-.2.4-.5.8-.9 1.1Z"/><path fill="#33907C" d="M128.7 210.4c-1-1.4-2.4-2.5-4-3.3a27.5 27.5 0 0 0-23.2 0c-1.6.8-3 2-4 3.3h-.8v3.2c.1 2.1 1.7 4.3 4.8 6a27.5 27.5 0 0 0 23.2 0c3-1.7 4.7-3.9 4.8-6v-3.2h-.8Z"/><path fill="#000" d="M128.7 210.4c-1-1.4-2.4-2.5-4-3.3a27.5 27.5 0 0 0-23.2 0c-1.6.8-3 2-4 3.3h-.8v3.2c.1 2.1 1.7 4.3 4.8 6a27.5 27.5 0 0 0 23.2 0c3-1.7 4.7-3.9 4.8-6v-3.2h-.8Z" opacity=".3"/><path fill="#000" d="M113.1 204.5c-4.2 0-8.4.8-11.6 2.6-1.6.8-3 2-4 3.3h-.8v3.2c.1 2.1 1.7 4.3 4.8 6 3.2 1.7 7.4 2.5 11.6 2.5v-17.6Z" opacity=".1"/><path fill="#000" d="M104.1 206c-.9.2-1.8.6-2.6 1-1.6.9-3 2-4 3.4h-.8v3.2c.1 2.1 1.7 4.3 4.8 6l2.6 1.1V206Z" opacity=".1"/><path fill="#33907C" d="M122 206c1 .2 1.9.6 2.7 1 1.6.9 3 2 4 3.4h.9v3.2c-.2 2.1-1.8 4.3-4.9 6l-2.6 1.1V206Z"/><path fill="#33907C" d="M124.7 204.2a27.5 27.5 0 0 0-23.2 0c-6.4 3.4-6.4 9 0 12.5a27.4 27.4 0 0 0 23.2 0c6.4-3.4 6.4-9 0-12.5Z"/><path fill="#000" d="M124.7 204.2a27.5 27.5 0 0 0-23.2 0c-6.4 3.4-6.4 9 0 12.5a27.4 27.4 0 0 0 23.2 0c6.4-3.4 6.4-9 0-12.5Z" opacity=".2"/><path fill="#33907C" d="M120.7 206.5a19.7 19.7 0 0 0-15.1 0c-2.2 1-3.4 2.4-3.4 4 0 1.5 1.2 2.9 3.4 4a19.7 19.7 0 0 0 15 0c2.2-1.1 3.4-2.5 3.4-4 0-1.6-1.2-3-3.3-4Z"/><path fill="#000" d="M120.7 206.5a19.7 19.7 0 0 0-15.1 0c-2.2 1-3.4 2.4-3.4 4 0 1.5 1.2 2.9 3.4 4a19.7 19.7 0 0 0 15 0c2.2-1.1 3.4-2.5 3.4-4 0-1.6-1.2-3-3.3-4Z" opacity=".4"/><path fill="#33907C" d="M124.4 204.8c-3-1.6-7-2.5-11.3-2.5-4.3 0-8.2.9-11.2 2.5-3 1.5-4.5 3.5-4.5 5.6 0 2.2 1.6 4.2 4.5 5.7 3 1.6 7 2.5 11.2 2.5 4.3 0 8.3-.9 11.3-2.5 2.8-1.5 4.4-3.5 4.4-5.7 0-2-1.6-4-4.4-5.6Zm-3.7 9.6a19.7 19.7 0 0 1-15.1 0c-2.2-1-3.4-2.4-3.4-4 0-1.5 1.2-2.9 3.4-4a19.7 19.7 0 0 1 15 0c2.2 1.1 3.4 2.5 3.4 4 0 1.6-1.2 3-3.3 4Z"/><path fill="#000" d="M113.1 215.4c5.7 0 10.3-2.2 10.3-5 0-2.7-4.6-4.9-10.3-4.9-5.7 0-10.3 2.2-10.3 5 0 2.7 4.6 4.9 10.3 4.9Z" opacity=".2"/><path fill="#33907C" d="M113.1 215.4c5.7 0 10.3-2.2 10.3-5 0-2.7-4.6-4.9-10.3-4.9-5.7 0-10.3 2.2-10.3 5 0 2.7 4.6 4.9 10.3 4.9Z"/><path fill="#000" d="M113.1 215.4c5.7 0 10.3-2.2 10.3-5 0-2.7-4.6-4.9-10.3-4.9-5.7 0-10.3 2.2-10.3 5 0 2.7 4.6 4.9 10.3 4.9Z" opacity=".6"/><path fill="#33907C" d="M120.4 208.3c-4-2-10.6-2-14.6 0-1.7.7-2.6 1.8-3 2.8.4 1 1.3 2 3 2.9 4 1.9 10.6 1.9 14.6 0 1.7-.8 2.7-1.8 3-2.9-.3-1-1.3-2-3-2.8Z"/><path fill="#000" d="M120.4 208.3c-4-2-10.6-2-14.6 0-1.7.7-2.6 1.8-3 2.8.4 1 1.3 2 3 2.9 4 1.9 10.6 1.9 14.6 0 1.7-.8 2.7-1.8 3-2.9-.3-1-1.3-2-3-2.8Z" opacity=".5"/><path fill="#33907C" d="M114 207v1.4l-.4.5-1 1v-1.5l1.5-1.4Z"/><path fill="#000" d="M114 207v1.4l-.4.5-1 1v-1.5l1.5-1.4Z" opacity=".3"/><path fill="#33907C" d="M112.6 208.4v.8l-1.5.4a2 2 0 0 1-.6 0 2 2 0 0 1-.3 0c-.3-.3-.4-.6.3-1a2.6 2.6 0 0 1 2.1-.2Z"/><path fill="#000" d="M112.6 208.4v.8l-1.5.4a2 2 0 0 1-.6 0 2 2 0 0 1-.3 0c-.3-.3-.4-.6.3-1a2.6 2.6 0 0 1 2.1-.2Z" opacity=".5"/><path fill="#33907C" d="M119.5 212.4v1.2l-1.7 1-1.2-.7c-1.5.6-3.2.7-4.8.2v-1.3l.8-.7-.8.2c-1.2.4-2.5.2-3.6-.4-.8-.4-1.1-.8-1.1-1.2v-1.2l.1-.5-.4-.3v-1.2l1.2.7c-.3 0-.5.3-.6.5-.2.2-.3.5-.3.8 0 .4.3.8 1 1.2 1.7.9 3.3.6 4.7.2 1.4-.5 2.4-1 3.2-.5.5.2.3.5-.2.9a2.9 2.9 0 0 1-2.4 0l-1.5 1.5a6.6 6.6 0 0 0 4.7-.2l1.2.7 1.7-.9Z"/><path fill="#000" d="M107 209.5c0 .4.4.8 1.2 1.2 1.6.9 3.2.6 4.6.2 1.4-.5 2.4-1 3.2-.5.4.2.3.5-.2.9a2.9 2.9 0 0 1-2.4 0l-1.6 1.5a6.6 6.6 0 0 0 4.8-.2l1.2.7 1.7-.9v1.2l-1.7.9-1.2-.7c-1.5.7-3.2.8-4.8.2v-1.2l.8-.7-.8.2c-1.2.4-2.5.2-3.6-.4-.8-.4-1.1-.8-1.1-1.2v-1.2l.1-.5" opacity=".3"/><path fill="#000" d="M106.8 207.5v1.2l.4.3c.2-.4.5-.6.8-.9l-1.3-.6Z" opacity=".5"/><path fill="#33907C" d="m119.2 211.6-.1.6-.8-.4.6-.5.3-.7v1Z"/><path fill="#000" d="m119.2 211.6-.1.6-.8-.4.6-.5.3-.7v1Z" opacity=".3"/><path fill="#33907C" d="m119.2 212.3-1-.6c.3 0 .6-.3.7-.5a1.4 1.4 0 0 0 .3-1c0-.3-.4-.8-1-1.1-.7-.4-1.5-.6-2.3-.6h-.7a9 9 0 0 0-1.6.4l-.7.2h-.3c-.4.3-1 .4-1.4.5h-.7l-.3-.1c-.3-.2-.4-.5.3-1a2.6 2.6 0 0 1 2.2-.1l1.4-1.4c-1.4-.4-3-.4-4.4.2l-1.2-.6-1.7.9 1.2.6c-.2.2-.5.3-.6.6-.2.2-.3.5-.3.7 0 .5.4.9 1 1.3 1.7.9 3.3.6 4.8.1 1.3-.4 2.3-.9 3-.5.6.3.4.6-.1 1a2.8 2.8 0 0 1-2.4 0l-1.5 1.5a6.5 6.5 0 0 0 4.7-.2l1.3.7 1.6-1h-.3Z"/><path fill="#33907C" d="M116.6 212.6v1.3l1.2.6v-1.2l-1.2-.7Z"/><path fill="#000" d="M116.6 212.6v1.3l1.2.6v-1.2l-1.2-.7Z" opacity=".5"/><path fill="#F5F5F5" d="m106.8 207.5 1.6-1 1.2.7-1.2-.4-1.7.7ZM110.5 208.6a2.6 2.6 0 0 1 2.2-.2l1.4-1.4-1.4 1.3a2.4 2.4 0 0 0-2.2.3ZM111.8 212.8a6.6 6.6 0 0 0 2.4.4c-.7 0-1.4-.1-2.1-.4l1.3-1.4-1.6 1.4ZM116.6 212.6l1.2.6 1.7-.8-1.7.9-1.2-.7ZM102 205a29.2 29.2 0 0 1 11.1-2.7c-4.3 0-8.2.9-11.2 2.5-3 1.5-4.5 3.5-4.5 5.6 0 0 .2-3 4.6-5.4ZM111.8 219.2a26 26 0 0 0 13-2.5c3.6-2 5.2-4.7 4.6-7.2 0 0 .7 4.2-5 7-5.6 2.9-12.6 2.7-12.6 2.7Z"/><path fill="#33907C" d="M127.5 206c-1-1.4-2.3-2.6-3.9-3.4a27.5 27.5 0 0 0-23.2 0c-1.6.8-3 2-4 3.4h-.8v3.1c0 2.2 1.7 4.4 4.8 6a27.5 27.5 0 0 0 23.2 0c3-1.6 4.7-3.8 4.8-6v-3h-.9Z"/><path fill="#000" d="M127.5 206c-1-1.4-2.3-2.6-3.9-3.4a27.5 27.5 0 0 0-23.2 0c-1.6.8-3 2-4 3.4h-.8v3.1c0 2.2 1.7 4.4 4.8 6a27.5 27.5 0 0 0 23.2 0c3-1.6 4.7-3.8 4.8-6v-3h-.9Z" opacity=".3"/><path fill="#000" d="M112 200c-4.2 0-8.4 1-11.6 2.6-1.6.8-3 2-4 3.4h-.8v3.1c0 2.2 1.7 4.4 4.8 6 3.2 1.7 7.4 2.6 11.6 2.6V200Z" opacity=".1"/><path fill="#000" d="m103 201.5-2.6 1.1c-1.6.8-3 2-4 3.4h-.8v3.1c0 2.2 1.7 4.4 4.8 6 .8.5 1.7.8 2.6 1.2v-14.8Z" opacity=".1"/><path fill="#33907C" d="m121 201.5 2.6 1.1c1.6.8 3 2 4 3.4h.8v3.1c-.1 2.2-1.7 4.4-4.8 6-.8.5-1.7.8-2.6 1.2v-14.8Z"/><path fill="#33907C" d="M123.6 199.8a27.5 27.5 0 0 0-23.2 0c-6.4 3.4-6.4 9 0 12.5a27.4 27.4 0 0 0 23.2 0c6.4-3.5 6.4-9 0-12.5Z"/><path fill="#000" d="M123.6 199.8a27.5 27.5 0 0 0-23.2 0c-6.4 3.4-6.4 9 0 12.5a27.4 27.4 0 0 0 23.2 0c6.4-3.5 6.4-9 0-12.5Z" opacity=".2"/><path fill="#33907C" d="M119.6 202a19.8 19.8 0 0 0-15.2 0c-2.1 1-3.3 2.5-3.3 4s1.2 3 3.3 4a19.7 19.7 0 0 0 15.2 0c2.1-1 3.3-2.5 3.3-4s-1.2-3-3.3-4Z"/><path fill="#000" d="M119.6 202a19.8 19.8 0 0 0-15.2 0c-2.1 1-3.3 2.5-3.3 4s1.2 3 3.3 4a19.7 19.7 0 0 0 15.2 0c2.1-1 3.3-2.5 3.3-4s-1.2-3-3.3-4Z" opacity=".4"/><path fill="#33907C" d="M123.2 200.3c-3-1.6-7-2.5-11.2-2.5-4.3 0-8.3 1-11.3 2.5-2.8 1.6-4.4 3.6-4.4 5.7s1.6 4.1 4.4 5.7c3 1.6 7 2.5 11.3 2.5 4.3 0 8.3-.9 11.2-2.5 3-1.6 4.5-3.6 4.5-5.7 0-2-1.6-4-4.5-5.7Zm-3.6 9.7a19.7 19.7 0 0 1-15.2 0c-2.1-1-3.3-2.5-3.3-4s1.2-3 3.3-4a19.8 19.8 0 0 1 15.2 0c2.1 1 3.3 2.5 3.3 4s-1.2 3-3.3 4Z"/><path fill="#000" d="M119.3 209.5c4-2 4-5 0-7s-10.6-2-14.6 0-4 5 0 7 10.6 2 14.6 0Z" opacity=".2"/><path fill="#33907C" d="M119.3 209.5c4-2 4-5 0-7s-10.6-2-14.6 0-4 5 0 7 10.6 2 14.6 0Z"/><path fill="#000" d="M119.3 209.5c4-2 4-5 0-7s-10.6-2-14.6 0-4 5 0 7 10.6 2 14.6 0Z" opacity=".6"/><path fill="#33907C" d="M119.3 203.8c-4-1.9-10.6-1.9-14.6 0-1.7.8-2.7 1.8-3 2.9.3 1 1.3 2 3 2.9 4 1.9 10.6 1.9 14.6 0 1.7-.8 2.6-1.8 3-3-.4-1-1.3-2-3-2.8Z"/><path fill="#000" d="M119.3 203.8c-4-1.9-10.6-1.9-14.6 0-1.7.8-2.7 1.8-3 2.9.3 1 1.3 2 3 2.9 4 1.9 10.6 1.9 14.6 0 1.7-.8 2.6-1.8 3-3-.4-1-1.3-2-3-2.8Z" opacity=".5"/><path fill="#33907C" d="M113 202.6v1.4l-.6.5-1 1V204l1.6-1.4Z"/><path fill="#000" d="M113 202.6v1.4l-.6.5-1 1V204l1.6-1.4Z" opacity=".3"/><path fill="#33907C" d="M111.5 204v.8l-1.5.4h-.6l-.3-.1c-.4-.2-.4-.5.3-.9a2.6 2.6 0 0 1 2-.2Z"/><path fill="#000" d="M111.5 204v.8l-1.5.4h-.6l-.3-.1c-.4-.2-.4-.5.3-.9a2.6 2.6 0 0 1 2-.2Z" opacity=".5"/><path fill="#33907C" d="M118.3 208v1.2l-1.6.9-1.2-.7c-1.5.7-3.2.8-4.8.2v-1.2l.8-.7-.8.2a5.2 5.2 0 0 1-3.7-.4c-.7-.4-1-.8-1-1.3V204.5l-.4-.2V203l1.3.6-.7.6-.3.7c0 .5.4.9 1.1 1.3 1.6.9 3.2.6 4.7.1 1.4-.4 2.4-.9 3.1-.4.5.2.4.5-.2.8a2.9 2.9 0 0 1-2.3.2l-1.6 1.4.9.2c1.3.3 2.7.1 3.9-.4l1.2.7 1.6-1Z"/><path fill="#000" d="M106 205c0 .5.3.9 1 1.3 1.6.9 3.2.6 4.7.1 1.4-.4 2.4-.9 3.1-.4.5.2.4.5-.2.8a2.9 2.9 0 0 1-2.3.2l-1.6 1.4.9.2c1.3.3 2.7.1 3.9-.4l1.2.7 1.7-1v1.3l-1.7.9-1.2-.7c-1.5.7-3.2.7-4.8.2v-1.2l.8-.7-.8.2a5.2 5.2 0 0 1-3.7-.4c-.7-.4-1-.8-1-1.3v-1.7" opacity=".3"/><path fill="#000" d="M105.6 203v1.3l.5.2.7-.8-1.2-.6Z" opacity=".5"/><path fill="#33907C" d="M118 207.2v.6l-.9-.5c.3 0 .5-.2.6-.4l.4-.7v1Z"/><path fill="#000" d="M118 207.2v.6l-.9-.5c.3 0 .5-.2.6-.4l.4-.7v1Z" opacity=".3"/><path fill="#33907C" d="m118 207.8-.9-.5c.3 0 .5-.3.7-.5.2-.3.3-.5.3-.8v-.1c0-.3-.2-.6-.4-.8l-.7-.4c-.7-.4-1.4-.6-2.2-.6h-.8a9.2 9.2 0 0 0-1.5.4l-.7.2h-.3l-1.5.5h-.6l-.3-.2c-.3-.2-.4-.5.3-.8a2.6 2.6 0 0 1 2.1-.2l1.5-1.4c-1.5-.5-3-.4-4.5.2l-1.2-.7-1.7 1 1.2.6-.6.6-.3.7c0 .5.4.9 1.1 1.3 1.6.8 3.2.6 4.7.1 1.3-.4 2.3-.9 3.1-.5.5.3.4.6-.2 1a2.8 2.8 0 0 1-2.3 0l-1.6 1.5a6.3 6.3 0 0 0 2.4.3c.8 0 1.6-.2 2.4-.5l1.2.7 1.6-1h-.2Z"/><path fill="#33907C" d="M115.5 208.2v1.2l1.2.7v-1.2l-1.2-.7Z"/><path fill="#000" d="M115.5 208.2v1.2l1.2.7v-1.2l-1.2-.7Z" opacity=".5"/><path fill="#F5F5F5" d="m105.6 203 1.7-.8 1.2.6-1.2-.4-1.7.7ZM109.4 204.2a2.6 2.6 0 0 1 2-.2l1.6-1.4-1.5 1.3a2.4 2.4 0 0 0-2.1.3ZM110.7 208.4a6.4 6.4 0 0 0 2.4.4c-.7 0-1.5-.2-2.1-.4l1.3-1.4-1.6 1.4ZM115.5 208.2l1.2.5 1.6-.7-1.6.9-1.2-.7ZM100.9 200.6c4.3-2.5 11-2.8 11-2.8-4.2 0-8.2 1-11.2 2.5-2.8 1.6-4.4 3.6-4.4 5.7 0 0 .1-3 4.6-5.4ZM110.7 214.8a26 26 0 0 0 13-2.5c3.6-2 5.2-4.7 4.6-7.3 0 0 .7 4.2-5 7.1-5.6 2.9-12.6 2.7-12.6 2.7Z"/><path fill="#33907C" d="M129.9 201.7c-1-1.4-2.4-2.5-4-3.3a27.5 27.5 0 0 0-23.2 0c-1.6.8-3 2-3.9 3.3h-.9v3.2c.1 2.1 1.7 4.3 4.8 6a27.5 27.5 0 0 0 23.2 0c3.1-1.7 4.7-3.9 4.9-6v-3.2h-1Z"/><path fill="#000" d="M129.9 201.7c-1-1.4-2.4-2.5-4-3.3a27.5 27.5 0 0 0-23.2 0c-1.6.8-3 2-3.9 3.3h-.9v3.2c.1 2.1 1.7 4.3 4.8 6a27.5 27.5 0 0 0 23.2 0c3.1-1.7 4.7-3.9 4.9-6v-3.2h-1Z" opacity=".3"/><path fill="#000" d="M114.3 195.8c-4.2 0-8.4.8-11.6 2.6-1.6.8-3 2-3.9 3.3h-.9v3.2c.1 2.1 1.7 4.3 4.8 6 3.2 1.7 7.4 2.5 11.6 2.5v-17.6Z" opacity=".1"/><path fill="#000" d="m105.4 197.2-2.7 1.1c-1.6.8-3 2-3.9 3.4h-.9v3.2c.1 2.1 1.7 4.3 4.8 6 .9.4 1.7.8 2.7 1v-14.7Z" opacity=".1"/><path fill="#33907C" d="m123.3 197.2 2.7 1.1c1.5.8 2.9 2 3.9 3.4h.9v3.2c-.1 2.1-1.7 4.3-4.8 6-.9.4-1.8.8-2.7 1v-14.7Z"/><path fill="#33907C" d="M126 195.5a27.5 27.5 0 0 0-23.3 0c-6.4 3.4-6.4 9 0 12.5a27.4 27.4 0 0 0 23.3 0c6.4-3.4 6.4-9 0-12.5Z"/><path fill="#000" d="M126 195.5a27.5 27.5 0 0 0-23.3 0c-6.4 3.4-6.4 9 0 12.5a27.4 27.4 0 0 0 23.3 0c6.4-3.4 6.4-9 0-12.5Z" opacity=".2"/><path fill="#33907C" d="M121.9 197.8a19.8 19.8 0 0 0-15.1 0c-2.2 1-3.4 2.4-3.4 4 0 1.5 1.2 2.9 3.4 3.9a19.6 19.6 0 0 0 15.1 0c2.2-1 3.3-2.4 3.3-4 0-1.5-1.2-2.9-3.3-4Z"/><path fill="#000" d="M121.9 197.8a19.8 19.8 0 0 0-15.1 0c-2.2 1-3.4 2.4-3.4 4 0 1.5 1.2 2.9 3.4 3.9a19.6 19.6 0 0 0 15.1 0c2.2-1 3.3-2.4 3.3-4 0-1.5-1.2-2.9-3.3-4Z" opacity=".4"/><path fill="#33907C" d="M125.6 196c-3-1.5-7-2.4-11.3-2.4-4.2 0-8.2.9-11.2 2.5-2.9 1.5-4.5 3.5-4.5 5.6 0 2.2 1.6 4.2 4.5 5.7 3 1.6 7 2.5 11.2 2.5 4.3 0 8.3-.9 11.3-2.5 2.9-1.5 4.5-3.6 4.5-5.7 0-2-1.6-4-4.5-5.6Zm-3.7 9.7a19.6 19.6 0 0 1-15.1 0c-2.2-1-3.4-2.4-3.4-4 0-1.5 1.2-2.9 3.4-4a19.8 19.8 0 0 1 15.1 0c2.2 1.1 3.3 2.5 3.3 4 0 1.6-1.2 3-3.3 4Z"/><path fill="#000" d="M114.3 206.7c5.7 0 10.4-2.2 10.4-5 0-2.7-4.7-4.9-10.4-4.9s-10.3 2.2-10.3 5c0 2.7 4.6 4.9 10.3 4.9Z" opacity=".2"/><path fill="#33907C" d="M114.3 206.7c5.7 0 10.4-2.2 10.4-5 0-2.7-4.7-4.9-10.4-4.9s-10.3 2.2-10.3 5c0 2.7 4.6 4.9 10.3 4.9Z"/><path fill="#000" d="M114.3 206.7c5.7 0 10.4-2.2 10.4-5 0-2.7-4.7-4.9-10.4-4.9s-10.3 2.2-10.3 5c0 2.7 4.6 4.9 10.3 4.9Z" opacity=".6"/><path fill="#33907C" d="M121.6 199.6c-4-2-10.5-2-14.6 0-1.6.7-2.6 1.8-2.9 2.8.3 1 1.3 2 3 2.9 4 2 10.5 2 14.5 0 1.7-.8 2.7-1.8 3-2.9-.3-1-1.3-2-3-2.8Z"/><path fill="#000" d="M121.6 199.6c-4-2-10.5-2-14.6 0-1.6.7-2.6 1.8-2.9 2.8.3 1 1.3 2 3 2.9 4 2 10.5 2 14.5 0 1.7-.8 2.7-1.8 3-2.9-.3-1-1.3-2-3-2.8Z" opacity=".5"/><path fill="#33907C" d="M115.3 198.3v1.4l-.5.5-1 1v-1.5l1.5-1.4Z"/><path fill="#000" d="M115.3 198.3v1.4l-.5.5-1 1v-1.5l1.5-1.4Z" opacity=".3"/><path fill="#33907C" d="M113.8 199.7v.8l-1.4.4h-.6a2 2 0 0 1-.3 0c-.4-.3-.5-.6.2-1a2.6 2.6 0 0 1 2.1-.2Z"/><path fill="#000" d="M113.8 199.7v.8l-1.4.4h-.6a2 2 0 0 1-.3 0c-.4-.3-.5-.6.2-1a2.6 2.6 0 0 1 2.1-.2Z" opacity=".5"/><path fill="#33907C" d="M120.7 203.7v1.2l-1.7 1-1.2-.7c-1.5.6-3.2.7-4.7.2V204l.7-.7-.7.2a5.2 5.2 0 0 1-3.7-.4c-.8-.4-1.1-.8-1.1-1.2v-1.2l.1-.5-.4-.3v-1.2l1.2.7c-.2 0-.5.3-.6.5-.2.2-.3.5-.3.8 0 .4.4.8 1 1.2 1.7.9 3.3.6 4.8.2 1.3-.5 2.3-1 3-.5.6.2.4.6-.1.9a2.9 2.9 0 0 1-2.3 0l-1.6 1.5.9.3c1.3.2 2.6 0 3.8-.5l1.3.7 1.6-.9Z"/><path fill="#000" d="M108.3 200.8c0 .4.4.8 1 1.2 1.7.9 3.3.6 4.7.2 1.4-.4 2.4-1 3.2-.5.5.3.3.6-.2.9a2.9 2.9 0 0 1-2.4 0l-1.5 1.5.8.3c1.3.2 2.7 0 4-.5l1.1.7 1.7-.9v1.2l-1.7 1-1.2-.7c-1.5.6-3.2.7-4.7.2V204l.7-.7-.7.2a5.2 5.2 0 0 1-3.7-.4c-.8-.4-1.1-.8-1.1-1.2v-1.2l.1-.5" opacity=".3"/><path fill="#000" d="M108 198.8v1.2l.4.3c.2-.4.5-.6.8-.9l-1.2-.6Z" opacity=".5"/><path fill="#33907C" d="m120.4 203-.1.5-.8-.5c.2 0 .4-.2.6-.4.2-.2.3-.5.3-.7v1Z"/><path fill="#000" d="m120.4 203-.1.5-.8-.5c.2 0 .4-.2.6-.4.2-.2.3-.5.3-.7v1Z" opacity=".3"/><path fill="#33907C" d="m120.4 203.6-1-.6c.4 0 .6-.3.8-.5a1.4 1.4 0 0 0 .2-1c0-.3-.3-.8-1-1.1-.7-.4-1.5-.6-2.2-.6h-.8c-.4 0-.7.2-1 .3h-.6l-.7.3h-.2c-.5.3-1 .4-1.5.5h-.6l-.3-.1c-.4-.2-.5-.5.2-1a2.6 2.6 0 0 1 2.2-.1l1.4-1.4c-1.4-.4-3-.4-4.4.2l-1.2-.6-1.7.9 1.2.6-.6.6-.3.7c0 .5.4.9 1.1 1.3 1.6.9 3.2.6 4.7.1 1.3-.4 2.3-.9 3.1-.5.5.3.3.6-.2 1a2.8 2.8 0 0 1-2.3 0l-1.6 1.5a6.4 6.4 0 0 0 4.7-.2l1.3.7 1.6-1h-.3Z"/><path fill="#33907C" d="M117.8 204v1.2l1.2.6v-1.2l-1.2-.7Z"/><path fill="#000" d="M117.8 204v1.2l1.2.6v-1.2l-1.2-.7Z" opacity=".5"/><path fill="#F5F5F5" d="m108 198.8 1.6-1 1.3.7-1.2-.4-1.7.7ZM111.7 200a2.6 2.6 0 0 1 2.1-.3l1.5-1.4-1.5 1.3a2.4 2.4 0 0 0-2 .3ZM113 204.1a6.6 6.6 0 0 0 2.5.4c-.8 0-1.5-.2-2.2-.4l1.3-1.4-1.5 1.4ZM117.8 204l1.2.5 1.7-.8-1.7.9-1.2-.7ZM103.2 196.3c4.4-2.5 11.1-2.7 11.1-2.7-4.2 0-8.2.9-11.2 2.5-2.9 1.5-4.5 3.5-4.5 5.6 0 0 .2-3 4.6-5.4ZM113 210.5a26 26 0 0 0 13-2.5c3.6-2 5.2-4.7 4.7-7.2 0 0 .7 4.2-5 7-5.7 2.9-12.6 2.7-12.6 2.7Z"/><path fill="#33907C" d="M128.3 197.4c-1-1.4-2.4-2.6-4-3.4a27.5 27.5 0 0 0-23.2 0c-1.6.8-3 2-3.9 3.4h-.9v3.1c.1 2.2 1.7 4.4 4.8 6a27.5 27.5 0 0 0 23.2 0c3.1-1.6 4.7-3.8 4.8-6v-3.1h-.8Z"/><path fill="#000" d="M128.3 197.4c-1-1.4-2.4-2.6-4-3.4a27.5 27.5 0 0 0-23.2 0c-1.6.8-3 2-3.9 3.4h-.9v3.1c.1 2.2 1.7 4.4 4.8 6a27.5 27.5 0 0 0 23.2 0c3.1-1.6 4.7-3.8 4.8-6v-3.1h-.8Z" opacity=".3"/><path fill="#000" d="M112.7 191.4c-4.2 0-8.4.9-11.6 2.6-1.6.8-3 2-3.9 3.4h-.9v3.1c.1 2.2 1.7 4.4 4.8 6 3.2 1.7 7.4 2.6 11.6 2.6v-17.7Z" opacity=".1"/><path fill="#000" d="M103.8 192.9 101 194c-1.6.8-3 2-3.9 3.4h-.9v3.1c.1 2.2 1.7 4.4 4.8 6l2.7 1.2v-14.8Z" opacity=".1"/><path fill="#33907C" d="M121.7 192.9c1 .3 1.8.7 2.6 1.1 1.6.8 3 2 4 3.4h.9v3.1c-.2 2.2-1.8 4.4-4.9 6-.8.5-1.7.8-2.6 1.2v-14.8Z"/><path fill="#33907C" d="M124.3 191.2a27.5 27.5 0 0 0-23.2 0c-6.4 3.4-6.4 9 0 12.5a27.4 27.4 0 0 0 23.2 0c6.5-3.5 6.5-9 0-12.5Z"/><path fill="#000" d="M124.3 191.2a27.5 27.5 0 0 0-23.2 0c-6.4 3.4-6.4 9 0 12.5a27.4 27.4 0 0 0 23.2 0c6.5-3.5 6.5-9 0-12.5Z" opacity=".2"/><path fill="#33907C" d="M120.3 193.5a19.7 19.7 0 0 0-15.1 0c-2.2 1-3.4 2.4-3.4 4 0 1.4 1.2 2.8 3.4 3.9a19.7 19.7 0 0 0 15 0c2.2-1 3.4-2.5 3.4-4s-1.2-3-3.3-4Z"/><path fill="#000" d="M120.3 193.5a19.7 19.7 0 0 0-15.1 0c-2.2 1-3.4 2.4-3.4 4 0 1.4 1.2 2.8 3.4 3.9a19.7 19.7 0 0 0 15 0c2.2-1 3.4-2.5 3.4-4s-1.2-3-3.3-4Z" opacity=".4"/><path fill="#33907C" d="M124 191.7c-3-1.6-7-2.5-11.3-2.5-4.2 0-8.2 1-11.2 2.5-2.9 1.6-4.5 3.6-4.5 5.7s1.6 4.1 4.5 5.7c3 1.6 7 2.5 11.2 2.5 4.3 0 8.3-1 11.3-2.5 2.9-1.6 4.4-3.6 4.4-5.7s-1.5-4.1-4.4-5.7Zm-3.7 9.7a19.7 19.7 0 0 1-15.1 0c-2.2-1-3.4-2.5-3.4-4s1.2-3 3.4-4a19.7 19.7 0 0 1 15.1 0c2.2 1 3.3 2.5 3.3 4s-1.2 3-3.3 4Z"/><path fill="#000" d="M112.7 202.3c5.7 0 10.4-2.2 10.4-4.9s-4.7-5-10.4-5-10.3 2.3-10.3 5 4.6 5 10.3 5Z" opacity=".2"/><path fill="#33907C" d="M112.7 202.3c5.7 0 10.4-2.2 10.4-4.9s-4.7-5-10.4-5-10.3 2.3-10.3 5 4.6 5 10.3 5Z"/><path fill="#000" d="M112.7 202.3c5.7 0 10.4-2.2 10.4-4.9s-4.7-5-10.4-5-10.3 2.3-10.3 5 4.6 5 10.3 5Z" opacity=".6"/><path fill="#33907C" d="M120 195.2c-4-1.9-10.5-1.9-14.6 0-1.6.8-2.6 1.8-3 2.9.4 1 1.4 2 3 2.8 4 2 10.6 2 14.6 0 1.7-.8 2.7-1.8 3-2.8-.3-1-1.3-2-3-2.9Z"/><path fill="#000" d="M120 195.2c-4-1.9-10.5-1.9-14.6 0-1.6.8-2.6 1.8-3 2.9.4 1 1.4 2 3 2.8 4 2 10.6 2 14.6 0 1.7-.8 2.7-1.8 3-2.8-.3-1-1.3-2-3-2.9Z" opacity=".5"/><path fill="#33907C" d="M113.7 194v1.4l-.5.5-1 1v-1.5l1.5-1.4Z"/><path fill="#000" d="M113.7 194v1.4l-.5.5-1 1v-1.5l1.5-1.4Z" opacity=".3"/><path fill="#33907C" d="M112.2 195.4v.8l-1.4.4h-.6l-.3-.1c-.4-.2-.5-.5.2-1a2.6 2.6 0 0 1 2.1-.1Z"/><path fill="#000" d="M112.2 195.4v.8l-1.4.4h-.6l-.3-.1c-.4-.2-.5-.5.2-1a2.6 2.6 0 0 1 2.1-.1Z" opacity=".5"/><path fill="#33907C" d="M119.1 199.4v1.2l-1.6.9-1.3-.7c-1.5.7-3.2.8-4.7.2v-1.2l.7-.7-.7.2a5.2 5.2 0 0 1-3.7-.4c-.7-.4-1-.8-1-1.3V196l-.4-.2v-1.2l1.2.6-.6.6-.3.7c0 .5.4 1 1.1 1.3 1.6.9 3.2.6 4.7.2 1.3-.5 2.3-1 3.1-.5.5.2.4.5-.2.8a2.9 2.9 0 0 1-2.3.2l-1.6 1.4.9.3c1.3.2 2.6 0 3.8-.5l1.3.7 1.6-1Z"/><path fill="#000" d="M106.7 196.4c0 .5.3.9 1 1.3 1.7.9 3.3.6 4.7.1 1.4-.4 2.4-.9 3.2-.4.5.2.3.5-.2.8a2.9 2.9 0 0 1-2.4.2l-1.5 1.4.8.2c1.3.3 2.7.1 4-.4l1.1.7 1.7-1v1.3l-1.7.9-1.2-.7c-1.5.7-3.2.7-4.7.2v-1.2l.7-.7-.7.2a5.2 5.2 0 0 1-3.7-.4c-.8-.4-1.1-.8-1.1-1.3v-1.2l.1-.5" opacity=".3"/><path fill="#000" d="M106.4 194.5v1.2l.4.2.8-.8-1.2-.6Z" opacity=".5"/><path fill="#33907C" d="m118.8 198.6-.1.6-.8-.5c.2 0 .4-.3.6-.5.2-.2.3-.4.3-.7v1Z"/><path fill="#000" d="m118.8 198.6-.1.6-.8-.5c.2 0 .4-.3.6-.5.2-.2.3-.4.3-.7v1Z" opacity=".3"/><path fill="#33907C" d="m118.8 199.2-1-.5c.4 0 .6-.3.8-.5a1.4 1.4 0 0 0 .2-1c0-.4-.4-.8-1-1.1-.7-.4-1.5-.6-2.2-.6h-.8a9 9 0 0 0-1 .2l-.6.2-.7.2h-.2l-1.5.5h-.6l-.3-.2c-.4-.2-.5-.5.2-.8a2.5 2.5 0 0 1 2.2-.2l1.4-1.4c-1.4-.5-3-.4-4.4.2l-1.2-.7-1.7 1 1.2.6-.6.6c-.2.2-.3.5-.3.7 0 .5.3 1 1 1.3 1.7.9 3.3.6 4.7.1 1.4-.4 2.4-.9 3.2-.4.5.2.3.5-.2.8a2.9 2.9 0 0 1-2.4.2l-1.5 1.4a6.6 6.6 0 0 0 2.3.4c.9 0 1.7-.3 2.4-.6l1.2.7 1.7-1h-.3Z"/><path fill="#33907C" d="M116.2 199.6v1.2l1.2.7v-1.2l-1.2-.7Z"/><path fill="#000" d="M116.2 199.6v1.2l1.2.7v-1.2l-1.2-.7Z" opacity=".5"/><path fill="#F5F5F5" d="m106.4 194.5 1.6-1 1.3.7-1.2-.5-1.7.8ZM110.1 195.6a2.5 2.5 0 0 1 2.1-.2l1.5-1.4-1.5 1.2a2.4 2.4 0 0 0-2 .4ZM111.5 199.8a6.6 6.6 0 0 0 2.3.4c-.7 0-1.4-.2-2-.4l1.2-1.4-1.5 1.4ZM116.2 199.6l1.2.5 1.7-.7-1.7.9-1.2-.7ZM101.6 192c4.4-2.5 11.1-2.8 11.1-2.8-4.2 0-8.2 1-11.2 2.5-2.9 1.6-4.5 3.6-4.5 5.7 0 0 .2-3 4.6-5.5ZM111.5 206.2c4.6.2 9.3-.6 12.9-2.5 3.6-2 5.2-4.7 4.7-7.3 0 0 .7 4.2-5 7.1-5.7 2.9-12.6 2.7-12.6 2.7Z"/><path fill="#33907C" d="M155.8 225.7c-1-1.4-2.3-2.6-3.9-3.4a27.5 27.5 0 0 0-23.2 0c-1.6.8-3 2-4 3.4h-.8v3.1c.1 2.2 1.7 4.4 4.8 6a27.5 27.5 0 0 0 23.2 0c3-1.6 4.7-3.8 4.8-6v-3h-.9Z"/><path fill="#000" d="M155.8 225.7c-1-1.4-2.3-2.6-3.9-3.4a27.5 27.5 0 0 0-23.2 0c-1.6.8-3 2-4 3.4h-.8v3.1c.1 2.2 1.7 4.4 4.8 6a27.5 27.5 0 0 0 23.2 0c3-1.6 4.7-3.8 4.8-6v-3h-.9Z" opacity=".3"/><path fill="#000" d="M140.3 219.7c-4.2 0-8.4.9-11.6 2.6-1.6.8-3 2-4 3.4h-.8v3.1c.1 2.2 1.7 4.4 4.8 6 3.2 1.7 7.4 2.6 11.6 2.6v-17.7Z" opacity=".1"/><path fill="#000" d="m131.3 221.2-2.6 1.1c-1.6.8-3 2-4 3.4h-.8v3.1c.1 2.2 1.7 4.4 4.8 6 .8.5 1.7.8 2.6 1.2v-14.8Z" opacity=".1"/><path fill="#33907C" d="m149.3 221.2 2.6 1.1c1.6.8 3 2 4 3.4h.8v3.1c0 2.2-1.7 4.4-4.8 6-.8.5-1.7.8-2.6 1.2v-14.8Z"/><path fill="#33907C" d="M152 219.5a27.5 27.5 0 0 0-23.3 0c-6.4 3.4-6.4 9 0 12.5a27.4 27.4 0 0 0 23.2 0c6.4-3.5 6.4-9 0-12.5Z"/><path fill="#000" d="M152 219.5a27.5 27.5 0 0 0-23.3 0c-6.4 3.4-6.4 9 0 12.5a27.4 27.4 0 0 0 23.2 0c6.4-3.5 6.4-9 0-12.5Z" opacity=".2"/><path fill="#33907C" d="M147.9 221.8a19.7 19.7 0 0 0-15.2 0c-2.1 1-3.3 2.4-3.3 4 0 1.4 1.2 2.8 3.3 3.9a19.6 19.6 0 0 0 15.2 0c2.1-1 3.3-2.5 3.3-4s-1.2-3-3.3-4Z"/><path fill="#000" d="M147.9 221.8a19.7 19.7 0 0 0-15.2 0c-2.1 1-3.3 2.4-3.3 4 0 1.4 1.2 2.8 3.3 3.9a19.6 19.6 0 0 0 15.2 0c2.1-1 3.3-2.5 3.3-4s-1.2-3-3.3-4Z" opacity=".4"/><path fill="#33907C" d="M151.6 220c-3-1.6-7-2.5-11.3-2.5-4.3 0-8.3 1-11.3 2.5-2.8 1.6-4.4 3.6-4.4 5.7s1.6 4.1 4.4 5.7c3 1.6 7 2.5 11.3 2.5 4.3 0 8.3-1 11.3-2.5 2.8-1.6 4.4-3.6 4.4-5.7s-1.6-4.1-4.4-5.7Zm-3.7 9.7a19.6 19.6 0 0 1-15.2 0c-2.1-1-3.3-2.5-3.3-4s1.2-3 3.3-4a19.7 19.7 0 0 1 15.2 0c2.1 1 3.3 2.5 3.3 4s-1.2 3-3.3 4Z"/><path fill="#000" d="M147.6 229.2c4-2 4-5 0-7s-10.6-2-14.6 0-4 5 0 7 10.6 2 14.6 0Z" opacity=".2"/><path fill="#33907C" d="M147.6 229.2c4-2 4-5 0-7s-10.6-2-14.6 0-4 5 0 7 10.6 2 14.6 0Z"/><path fill="#000" d="M147.6 229.2c4-2 4-5 0-7s-10.6-2-14.6 0-4 5 0 7 10.6 2 14.6 0Z" opacity=".6"/><path fill="#33907C" d="M147.6 223.5c-4-1.9-10.6-1.9-14.6 0-1.7.8-2.6 1.8-3 2.9.4 1 1.3 2 3 2.8 4 2 10.6 2 14.6 0 1.7-.8 2.7-1.8 3-2.8-.3-1-1.3-2-3-2.9Z"/><path fill="#000" d="M147.6 223.5c-4-1.9-10.6-1.9-14.6 0-1.7.8-2.6 1.8-3 2.9.4 1 1.3 2 3 2.8 4 2 10.6 2 14.6 0 1.7-.8 2.7-1.8 3-2.8-.3-1-1.3-2-3-2.9Z" opacity=".5"/><path fill="#33907C" d="M141.3 222.3v1.4l-.5.5-1 1v-1.5l1.5-1.4Z"/><path fill="#000" d="M141.3 222.3v1.4l-.5.5-1 1v-1.5l1.5-1.4Z" opacity=".3"/><path fill="#33907C" d="M139.8 223.7v.8l-1.5.4h-.6l-.3-.1c-.3-.2-.4-.5.3-1a2.6 2.6 0 0 1 2.1-.1Z"/><path fill="#000" d="M139.8 223.7v.8l-1.5.4h-.6l-.3-.1c-.3-.2-.4-.5.3-1a2.6 2.6 0 0 1 2.1-.1Z" opacity=".5"/><path fill="#33907C" d="M146.7 227.7v1.2l-1.7.9-1.2-.7c-1.5.7-3.2.8-4.8.2v-1.2l.8-.7-.8.2a5.2 5.2 0 0 1-3.6-.4c-.8-.4-1.1-.8-1.1-1.3v-1.2l.1-.5-.5-.2v-1.2l1.3.6c-.3.2-.5.3-.6.6-.2.2-.3.5-.3.7 0 .5.3.9 1 1.3 1.7.9 3.3.6 4.7.1 1.4-.4 2.4-.9 3.2-.4.4.2.3.5-.2.8a2.9 2.9 0 0 1-2.4.2l-1.5 1.4.8.2c1.3.3 2.7.1 3.9-.4l1.2.7 1.7-1Z"/><path fill="#000" d="M134.3 224.7c0 .5.3.9 1 1.3 1.7.9 3.2.6 4.7.1 1.4-.4 2.4-.9 3.1-.4.5.2.4.5-.2.8a2.8 2.8 0 0 1-2.3.2L139 228l1 .2c1.2.3 2.6.1 3.8-.4l1.2.7 1.7-1v1.3l-1.7.9-1.2-.7c-1.5.7-3.2.7-4.8.2v-1.2l.8-.7-.8.2a5.2 5.2 0 0 1-3.6-.4c-.8-.4-1.1-.8-1.1-1.3v-1.2l.1-.5" opacity=".3"/><path fill="#000" d="M134 222.8v1.2l.4.2.8-.8-1.3-.6Z" opacity=".5"/><path fill="#33907C" d="m146.4 226.9-.1.6-.9-.5c.3 0 .5-.2.7-.4l.3-.7v1Z"/><path fill="#000" d="m146.4 226.9-.1.6-.9-.5c.3 0 .5-.2.7-.4l.3-.7v1Z" opacity=".3"/><path fill="#33907C" d="m146.4 227.5-1-.5c.3 0 .6-.3.7-.5a1.4 1.4 0 0 0 .3-1c0-.4-.4-.8-1-1.1-.7-.4-1.5-.6-2.3-.6h-.7a9 9 0 0 0-1.2.2l-.5.2-.6.2h-.3l-1.5.5h-.6l-.3-.2c-.4-.2-.4-.5.3-.8a2.5 2.5 0 0 1 2.1-.2l1.5-1.4c-1.5-.5-3-.4-4.5.2l-1.2-.7-1.7 1 1.3.6c-.3.1-.5.3-.7.6l-.2.7c0 .5.3.9 1 1.3 1.7.8 3.2.5 4.7.1 1.4-.4 2.4-.9 3.1-.5.5.3.4.6-.2 1a2.9 2.9 0 0 1-2.3 0l-1.6 1.5a6.6 6.6 0 0 0 2.4.3c.8 0 1.6-.2 2.4-.5l1.2.6 1.7-.8-.3-.2Z"/><path fill="#33907C" d="M143.8 228v1.1l1.2.7v-1.2l-1.2-.7Z"/><path fill="#000" d="M143.8 228v1.1l1.2.7v-1.2l-1.2-.7Z" opacity=".5"/><path fill="#F5F5F5" d="m134 222.8 1.6-1 1.2.7-1.2-.4-1.7.7ZM137.7 223.9a2.5 2.5 0 0 1 2.1-.2l1.5-1.4-1.5 1.2a2.4 2.4 0 0 0-2.1.4ZM139 228.1a6.5 6.5 0 0 0 2.4.4c-.7 0-1.4-.2-2.1-.4l1.3-1.4-1.6 1.4ZM143.8 228l1.2.4 1.7-.7-1.7.9-1.2-.7ZM129.2 220.2a29.1 29.1 0 0 1 11.1-2.7c-4.3 0-8.3 1-11.3 2.5-2.8 1.6-4.4 3.6-4.4 5.7 0 0 .1-3 4.6-5.5ZM139 234.5a26 26 0 0 0 13-2.5c3.6-2 5.2-4.7 4.6-7.3 0 0 .7 4.2-5 7.1-5.6 2.9-12.6 2.7-12.6 2.7Z"/><path fill="#33907C" d="M156.8 221.4c-1-1.4-2.3-2.6-3.9-3.4a27.5 27.5 0 0 0-23.2 0c-1.6.8-3 2-4 3.4h-.8v3.1c0 2.2 1.7 4.4 4.8 6a27.5 27.5 0 0 0 23.2 0c3-1.6 4.7-3.8 4.8-6v-3h-.9Z"/><path fill="#000" d="M156.8 221.4c-1-1.4-2.3-2.6-3.9-3.4a27.5 27.5 0 0 0-23.2 0c-1.6.8-3 2-4 3.4h-.8v3.1c0 2.2 1.7 4.4 4.8 6a27.5 27.5 0 0 0 23.2 0c3-1.6 4.7-3.8 4.8-6v-3h-.9Z" opacity=".3"/><path fill="#000" d="M141.3 215.4c-4.2 0-8.4 1-11.6 2.6-1.6.8-3 2-4 3.4h-.8v3.1c0 2.2 1.7 4.4 4.8 6 3.2 1.7 7.4 2.6 11.6 2.6v-17.7Z" opacity=".1"/><path fill="#000" d="m132.3 216.9-2.6 1.1c-1.6.8-3 2-4 3.4h-.8v3.1c0 2.2 1.7 4.4 4.8 6 .8.5 1.7.8 2.6 1.2v-14.8Z" opacity=".1"/><path fill="#33907C" d="m150.3 216.9 2.6 1.1c1.6.8 3 2 4 3.4h.8v3.1c-.1 2.2-1.7 4.4-4.8 6-.8.5-1.7.8-2.6 1.2v-14.8Z"/><path fill="#33907C" d="M152.9 215.2a27.5 27.5 0 0 0-23.2 0c-6.5 3.4-6.5 9 0 12.5a27.4 27.4 0 0 0 23.2 0c6.4-3.5 6.4-9 0-12.5Z"/><path fill="#000" d="M152.9 215.2a27.5 27.5 0 0 0-23.2 0c-6.5 3.4-6.5 9 0 12.5a27.4 27.4 0 0 0 23.2 0c6.4-3.5 6.4-9 0-12.5Z" opacity=".2"/><path fill="#33907C" d="M148.8 217.5a19.7 19.7 0 0 0-15 0c-2.2 1-3.4 2.4-3.4 4 0 1.4 1.2 2.8 3.3 3.9a19.6 19.6 0 0 0 15.1 0c2.2-1 3.4-2.5 3.4-4s-1.2-2.9-3.4-4Z"/><path fill="#000" d="M148.8 217.5a19.7 19.7 0 0 0-15 0c-2.2 1-3.4 2.4-3.4 4 0 1.4 1.2 2.8 3.3 3.9a19.6 19.6 0 0 0 15.1 0c2.2-1 3.4-2.5 3.4-4s-1.2-2.9-3.4-4Z" opacity=".4"/><path fill="#33907C" d="M152.5 215.7c-3-1.6-7-2.5-11.2-2.5-4.3 0-8.3 1-11.3 2.5-2.8 1.6-4.4 3.6-4.4 5.7s1.6 4.1 4.4 5.7c3 1.6 7 2.5 11.3 2.5 4.2 0 8.2-.9 11.2-2.5s4.5-3.6 4.5-5.7c0-2-1.6-4.1-4.5-5.7Zm-3.6 9.7a19.6 19.6 0 0 1-15.2 0c-2.1-1-3.3-2.5-3.3-4s1.2-3 3.3-4a19.7 19.7 0 0 1 15.2 0c2.1 1 3.3 2.5 3.3 4s-1.2 3-3.4 4Z"/><path fill="#000" d="M148.6 225c4-2 4-5.2 0-7-4-2-10.6-2-14.6 0-4 1.8-4 5 0 7 4 1.8 10.6 1.8 14.6 0Z" opacity=".2"/><path fill="#33907C" d="M148.6 225c4-2 4-5.2 0-7-4-2-10.6-2-14.6 0-4 1.8-4 5 0 7 4 1.8 10.6 1.8 14.6 0Z"/><path fill="#000" d="M148.6 225c4-2 4-5.2 0-7-4-2-10.6-2-14.6 0-4 1.8-4 5 0 7 4 1.8 10.6 1.8 14.6 0Z" opacity=".6"/><path fill="#33907C" d="M148.6 219.2c-4-1.9-10.6-1.9-14.6 0-1.7.8-2.7 1.8-3 2.9.3 1 1.3 2 3 2.9 4 1.9 10.6 1.9 14.6 0 1.7-.8 2.6-1.8 3-3-.4-1-1.3-2-3-2.8Z"/><path fill="#000" d="M148.6 219.2c-4-1.9-10.6-1.9-14.6 0-1.7.8-2.7 1.8-3 2.9.3 1 1.3 2 3 2.9 4 1.9 10.6 1.9 14.6 0 1.7-.8 2.6-1.8 3-3-.4-1-1.3-2-3-2.8Z" opacity=".5"/><path fill="#33907C" d="M142.3 218v1.4l-.6.5-1 1v-1.5l1.6-1.4Z"/><path fill="#000" d="M142.3 218v1.4l-.6.5-1 1v-1.5l1.6-1.4Z" opacity=".3"/><path fill="#33907C" d="M140.8 219.4v.8l-1.5.4h-.6l-.3-.1c-.4-.2-.4-.5.3-.9a2.6 2.6 0 0 1 2-.2Z"/><path fill="#000" d="M140.8 219.4v.8l-1.5.4h-.6l-.3-.1c-.4-.2-.4-.5.3-.9a2.6 2.6 0 0 1 2-.2Z" opacity=".5"/><path fill="#33907C" d="M147.6 223.4v1.2l-1.6.9-1.2-.7c-1.5.7-3.2.8-4.8.2v-1.2l.8-.7-.8.2a5.2 5.2 0 0 1-3.7-.4c-.7-.4-1-.8-1-1.3V220l-.4-.2v-1.2l1.3.6-.7.6-.2.7c0 .5.3.9 1 1.3 1.7.9 3.3.6 4.7.1 1.4-.4 2.4-.9 3.1-.4.5.2.4.5-.2.8a2.9 2.9 0 0 1-2.3.2l-1.6 1.4a6.5 6.5 0 0 0 4.7-.2l1.3.7 1.6-1Z"/><path fill="#000" d="M135.2 220.4c0 .5.4.9 1.1 1.3 1.6.9 3.2.6 4.7.1 1.4-.4 2.3-.9 3.1-.4.5.2.4.5-.2.8a2.9 2.9 0 0 1-2.3.2l-1.6 1.4a6.5 6.5 0 0 0 4.7-.2l1.3.7 1.6-1v1.3l-1.6.9-1.3-.7c-1.5.7-3.2.8-4.7.2v-1.2l.7-.7-.7.2a5.2 5.2 0 0 1-3.7-.4c-.7-.4-1-.8-1-1.3V220" opacity=".3"/><path fill="#000" d="M135 218.5v1.2l.4.2.7-.8-1.2-.6Z" opacity=".5"/><path fill="#33907C" d="M147.4 222.6c0 .2 0 .4-.2.6l-.8-.5c.3 0 .5-.2.6-.4l.3-.7v1Z"/><path fill="#000" d="M147.4 222.6c0 .2 0 .4-.2.6l-.8-.5c.3 0 .5-.2.6-.4l.3-.7v1Z" opacity=".3"/><path fill="#33907C" d="m147.4 223.2-1-.5c.3 0 .5-.3.7-.5a1.4 1.4 0 0 0 .3-1l-.4-.7-.7-.5c-.7-.3-1.4-.5-2.2-.5h-.8a9 9 0 0 0-1.6.4l-.6.2h-.3c-.5.2-1 .4-1.5.4h-.6a2 2 0 0 1-.3 0c-.4-.3-.4-.6.3-1a2.6 2.6 0 0 1 2.1-.2l1.5-1.3c-1.5-.5-3-.4-4.5.2l-1.2-.7-1.7 1 1.3.6-.7.5-.2.8c0 .4.3.9 1 1.3 1.7.8 3.3.5 4.7 0 1.4-.3 2.4-.8 3.1-.4.5.3.4.6-.2.9a2.9 2.9 0 0 1-2.3.1l-1.6 1.5a6.5 6.5 0 0 0 4.7-.2l1.3.7 1.6-1h-.2Z"/><path fill="#33907C" d="M144.8 223.6v1.2l1.2.7v-1.2l-1.2-.7Z"/><path fill="#000" d="M144.8 223.6v1.2l1.2.7v-1.2l-1.2-.7Z" opacity=".5"/><path fill="#F5F5F5" d="m135 218.5 1.6-1 1.2.7-1.2-.4-1.7.7ZM138.7 219.6a2.6 2.6 0 0 1 2-.2l1.6-1.4-1.5 1.2a2.4 2.4 0 0 0-2.1.4ZM140 223.8a6.5 6.5 0 0 0 2.4.4c-.8 0-1.5-.2-2.2-.4l1.4-1.4-1.6 1.4ZM144.8 223.6l1.2.5 1.6-.7-1.6.9-1.2-.7ZM130.2 216c4.3-2.5 11-2.8 11-2.8-4.2 0-8.2 1-11.2 2.5-2.8 1.6-4.4 3.6-4.4 5.7 0 0 .1-3 4.6-5.4ZM140 230.2a26 26 0 0 0 12.9-2.5c3.7-2 5.2-4.7 4.7-7.3 0 0 .7 4.2-5 7.1-5.7 2.9-12.6 2.7-12.6 2.7Z"/><path fill="#33907C" d="M240.6 143.4c-1-1.4-2.3-2.6-3.9-3.4a27.5 27.5 0 0 0-23.2 0c-1.6.8-3 2-4 3.4h-.8v3.1c.1 2.2 1.7 4.3 4.8 6a27.5 27.5 0 0 0 23.2 0c3-1.7 4.7-3.8 4.8-6v-3.1h-.9Z"/><path fill="#000" d="M240.6 143.4c-1-1.4-2.3-2.6-3.9-3.4a27.5 27.5 0 0 0-23.2 0c-1.6.8-3 2-4 3.4h-.8v3.1c.1 2.2 1.7 4.3 4.8 6a27.5 27.5 0 0 0 23.2 0c3-1.7 4.7-3.8 4.8-6v-3.1h-.9Z" opacity=".3"/><path fill="#000" d="M225.1 137.4c-4.2 0-8.4.9-11.6 2.6-1.6.8-3 2-4 3.4h-.8v3.1c.1 2.2 1.7 4.3 4.8 6 3.2 1.7 7.4 2.6 11.6 2.6v-17.7Z" opacity=".1"/><path fill="#000" d="m216.1 138.9-2.6 1.1c-1.6.8-3 2-4 3.4h-.8v3.1c.1 2.2 1.7 4.3 4.8 6l2.6 1.1V139Z" opacity=".1"/><path fill="#33907C" d="m234 138.9 2.7 1.1c1.6.8 3 2 4 3.4h.8v3.1c0 2.2-1.7 4.3-4.8 6l-2.6 1.1V139Z"/><path fill="#33907C" d="M236.7 137.1a27.5 27.5 0 0 0-23.2 0c-6.4 3.5-6.4 9 0 12.5a27.4 27.4 0 0 0 23.2 0c6.4-3.4 6.4-9 0-12.5Z"/><path fill="#000" d="M236.7 137.1a27.5 27.5 0 0 0-23.2 0c-6.4 3.5-6.4 9 0 12.5a27.4 27.4 0 0 0 23.2 0c6.4-3.4 6.4-9 0-12.5Z" opacity=".2"/><path fill="#33907C" d="M232.7 139.4a19.7 19.7 0 0 0-15.2 0c-2.1 1-3.3 2.5-3.3 4s1.2 3 3.3 4a19.6 19.6 0 0 0 15.2 0c2.1-1 3.3-2.5 3.3-4s-1.2-3-3.3-4Z"/><path fill="#000" d="M232.7 139.4a19.7 19.7 0 0 0-15.2 0c-2.1 1-3.3 2.5-3.3 4s1.2 3 3.3 4a19.6 19.6 0 0 0 15.2 0c2.1-1 3.3-2.5 3.3-4s-1.2-3-3.3-4Z" opacity=".4"/><path fill="#33907C" d="M236.4 137.7c-3-1.6-7-2.5-11.3-2.5-4.2 0-8.2 1-11.2 2.5-2.9 1.6-4.5 3.6-4.5 5.7s1.6 4.1 4.5 5.7c3 1.6 7 2.5 11.2 2.5 4.3 0 8.3-1 11.3-2.5 2.9-1.6 4.4-3.6 4.4-5.7s-1.6-4.1-4.4-5.7Zm-3.7 9.6a19.6 19.6 0 0 1-15.1 0c-2.2-1-3.4-2.4-3.4-4 0-1.4 1.2-2.8 3.4-3.9a19.7 19.7 0 0 1 15.1 0c2.2 1 3.3 2.5 3.3 4s-1.2 3-3.3 4Z"/><path fill="#000" d="M232.4 146.9c4-2 4-5 0-7s-10.6-2-14.6 0-4 5 0 7 10.6 2 14.6 0Z" opacity=".2"/><path fill="#33907C" d="M232.4 146.9c4-2 4-5 0-7s-10.6-2-14.6 0-4 5 0 7 10.6 2 14.6 0Z"/><path fill="#000" d="M232.4 146.9c4-2 4-5 0-7s-10.6-2-14.6 0-4 5 0 7 10.6 2 14.6 0Z" opacity=".6"/><path fill="#33907C" d="M232.4 141.2c-4-2-10.6-2-14.6 0-1.7.8-2.6 1.8-3 2.9.4 1 1.3 2 3 2.8 4 2 10.6 2 14.6 0 1.7-.8 2.7-1.8 3-2.8-.3-1.1-1.3-2-3-2.9Z"/><path fill="#000" d="M232.4 141.2c-4-2-10.6-2-14.6 0-1.7.8-2.6 1.8-3 2.9.4 1 1.3 2 3 2.8 4 2 10.6 2 14.6 0 1.7-.8 2.7-1.8 3-2.8-.3-1.1-1.3-2-3-2.9Z" opacity=".5"/><path fill="#33907C" d="M226 140v1.4l-.4.5-1 1v-1.5l1.5-1.4Z"/><path fill="#000" d="M226 140v1.4l-.4.5-1 1v-1.5l1.5-1.4Z" opacity=".3"/><path fill="#33907C" d="M224.6 141.4v.8l-1.5.4h-.6l-.3-.1c-.3-.2-.4-.5.3-1a2.6 2.6 0 0 1 2.1-.1Z"/><path fill="#000" d="M224.6 141.4v.8l-1.5.4h-.6l-.3-.1c-.3-.2-.4-.5.3-1a2.6 2.6 0 0 1 2.1-.1Z" opacity=".5"/><path fill="#33907C" d="M231.5 145.4v1.2l-1.7.9-1.2-.7c-1.5.7-3.2.7-4.8.2v-1.2l.8-.7-.8.2a5.2 5.2 0 0 1-3.6-.4c-.8-.4-1.1-.8-1.1-1.3v-1.2l.1-.5-.4-.2v-1.3l1.2.7c-.3.1-.5.3-.6.6-.2.2-.3.4-.3.7 0 .5.3.9 1 1.3 1.7.8 3.3.5 4.7.1 1.4-.4 2.4-.9 3.2-.5.5.3.3.6-.2 1a2.8 2.8 0 0 1-2.4 0l-1.5 1.5.8.2c1.3.3 2.7.1 4-.4l1.1.6 1.7-.8Z"/><path fill="#000" d="M219 142.4c0 .5.4.9 1.1 1.3 1.7.9 3.2.6 4.7.1 1.4-.4 2.4-.9 3.1-.5.5.3.4.6-.2 1a2.8 2.8 0 0 1-2.3 0l-1.6 1.5 1 .2c1.2.3 2.6.1 3.8-.4l1.2.7 1.7-1v1.3l-1.7.9-1.2-.7c-1.5.7-3.2.7-4.8.2v-1.2l.8-.7-.8.2a5.2 5.2 0 0 1-3.6-.4c-.8-.4-1.1-.8-1.1-1.3v-1.2l.1-.5" opacity=".3"/><path fill="#000" d="M218.7 140.4v1.3l.5.2.8-.8-1.3-.7Z" opacity=".5"/><path fill="#33907C" d="m231.2 144.6-.1.5-.8-.4c.2 0 .4-.2.6-.4l.3-.7v1Z"/><path fill="#000" d="m231.2 144.6-.1.5-.8-.4c.2 0 .4-.2.6-.4l.3-.7v1Z" opacity=".3"/><path fill="#33907C" d="m231.2 145.2-1-.5c.3-.1.6-.3.7-.5l.3-.8v-.2l-.4-.7-.7-.5c-.6-.3-1.4-.5-2.2-.5h-.7a9.5 9.5 0 0 0-1.6.4l-.7.2h-.3c-.4.2-1 .4-1.4.4h-1c-.3-.3-.4-.6.3-1a2.5 2.5 0 0 1 2.1-.2l1.5-1.3c-1.4-.5-3-.4-4.4.2l-1.3-.6-1.6.9 1.2.6c-.3.2-.5.3-.6.6-.2.2-.3.5-.3.7 0 .5.3.9 1 1.3 1.7.9 3.3.6 4.7.1 1.4-.4 2.4-.9 3.2-.4.5.2.3.5-.2.8a2.9 2.9 0 0 1-2.4.2l-1.5 1.4a6 6 0 0 0 2.3.3c.9 0 1.7-.2 2.4-.5l1.2.7 1.7-1h-.3Z"/><path fill="#33907C" d="M228.6 145.6v1.2l1.2.7v-1.2l-1.2-.7Z"/><path fill="#000" d="M228.6 145.6v1.2l1.2.7v-1.2l-1.2-.7Z" opacity=".5"/><path fill="#F5F5F5" d="m218.7 140.4 1.7-.9 1.2.7-1.2-.5-1.7.7ZM222.5 141.6a2.5 2.5 0 0 1 2.1-.2l1.5-1.4-1.5 1.2a2.4 2.4 0 0 0-2.1.4ZM223.8 145.8a6 6 0 0 0 2.4.3c-.7 0-1.4-.1-2.1-.4l1.3-1.4-1.6 1.5ZM228.6 145.6l1.2.5 1.7-.7-1.7.9-1.2-.7ZM214 138a29.1 29.1 0 0 1 11.1-2.8c-4.3 0-8.3 1-11.3 2.5-2.8 1.6-4.4 3.6-4.4 5.7 0 0 .2-3 4.6-5.5ZM223.8 152.2c4.7.2 9.4-.7 13-2.6 3.6-2 5.2-4.6 4.6-7.2 0 0 .7 4.2-5 7-5.6 3-12.6 2.8-12.6 2.8Z"/><path fill="#33907C" d="M241.6 139c-1-1.3-2.3-2.5-3.9-3.3a27.5 27.5 0 0 0-23.2 0c-1.6.8-3 2-4 3.4h-.8v3.1c0 2.2 1.7 4.3 4.8 6a27.5 27.5 0 0 0 23.2 0c3-1.7 4.7-3.8 4.8-6v-3.1h-.9Z"/><path fill="#000" d="M241.6 139c-1-1.3-2.3-2.5-3.9-3.3a27.5 27.5 0 0 0-23.2 0c-1.6.8-3 2-4 3.4h-.8v3.1c0 2.2 1.7 4.3 4.8 6a27.5 27.5 0 0 0 23.2 0c3-1.7 4.7-3.8 4.8-6v-3.1h-.9Z" opacity=".3"/><path fill="#000" d="M226 133.1c-4.1 0-8.3.9-11.5 2.6-1.6.8-3 2-4 3.4h-.8v3.1c0 2.2 1.7 4.3 4.8 6 3.2 1.7 7.4 2.6 11.6 2.6V133Z" opacity=".1"/><path fill="#000" d="m217.1 134.6-2.6 1.1c-1.6.8-3 2-4 3.4h-.8v3.1c0 2.2 1.7 4.3 4.8 6l2.6 1.1v-14.7Z" opacity=".1"/><path fill="#33907C" d="m235 134.6 2.7 1.1c1.6.8 3 2 4 3.4h.8v3.1c0 2.2-1.7 4.3-4.8 6l-2.6 1.1v-14.7Z"/><path fill="#33907C" d="M237.7 132.8a27.5 27.5 0 0 0-23.2 0c-6.4 3.5-6.4 9 0 12.5a27.4 27.4 0 0 0 23.2 0c6.4-3.4 6.4-9 0-12.5Z"/><path fill="#000" d="M237.7 132.8a27.5 27.5 0 0 0-23.2 0c-6.4 3.5-6.4 9 0 12.5a27.4 27.4 0 0 0 23.2 0c6.4-3.4 6.4-9 0-12.5Z" opacity=".2"/><path fill="#33907C" d="M233.7 135.1a19.8 19.8 0 0 0-15.2 0c-2.1 1-3.3 2.5-3.3 4s1.2 3 3.3 4a19.6 19.6 0 0 0 15.2 0c2-1 3.3-2.5 3.3-4s-1.2-3-3.3-4Z"/><path fill="#000" d="M233.7 135.1a19.8 19.8 0 0 0-15.2 0c-2.1 1-3.3 2.5-3.3 4s1.2 3 3.3 4a19.6 19.6 0 0 0 15.2 0c2-1 3.3-2.5 3.3-4s-1.2-3-3.3-4Z" opacity=".4"/><path fill="#33907C" d="M237.3 133.4c-3-1.6-7-2.5-11.2-2.5-4.3 0-8.3 1-11.3 2.5-2.8 1.6-4.4 3.6-4.4 5.7s1.6 4.1 4.4 5.7c3 1.6 7 2.5 11.3 2.5 4.2 0 8.2-1 11.2-2.5 3-1.6 4.5-3.6 4.5-5.7s-1.6-4.1-4.5-5.7Zm-3.6 9.7a19.6 19.6 0 0 1-15.2 0c-2.1-1-3.3-2.5-3.3-4s1.2-3 3.3-4a19.8 19.8 0 0 1 15.2 0c2 1 3.3 2.5 3.3 4s-1.2 3-3.3 4Z"/><path fill="#000" d="M233.4 142.6c4-2 4-5 0-7s-10.6-2-14.6 0-4 5 0 7 10.6 2 14.6 0Z" opacity=".2"/><path fill="#33907C" d="M233.4 142.6c4-2 4-5 0-7s-10.6-2-14.6 0-4 5 0 7 10.6 2 14.6 0Z"/><path fill="#000" d="M233.4 142.6c4-2 4-5 0-7s-10.6-2-14.6 0-4 5 0 7 10.6 2 14.6 0Z" opacity=".6"/><path fill="#33907C" d="M233.4 137c-4-2-10.6-2-14.6 0-1.7.7-2.7 1.7-3 2.8.3 1 1.3 2 3 2.8 4 2 10.6 2 14.6 0 1.7-.8 2.6-1.8 3-2.8-.4-1-1.3-2.1-3-2.9Z"/><path fill="#000" d="M233.4 137c-4-2-10.6-2-14.6 0-1.7.7-2.7 1.7-3 2.8.3 1 1.3 2 3 2.8 4 2 10.6 2 14.6 0 1.7-.8 2.6-1.8 3-2.8-.4-1-1.3-2.1-3-2.9Z" opacity=".5"/><path fill="#33907C" d="M227 135.7v1.4l-.5.5-1 1V137l1.6-1.4Z"/><path fill="#000" d="M227 135.7v1.4l-.5.5-1 1V137l1.6-1.4Z" opacity=".3"/><path fill="#33907C" d="M225.6 137v.9l-1.5.4h-.6l-.3-.1c-.4-.2-.4-.5.3-1a2.6 2.6 0 0 1 2-.1Z"/><path fill="#000" d="M225.6 137v.9l-1.5.4h-.6l-.3-.1c-.4-.2-.4-.5.3-1a2.6 2.6 0 0 1 2-.1Z" opacity=".5"/><path fill="#33907C" d="M232.4 141v1.3l-1.6.9-1.2-.7c-1.5.7-3.2.7-4.8.2v-1.2l.8-.7-.8.2a5.2 5.2 0 0 1-3.7-.4c-.7-.4-1-.8-1-1.3v-1.7l-.4-.2V136l1.3.7c-.3.1-.5.3-.7.6l-.3.7c0 .5.4.9 1.1 1.3 1.6.8 3.2.5 4.7.1 1.4-.4 2.3-.9 3.1-.5.5.3.4.6-.2 1a2.9 2.9 0 0 1-2.3 0l-1.6 1.5a6.6 6.6 0 0 0 4.8-.2l1.2.6 1.6-.8Z"/><path fill="#000" d="M220 138.1c0 .5.4.9 1.1 1.3 1.6.8 3.2.5 4.7.1 1.4-.4 2.3-.9 3.1-.5.5.3.4.6-.2 1a2.9 2.9 0 0 1-2.3 0l-1.6 1.5a6.6 6.6 0 0 0 4.8-.2l1.2.6 1.6-.8v1.2l-1.6.9-1.2-.7c-1.5.6-3.2.7-4.8.2v-1.2l.8-.7-.8.2a5.2 5.2 0 0 1-3.7-.4c-.7-.4-1-.8-1-1.3v-1.7" opacity=".3"/><path fill="#000" d="M219.7 136.1v1.3l.5.2.7-.8-1.2-.7Z" opacity=".5"/><path fill="#33907C" d="M232.2 140.3c0 .2 0 .4-.2.5l-.8-.4.7-.5.3-.7v1Z"/><path fill="#000" d="M232.2 140.3c0 .2 0 .4-.2.5l-.8-.4.7-.5.3-.7v1Z" opacity=".3"/><path fill="#33907C" d="m232.2 141-1-.6.7-.5a1.4 1.4 0 0 0 .3-1c0-.4-.4-.8-1-1.2-.8-.3-1.5-.5-2.3-.5h-.8a9 9 0 0 0-1.5.3l-.7.3h-.3l-1.5.4h-.6a2 2 0 0 1-.3 0c-.3-.3-.4-.6.3-1a2.6 2.6 0 0 1 2.1-.2l1.5-1.4c-1.5-.4-3-.3-4.5.3l-1.2-.7-1.7 1 1.2.6-.6.5-.3.8c0 .4.4.9 1.1 1.3 1.6.8 3.2.5 4.7.1 1.4-.4 2.3-.9 3.1-.5.5.3.4.6-.2.9a2.8 2.8 0 0 1-2.3.1l-1.6 1.5a6.4 6.4 0 0 0 2.4.4c.8 0 1.6-.3 2.3-.6l1.3.7 1.6-1h-.2Z"/><path fill="#33907C" d="M229.6 141.3v1.2l1.2.7V142l-1.2-.7Z"/><path fill="#000" d="M229.6 141.3v1.2l1.2.7V142l-1.2-.7Z" opacity=".5"/><path fill="#F5F5F5" d="m219.7 136.1 1.7-.9 1.2.7-1.2-.5-1.7.7ZM223.5 137.3a2.6 2.6 0 0 1 2-.2l1.6-1.4-1.5 1.2a2.4 2.4 0 0 0-2.1.4ZM224.8 141.5a6.6 6.6 0 0 0 2.4.4c-.8 0-1.5-.2-2.2-.4l1.4-1.4-1.6 1.4ZM229.6 141.3l1.2.5 1.6-.7-1.6.9-1.2-.7ZM215 133.6a29 29 0 0 1 11-2.7c-4.2 0-8.2 1-11.2 2.5-2.8 1.6-4.4 3.6-4.4 5.7 0 0 .1-3 4.6-5.5ZM224.8 147.9a26 26 0 0 0 13-2.6c3.6-2 5.2-4.6 4.6-7.2 0 0 .7 4.2-5 7-5.6 3-12.6 2.8-12.6 2.8Z"/><path fill="#455A64" d="m172.4 173.8-2 .1-1.7-21.4h2l1.7 21.3ZM154.8 182.9h-2.1l-1.7-21.4h2l1.8 21.4ZM155.5 184.8H152l-5 33.1.1.2.2.2a1.5 1.5 0 0 0 1.2 0l.2-.2v-.1l6.8-33.2ZM176 173.7h-3.4l-5 33.1v.2l.3.2a1.4 1.4 0 0 0 1.2 0l.2-.1v-.2l6.7-33.2ZM202.5 217.3l-6-32.5h-3.4l7.7 32.6a.4.4 0 0 0 .2.2 1.4 1.4 0 0 0 1.3 0l.1-.1.1-.2ZM180.2 229.3l-5-33.2h-3.4l6.7 33.2a.4.4 0 0 0 .2.3 1.4 1.4 0 0 0 1.3 0l.1-.1.1-.2Z"/><path fill="#37474F" d="M196.6 184.8H193l1.4 6a60.8 60.8 0 0 0 2.7-2.4l-.6-3.6ZM152 184.8l-.6 4 .7 1 2 1.6 1.4-6.6H152ZM176 200.7l-.8-4.6h-3.4l1.1 5.6 3-1ZM173 174.5a5 5 0 0 0-.5 0l-4 25.9 2 1 5.2-26.3-2.8-.6Z"/><path fill="#33907C" d="M172.9 199.2c8.9-2.7 17-7 24-12.9.4-.4.7-1 .7-1.6V183a2 2 0 0 0-.2-1l-.7-.6c-7-4.8-15.2-8-23.8-9.4l-2 .1a42.7 42.7 0 0 0-18.8 10c-.5.5-.7 1.1-.8 1.8v1.7c0 .6.3 1.2.8 1.6 5 4.3 12 8.6 18.9 11.8.6.3 1.2.3 1.9.2Z"/><path fill="#000" d="M197.6 183v1.7c0 .6-.3 1.2-.8 1.6a66 66 0 0 1-25 13V172h1.1a60.3 60.3 0 0 1 24.4 10c.2.3.3.6.3 1Z" opacity=".4"/><path fill="#000" d="M171.8 172v27.3l-.9-.3c-6.9-3.2-13.9-7.5-18.8-11.8-.5-.4-.7-1-.8-1.6v-1.7c0-.7.3-1.3.7-1.7a42.6 42.6 0 0 1 19.8-10.2Z" opacity=".5"/><path fill="#33907C" d="M152 183.5c5 4.3 12 8.6 19 11.8.6.3 1.2.3 1.9.2a66 66 0 0 0 24.2-13.2.7.7 0 0 0 0-.7c-.2 0-.2-.2-.3-.2-7.1-4.8-15.3-8-23.9-9.4l-2 .1a42.7 42.7 0 0 0-18.8 10 1 1 0 0 0-.3.8c0 .2 0 .5.3.6Z"/><path fill="#000" d="M152 183.5c5 4.3 12 8.6 19 11.8.6.3 1.2.3 1.9.2a66 66 0 0 0 24.2-13.2.7.7 0 0 0 0-.7c-.2 0-.2-.2-.3-.2-7.1-4.8-15.3-8-23.9-9.4l-2 .1a42.7 42.7 0 0 0-18.8 10 1 1 0 0 0-.3.8c0 .2 0 .5.3.6Z" opacity=".3"/><path fill="#33907C" d="M147 158c3-3.8 6.8-7 11.3-9.4a40 40 0 0 1 14.3-4.5c.7 0 1.3.1 2 .4l.6.6.2.8v7.3c0 .2-.1.5-.3.7l-.7.4a40 40 0 0 0-26.5 14.2h-.8l-.6-.7-.2-.8v-7.3c0-.6.2-1.2.6-1.7Z"/><path fill="#000" d="m153.9 162.9-7.5-4a3 3 0 0 0-.1.8v7.3c0 .3 0 .6.2.8l.6.7a1.3 1.3 0 0 0 1.5-.4c1.6-1.9 3.4-3.6 5.3-5.2Z" opacity=".5"/><path fill="#000" d="M153.9 162.9a39.3 39.3 0 0 1 20.5-8.6l.7-.4c.2-.2.3-.5.3-.7v-7.3c0-.3-.1-.5-.3-.8-.1-.2-.3-.5-.6-.6-.6-.3-1.2-.4-1.9-.4A40 40 0 0 0 147 158a3 3 0 0 0-.5.9l7.5 4Z" opacity=".3"/><path fill="#33907C" d="M148.6 168.1a40 40 0 0 1 25.8-13.8c.3 0 .5-.2.7-.4.2-.2.3-.5.3-.7v-7.6l-.3-.3a1 1 0 0 0-.7-.2 40 40 0 0 0-25.8 13.8c-.3.5-.5 1.1-.6 1.8v7.2c0 .6.3.6.6.2Z"/><path fill="#000" d="M148.6 168.1a40 40 0 0 1 25.8-13.8c.3 0 .5-.2.7-.4.2-.2.3-.5.3-.7v-7.6l-.3-.3a1 1 0 0 0-.7-.2 40 40 0 0 0-25.8 13.8c-.3.5-.5 1.1-.6 1.8v7.2c0 .6.3.6.6.2Z" opacity=".4"/><path fill="#455A64" d="M193.4 225.3c-.6 0-.6.7-.6 2-.3 1.6-.1 3.1.3 4.5 1.6 2.3 3.4 2.2 5.3 4.5 1.6 1.9 3.8 4.2 8 4.4 5.2.3 7.4-2.7 6-3.8-1.6-1.2-5.3-2.8-9.7-7.6-2.2-2.4-9.3-4-9.3-4Z"/><path fill="#FFA8A7" d="M198.2 215.5s1 8 2.6 10.5a44 44 0 0 0 6.1 7.2l2 1.8c1 .9.2 1.4-.7 1.5-2 .4-4.1-.1-6.5-1.7-2.6-1.7-3.7-3.1-6-5.2a9.7 9.7 0 0 1-2-2.2c-.2-.5-.3-1.1-.3-1.7.1-.8 0-1.5-.3-2.3-.3-1-2.6-6.8-3-7.5l8.1-.4Z"/><path fill="#455A64" d="M206.2 218.1c-.7 0-.7.7-.7 2-.2 1.6-.1 3.1.4 4.5 1.5 2.3 3.4 2.2 5.3 4.5 1.5 1.9 3.7 4.2 8 4.4 5.2.3 7.3-2.7 5.9-3.8-1.6-1.2-5.3-2.8-9.7-7.6-2.2-2.4-9.2-4-9.2-4Z"/><path fill="#FFA8A7" d="M210.8 206.6s1.2 9.7 2.8 12.2c1.4 2.4 3.8 5 6 7.2l2 1.8c1 .9.2 1.4-.7 1.5-2 .4-4.1-.1-6.4-1.7-2.7-1.8-3.8-3.2-6-5.2a9.8 9.8 0 0 1-2-2.2c-.3-.5-.4-1.1-.4-1.7a6 6 0 0 0-.1-2l-3-8 7.8-1.9Z"/><path fill="#37474F" d="M183 195.7c1.5.8 1.2 1.6 1.4 4.3.4 3.4.8 4 3.2 10l4 10s4.2.4 7.2-1.9c0 0-3-24.2-4.3-27.7a82.4 82.4 0 0 0-13.8-13.9l2.5-9.8-25 1.5s-1.8 6.6-.5 10.9c1.2 4.3 3.8 7 11.6 10.5 5.4 2.5 12.2 5.5 13.8 6Z"/><path fill="#37474F" d="M197.3 189.7c1 .6.5 2.7 1.4 7 .6 2.7 2 6.5 3.4 10.2l2.6 7c1.4.5 6-.1 7.2-1.1 0 0-2.2-25.2-3.9-29.2-1.7-4-9.1-7.8-13.4-10.1-4.2-2.3-6.6-3.7-11.4-6.8l-10.3-6.6c-.8 4.1-1 6.4.6 10.6a26.5 26.5 0 0 0 11.4 14c5.1 2.7 10.9 4.3 12.4 5Z"/><path fill="#37474F" d="m183.8 172.8-3 3.7.8.7c1-1.3 1.8-2.8 2.2-4.4Z"/><path fill="#FFA8A7" d="M178.1 136.9c2.7-.2 5.7.8 6.7 3.7 1 2.9 5 17.7 5 17.7s7.5 4.4 11.7 6.3l-4.5 3.5s-10.3-3.3-12-4.1c-1.9-.9-1.8-1.3-3.8-7.2-2.8-8.4-3-20-3-20Z"/><path fill="#33907C" d="M167.1 137.2a29 29 0 0 0-5.2.7s3.1 3.5 1.1 9.5c-1.4 4.3-2.5 4.5-5.1 5.4 1.8 7.3.2 15.6.2 15.6s4.7 5.4 15.5 4.5c9.4-.8 9.6-6.2 9.6-6.2l-2.5-3.8.8-8.8s4.3-2.3 2.8-7.5c-1.3-4.6-6.1-9.7-6.1-9.7-1.1-.2-2.3-.2-3.4-.2l-7.7.5Z"/><path fill="#263238" d="M169.4 110.4c-2.4.4-4.7 1.4-6.6 2.9a10 10 0 0 0-4 9.7c1.1 5.4 4.3 7.6 7.4 11l4.5-.7 2.7-.4c1.2 0 2.4-.6 3.3-1.4a7 7 0 0 0 2.6-4c.1-.7.2-1.6.7-2.3a7 7 0 0 1 1.8-1.1c.8-.5 1.4-1.3 1.7-2.2a4 4 0 0 0 0-2.7c.5-.3 1-.7 1.2-1.2a2.5 2.5 0 0 0-.9-3c-.5-.4-1-.6-1.7-.5a6 6 0 0 0 .5-2 2.4 2.4 0 0 0-.8-2c-.7-.6-1.9-.7-2.9-.6l-5.3.1c-1.4 0-2.8.1-4.2.4Z"/><path fill="#FFA8A7" d="M179.6 116.9c1.4.7 3 2.8 2.9 9.7-.1 5.8-2.2 7.2-3.2 7.7-1 .4-3 .1-4.8-.1v2.4s2 3.7 1.6 6.4c-.2 1.6-3.4.2-5.9-1.4-1.6-1-3-2.5-4-4v-8.3s-1 .9-2.4 0c-1.5-.9-2.2-3.3-1-4.5 1.3-1.1 3.3-1 3.8.8 0 0-.1-3 4.4-4.4 3.3-1.1 7.3-1.4 8.6-4.3Z"/><path fill="#263238" d="M168.6 122.2c-.5.5-.9 3-.8 4.3 0 .3-.2.5-.4.8-.2.2-.5.3-.8.3v-2s-.2-3.7 2-3.4ZM174.9 125.2c0 .2 0 .5-.2.6l-.6.3a1 1 0 0 1-.7-.2.8.8 0 0 1-.2-.6v-.3c0-.1 0-.2.2-.3a.9.9 0 0 1 .6-.3h.3l.3.2a.8.8 0 0 1 .3.6Z"/><path fill="#B16668" d="m174.6 129.7 3.3 1-.3.5-.5.4a1.8 1.8 0 0 1-1.3.1c-.4-.1-.8-.4-1-.8-.2-.4-.3-.8-.2-1.2Z"/><path fill="#F28F8F" d="m175.1 130.3-.5.1c0 .3.2.6.4.8a1.8 1.8 0 0 0 1.5.6v-.2c0-.3-.1-.7-.4-1-.3-.1-.6-.3-1-.3Z"/><path fill="#263238" d="m181.5 121.8-2-.2.3-.6a1 1 0 0 1 1.5.1l.2.7ZM174 122.2l-1.9.8a.9.9 0 0 1 0-.7c0-.3.2-.5.5-.6h.7c.3 0 .5.2.6.5ZM181.1 124.9a.8.8 0 0 1-.2.6.9.9 0 0 1-.6.2 1 1 0 0 1-.6-.2.8.8 0 0 1-.3-.5v-.4l.2-.2a.9.9 0 0 1 .6-.3c.3 0 .5 0 .7.2l.2.6Z"/><path fill="#F28F8F" d="m177.7 129.2 2.4-1-2.8-3.4.4 4.4ZM174.5 134.1c-2-.2-6.2-1.3-6.8-2.8a4 4 0 0 0 1.4 2c1.3.9 5.3 2 5.3 2V134Z"/><path fill="#37474F" d="M190 196a3 3 0 0 0-2.5 0c-.1 0-.3 0-.4.2l-.1.4-4.5 42 .1.3.2.2a2 2 0 0 0 1.8 0l.3-.2v-.3l5.6-42c0-.2 0-.3-.2-.4l-.3-.3Zm57.3.6c0-.1 0-.3-.2-.4l-.3-.3a3 3 0 0 0-2.5 0l-.4.3-.1.4 5.5 42 .1.3.3.2a2 2 0 0 0 1.7 0l.3-.2v-.3l-4.4-42Zm-28.8 6.1a3.2 3.2 0 0 0-2.8 0 1 1 0 0 0-.3.3l-.2.5.5 45.7.2.3.2.2a2.3 2.3 0 0 0 2 0l.2-.2.2-.3.5-45.7-.1-.5a1 1 0 0 0-.4-.3Z"/><path fill="#263238" d="m218.9 216.4.1-13-.1-.4a1 1 0 0 0-.4-.3 3.2 3.2 0 0 0-2.8 0 1 1 0 0 0-.3.3l-.2.5.1 13h3.6ZM247.3 196.6c0-.1 0-.3-.2-.4l-.3-.3a3 3 0 0 0-2.5 0l-.4.3-.1.4 1.8 13.8.8-.4 2.2-1.3-1.3-12.1ZM190 196a3 3 0 0 0-2.5 0c-.1 0-.3 0-.4.2l-.1.4-1.3 12 2.2 1.4.8.3 1.8-13.7c0-.1 0-.3-.2-.4l-.3-.3Z"/><path fill="#455A64" d="M188 172.5a68.8 68.8 0 0 1 58.4 0c8 4.3 12 10 12 15.7v1c0 5.8-4 11.5-12 15.8a68.8 68.8 0 0 1-58.5 0c-8-4.3-12-10-12-15.7v-1.1c0-5.7 4-11.4 12-15.7Z"/><path fill="#33907C" d="M187.9 169.6a68.8 68.8 0 0 1 58.4 0c8.1 4.3 12.1 10 12.1 15.7v2c0 5.6-4 11.3-12 15.6a68.8 68.8 0 0 1-58.5 0c-8-4.3-12.1-10.8-12.1-16.5v-1c0-5.8 4-11.5 12-15.8Z"/><path fill="#fff" d="M187.9 169.6a68.8 68.8 0 0 1 58.4 0c8.1 4.3 12.1 10 12.1 15.7v2c0 5.6-4 11.3-12 15.6a68.8 68.8 0 0 1-58.5 0c-8-4.3-12.1-10.8-12.1-16.5v-1c0-5.8 4-11.5 12-15.8Z" opacity=".4"/><path fill="#000" d="M187.9 169.6a68.8 68.8 0 0 1 58.4 0c8.1 4.3 12.1 10 12.1 15.7v2c0 5.6-4 11.3-12 15.6a68.8 68.8 0 0 1-58.5 0c-8-4.3-12.1-10.8-12.1-16.5v-1c0-5.8 4-11.5 12-15.8Z" opacity=".1"/><path fill="#33907C" d="M246.3 201c16.2-8.7 16.2-22.7 0-31.4a68.8 68.8 0 0 0-58.4 0c-16.2 8.7-16.2 22.7 0 31.4a68.8 68.8 0 0 0 58.4 0Z"/><path fill="#fff" d="M246.4 201c16.1-8.7 16.1-22.7 0-31.4a68.8 68.8 0 0 0-58.5 0c-16.1 8.7-16.1 22.7 0 31.4a68.8 68.8 0 0 0 58.5 0Z" opacity=".8"/><path fill="#000" d="m224.7 176-16.7-9a1 1 0 0 0-1 0l-28.9 15.5a.2.2 0 0 0 0 .2v.1L195 192l29.7-16Z" opacity=".1"/><path fill="#37474F" d="M223.5 174v.4c0 .2 0 .5-.2.7-.1.2-.3.4-.6.5l-27 14.5a1.6 1.6 0 0 1-1.5 0l-14.7-7.8-.5-.6c-.2-.2-.2-.4-.2-.7v-.5.1l16.2 8.8 28.5-15.4Z"/><path fill="#263238" d="M195 189.4v1c.3 0 .5-.1.8-.3l27-14.5c.2 0 .4-.3.5-.5l.2-.7v-.4L195 189.4Z"/><path fill="#455A64" d="m223.5 174-16-8.5a1 1 0 0 0-.9 0L179 180.4h-.1a.2.2 0 0 0 0 .3l16.2 8.7 28.5-15.4Z"/><path fill="#FFA8A7" d="m189 157.8 6.5 3.6 4.5 2.1c1.4.6 3.1 1.2 4.1 2 1 1 6.2 5.7 7.3 6.5 1 .8.5 1.7-1.6 2.3a6.7 6.7 0 0 1-5-.5c-1.2-.7-2.3-1.5-3.4-2.4-1 0-1.9-.3-2.7-.8-1.1-.9-1.7-1.9-2.4-2.3-.6-.5-6.6-2.6-11-4.2l3.7-6.3Z"/><path fill="#37474F" d="m194.8 188.1-8.6-4.6 25.2-13.6 8.7 4.6-25.3 13.6Z"/><path fill="#263238" d="m220.1 174.5-.3.2-8.4-4.4-24.9 13.4-.3-.2 25.2-13.6 8.7 4.6ZM190.6 175.2l.2.1 4.2 2.3 7.5-4 .2-.1-4.4-2.4-7.7 4.1Z"/><path fill="#37474F" d="m190.8 175.3 4.2 2.3 7.5-4-4.2-2.3-7.5 4Z"/><path fill="#37474F" d="M195.4 189.6a2 2 0 0 0 1.6-.1l26.8-14.5c.3 0 .5-.3.6-.5.2-.2.3-.4.3-.7l3-16.3v-.3c0-.4-.2-.9-.6-1.2l-27.8 15-.5.4-.2.5-3.2 17.7Z"/><path fill="#455A64" d="M195 189.4h.2l.2.2 3.2-17.7.2-.5.5-.4 27.9-15-.4-.2-28 15-.4.4-.2.5-3.2 17.7Z"/><path fill="#263238" d="m198.9 171.4-.5-.3-.2.6-3.2 17.7h.2l.2.2 3.2-17.7c0-.2.1-.4.3-.5Z"/><path fill="#33907C" d="M210.5 174.5c.2-1 1.4-2.5 2.7-3.2 1.4-.7 2.2-.4 2 .7-.2 1-1.4 2.5-2.7 3.2-1.3.7-2.2.4-2-.7Z"/><path fill="#000" d="M234.8 195.3c2.6 1.4 2.6 3.6 0 5a11 11 0 0 1-9.5 0c-2.6-1.4-2.6-3.6 0-5a11 11 0 0 1 9.5 0Z" opacity=".1"/><path fill="#37474F" d="M225.8 198.2c-2.3-2.2-3.7-7.7-1.5-9.4h11.5c2.2 1.7.9 7.2-1.4 9.4l-.2.1-.2.2-.2.1a8 8 0 0 1-7.4 0l-.2-.1h-.1l-.2-.2v-.1h-.1Z"/><path fill="#455A64" d="M234.8 188.1c2.6 1.4 2.6 3.7 0 5a11 11 0 0 1-9.5 0c-2.6-1.3-2.6-3.6 0-5a11 11 0 0 1 9.5 0Z"/><path fill="#263238" d="M233 189.1c1.5.8 1.5 2.2 0 3a6.7 6.7 0 0 1-5.8 0c-1.6-.8-1.6-2.2 0-3a6.7 6.7 0 0 1 5.7 0Z"/><path fill="#E0E0E0" d="M227.2 190.6a6.7 6.7 0 0 1 5.7 0c.4.2.7.4 1 .8l-1 .8a6.7 6.7 0 0 1-5.7 0l-1-.8c.3-.4.6-.7 1-.8Z"/><path fill="#33907C" d="M232.8 191.3c1-.8 1.7-1.8 2.3-2.8 1-1.7 1.2-4 .7-4.3-.5-.3-2.7 2-2.7 2 .2-1 .2-2 .2-3 0-1.5-.5-2.9-1-3.2-.4-.3-1.5 1.7-2 3.1l-.7 2.6a20 20 0 0 0-.8-3.3c-.5-1.4-1-1.8-1.4-1.6-.4.1-.6.8-.8 2.7l.1 2.8-1.6-1.5c-1-.9-1.4-1-1.7-.8-.2.1-.3 1.4 1.2 4 .7 1.2 1.6 2.3 2.7 3.3 0 0 2 1.2 5.5 0Z"/><path fill="#000" d="M232.8 191.3c1-.8 1.7-1.8 2.3-2.8 1-1.7 1.2-4 .7-4.3-.5-.3-2.7 2-2.7 2 .2-1 .2-2 .2-3 0-1.5-.5-2.9-1-3.2-.4-.3-1.5 1.7-2 3.1l-.7 2.6a20 20 0 0 0-.8-3.3c-.5-1.4-1-1.8-1.4-1.6-.4.1-.6.8-.8 2.7l.1 2.8-1.6-1.5c-1-.9-1.4-1-1.7-.8-.2.1-.3 1.4 1.2 4 .7 1.2 1.6 2.3 2.7 3.3 0 0 2 1.2 5.5 0Z" opacity=".3"/><path fill="#000" d="M231.5 187.9s1.5-3.7 1.5-6.3a10.2 10.2 0 0 1 0 4.6c-.4.6-.9 1.2-1.5 1.7ZM229.2 191.8c1.1-.1 2.2-.6 3-1.2a13 13 0 0 0 4-5.5 7 7 0 0 1-1 3.4c-.7 1-1.5 2-2.4 2.8-1.1.5-2.4.6-3.6.5Z" opacity=".1"/><path fill="#FFA8A7" d="M177.4 177c-.8-.6-14.8-4.8-17-6-2.4-1-2.5-1.8-3.2-5-1-4.8-1.8-14.6-2.1-20.2-.2-3 .4-7 6.8-7.9 1.5 1.5 3.6 4 2 11.4l1.2 16a187.1 187.1 0 0 0 16 6.9c1.4.6 3.2 1.2 4.2 2 1 1 6.3 5.8 7.4 6.6 1.1.8.6 1.7-1.6 2.3a6.8 6.8 0 0 1-5-.5 21 21 0 0 1-3.5-2.4c-1 0-2-.3-2.8-.9-1.1-.8-1.8-1.8-2.4-2.3Z"/></svg>