<?xml version="1.0" encoding="UTF-8"?><svg xmlns="http://www.w3.org/2000/svg" xmlns:xlink="http://www.w3.org/1999/xlink" contentScriptType="text/ecmascript" width="375" zoomAndPan="magnify" contentStyleType="text/css" viewBox="0 0 375 374.999991" height="374.999991" preserveAspectRatio="xMidYMid meet" version="1.0"><defs><clipPath id="clip-0"><path d="M 65.976562 21.027344 L 179 21.027344 L 179 187 L 65.976562 187 Z M 65.976562 21.027344 " clip-rule="nonzero"/></clipPath><clipPath id="clip-1"><path d="M 196 21.027344 L 308.976562 21.027344 L 308.976562 354 L 196 354 Z M 196 21.027344 " clip-rule="nonzero"/></clipPath></defs><rect x="-37.5" width="450" fill="rgb(100%, 100%, 100%)" y="-37.499999" height="449.999989" fill-opacity="1"/><rect x="-37.5" width="450" fill="rgb(100%, 100%, 100%)" y="-37.499999" height="449.999989" fill-opacity="1"/><rect x="-37.5" width="450" fill="rgb(100%, 100%, 100%)" y="-37.499999" height="449.999989" fill-opacity="1"/><rect x="-37.5" width="450" fill="rgb(12.939453%, 40.779114%, 41.178894%)" y="-37.499999" height="449.999989" fill-opacity="1"/><g clip-path="url(#clip-0)"><path fill="rgb(12.159729%, 14.118958%, 12.939453%)" d="M 71.03125 186.796875 L 178.449219 79.347656 L 178.449219 21.238281 C 115.574219 25.878906 65.996094 78.332031 65.996094 142.414062 C 65.996094 148.652344 66.472656 154.785156 67.378906 160.773438 C 67.816406 169.480469 69.121094 178.175781 71.03125 186.796875 " fill-opacity="1" fill-rule="nonzero"/></g><path fill="rgb(28.62854%, 62.748718%, 47.059631%)" d="M 178.449219 104.957031 L 76.636719 206.804688 C 83.136719 226.015625 92.492188 244.597656 103.058594 261.828125 L 178.449219 186.414062 L 178.449219 104.957031 " fill-opacity="1" fill-rule="nonzero"/><path fill="rgb(12.159729%, 14.118958%, 12.939453%)" d="M 178.449219 212.023438 L 113.125 277.371094 C 137.28125 312.722656 164.621094 340.628906 178.449219 353.832031 L 178.449219 212.023438 " fill-opacity="1" fill-rule="nonzero"/><g clip-path="url(#clip-1)"><path fill="rgb(86.268616%, 88.238525%, 87.059021%)" d="M 196.550781 21.238281 L 196.550781 353.832031 C 223.734375 327.855469 303.367188 244.898438 307.613281 160.773438 C 308.523438 154.785156 309 148.652344 309 142.414062 C 309 78.332031 259.417969 25.878906 196.550781 21.238281 " fill-opacity="1" fill-rule="nonzero"/></g></svg>